SplineFontDB: 3.2
FontName: Gontserrat-ExtraBold
FullName: Gontserrat Extra Bold
FamilyName: Gontserrat Extra Bold
Weight: Bold
Copyright: Gontserrat is a derivative work of Montserrat under the Open Font License, version 1.1. Copyright 2020 Gabriel Classon (gabeclasson.com). Montserrat copyright 2011 The Montserrat Project Authors (https://github.com/JulietaUla/Montserrat). 
Version: 7.222
ItalicAngle: 0
UnderlinePosition: -100
UnderlineWidth: 50
Ascent: 800
Descent: 200
InvalidEm: 0
sfntRevision: 0x00010000
LayerCount: 2
Layer: 0 1 "Back" 1
Layer: 1 1 "Fore" 0
XUID: [1021 930 -1503615855 16999]
StyleMap: 0x0040
FSType: 0
OS2Version: 4
OS2_WeightWidthSlopeOnly: 0
OS2_UseTypoMetrics: 1
CreationTime: 1485852831
ModificationTime: 1642927563
PfmFamily: 81
TTFWeight: 800
TTFWidth: 5
LineGap: 0
VLineGap: 0
Panose: 0 0 9 0 0 0 0 0 0 0
OS2TypoAscent: 968
OS2TypoAOffset: 0
OS2TypoDescent: -251
OS2TypoDOffset: 0
OS2TypoLinegap: 0
OS2WinAscent: 1177
OS2WinAOffset: 0
OS2WinDescent: 496
OS2WinDOffset: 0
HheadAscent: 968
HheadAOffset: 0
HheadDescent: -251
HheadDOffset: 0
OS2SubXSize: 650
OS2SubYSize: 600
OS2SubXOff: 0
OS2SubYOff: 75
OS2SupXSize: 650
OS2SupYSize: 600
OS2SupXOff: 0
OS2SupYOff: 350
OS2StrikeYSize: 50
OS2StrikeYPos: 326
OS2CapHeight: 701
OS2XHeight: 544
OS2Vendor: 'ULA '
OS2CodePages: 20000193.00000000
OS2UnicodeRanges: 20000007.00000001.00000000.00000000
Lookup: 1 0 0 "'rtla' Right to Left Alternates in Latin lookup 0" { "'rtla' Right to Left Alternates in Latin lookup 0 subtable"  } ['rtla' ('DFLT' <'dflt' > 'latn' <'dflt' > ) ]
Lookup: 1 0 0 "<10,2> Inferiors lookup 1" { "<10,2> Inferiors lookup 1 subtable" ("inferior") } [<10,2> ('DFLT' <'dflt' > ) 'subs' ('DFLT' <'dflt' > ) ]
Lookup: 1 0 0 "<10,1> Superiors lookup 2" { "<10,1> Superiors lookup 2 subtable" ("superior") } [<10,1> ('DFLT' <'dflt' > ) 'sups' ('DFLT' <'dflt' > ) ]

StartChar: .notdef
Encoding: 65536 -1 0
Width: 587
Flags: W
LayerCount: 2
Fore
SplineSet
40 0 m 1,0,-1
 40 700 l 1,1,-1
 547 700 l 1,2,-1
 547 0 l 1,3,-1
 40 0 l 1,0,-1
120 70 m 1,4,-1
 467 70 l 1,5,-1
 467 630 l 1,6,-1
 120 630 l 1,7,-1
 120 70 l 1,4,-1
EndSplineSet
EndChar

StartChar: exclam
Encoding: 33 33 5
Width: 276
Flags: W
LayerCount: 2
Fore
SplineSet
45 699 m 1,0,-1
 237 699 l 1,1,-1
 237 517 l 1,2,-1
 202 250 l 1,3,-1
 81 250 l 1,4,-1
 45 517 l 1,5,-1
 45 699 l 1,0,-1
205.5 154 m 128,-1,7
 232 128 232 128 232 87 c 0,8,9
 232 45 232 45 205.5 18.5 c 128,-1,10
 179 -8 179 -8 137 -8 c 0,11,12
 96 -8 96 -8 69.5 18.5 c 128,-1,13
 43 45 43 45 43 87 c 0,14,15
 43 128 43 128 69.5 154 c 128,-1,16
 96 180 96 180 137 180 c 0,17,6
 179 180 179 180 205.5 154 c 128,-1,7
EndSplineSet
Substitution2: "<3,3> Small Caps in Latin lookup 11 subtable" exclam.sc
EndChar

StartChar: numbersign
Encoding: 35 35 7
Width: 741
Flags: W
LayerCount: 2
Fore
SplineSet
716 409 m 1,0,-1
 583 409 l 1,1,-1
 567 284 l 1,2,-1
 699 284 l 1,3,-1
 682 146 l 1,4,-1
 550 146 l 1,5,-1
 532 0 l 1,6,-1
 387 0 l 1,7,-1
 405 146 l 1,8,-1
 285 146 l 1,9,-1
 267 0 l 1,10,-1
 123 0 l 1,11,-1
 141 146 l 1,12,-1
 9 146 l 1,13,-1
 26 284 l 1,14,-1
 158 284 l 1,15,-1
 174 409 l 1,16,-1
 43 409 l 1,17,-1
 58 547 l 1,18,-1
 191 547 l 1,19,-1
 210 701 l 1,20,-1
 354 701 l 1,21,-1
 335 547 l 1,22,-1
 455 547 l 1,23,-1
 474 701 l 1,24,-1
 619 701 l 1,25,-1
 600 547 l 1,26,-1
 732 547 l 1,27,-1
 716 409 l 1,0,-1
422 284 m 1,28,-1
 438 409 l 1,29,-1
 318 409 l 1,30,-1
 302 284 l 1,31,-1
 422 284 l 1,28,-1
EndSplineSet
EndChar

StartChar: dollar
Encoding: 36 36 8
Width: 655
Flags: W
LayerCount: 2
Fore
SplineSet
302 469.5 m 128,-1,1
 332 454 332 454 397 436 c 0,2,3
 471 415 471 415 519 393.5 c 128,-1,4
 567 372 567 372 602.5 328 c 128,-1,5
 638 284 638 284 638 212 c 0,6,7
 638 119 638 119 576.5 63 c 128,-1,8
 515 7 515 7 415 -7 c 1,9,-1
 415 -160 l 1,10,-1
 266 -160 l 1,11,-1
 266 -5 l 1,12,13
 195 6 195 6 128.5 33.5 c 128,-1,14
 62 61 62 61 12 102 c 1,15,-1
 90 260 l 1,16,17
 143 214 143 214 219.5 182.5 c 128,-1,18
 296 151 296 151 351 151 c 0,19,20
 385 151 385 151 404 164 c 128,-1,21
 423 177 423 177 423 201 c 0,22,23
 423 230 423 230 392 245.5 c 128,-1,24
 361 261 361 261 296 278 c 0,25,26
 223 297 223 297 175 317.5 c 128,-1,27
 127 338 127 338 92 381 c 128,-1,28
 57 424 57 424 57 494 c 0,29,30
 57 579 57 579 112.5 636 c 128,-1,31
 168 693 168 693 266 710 c 1,32,-1
 266 857 l 1,33,-1
 415 857 l 1,34,-1
 415 713 l 1,35,36
 478 705 478 705 536.5 684.5 c 128,-1,37
 595 664 595 664 640 635 c 1,38,-1
 563 475 l 1,39,40
 507 508 507 508 440 531 c 128,-1,41
 373 554 373 554 330 554 c 0,42,43
 303 554 303 554 287.5 543.5 c 128,-1,44
 272 533 272 533 272 513 c 0,45,0
 272 485 272 485 302 469.5 c 128,-1,1
EndSplineSet
EndChar

StartChar: ampersand
Encoding: 38 38 10
Width: 697
Flags: W
LayerCount: 2
Fore
SplineSet
588 -35 m 1,0,-1
 494 55 l 1,1,2
 405 -9 405 -9 301 -9 c 0,3,4
 230 -9 230 -9 174 17.5 c 128,-1,5
 118 44 118 44 86 91 c 128,-1,6
 54 138 54 138 54 198 c 0,7,8
 54 261 54 261 89.5 304 c 128,-1,9
 125 347 125 347 187 382 c 1,10,11
 158 425 158 425 145 461 c 128,-1,12
 132 497 132 497 132 535 c 0,13,14
 132 615 132 615 188.5 662.5 c 128,-1,15
 245 710 245 710 341 710 c 0,16,17
 402 710 402 710 450.5 689 c 128,-1,18
 499 668 499 668 526 631 c 128,-1,19
 553 594 553 594 553 547 c 0,20,21
 553 481 553 481 510 437.5 c 128,-1,22
 467 394 467 394 392 355 c 1,23,24
 442 301 442 301 482 261 c 1,25,26
 508 309 508 309 523 365 c 1,27,-1
 650 274 l 1,28,29
 625 207 625 207 590 156 c 1,30,31
 625 124 625 124 690 63 c 1,32,-1
 588 -35 l 1,0,-1
318 450 m 1,34,35
 355 472 355 472 375 494 c 128,-1,36
 395 516 395 516 395 545 c 0,37,38
 395 569 395 569 380.5 583 c 128,-1,39
 366 597 366 597 343 597 c 0,40,41
 318 597 318 597 303.5 580 c 128,-1,42
 289 563 289 563 289 536 c 0,43,33
 289 496 289 496 318 450 c 1,34,35
391 156 m 1,45,46
 310 237 310 237 265 286 c 1,47,48
 218 254 218 254 218 213 c 0,49,50
 218 176 218 176 243.5 153.5 c 128,-1,51
 269 131 269 131 309 131 c 0,52,44
 350 131 350 131 391 156 c 1,45,46
EndSplineSet
Substitution2: "<3,3> Small Caps in Latin lookup 11 subtable" ampersand.sc
EndChar

StartChar: quotesingle
Encoding: 39 39 11
Width: 271
Flags: W
LayerCount: 2
Fore
SplineSet
60 701 m 1,0,-1
 211 701 l 1,1,-1
 211 411 l 1,2,-1
 60 411 l 1,3,-1
 60 701 l 1,0,-1
EndSplineSet
Substitution2: "<3,3> Small Caps in Latin lookup 11 subtable" quotesingle.sc
EndChar

StartChar: parenleft
Encoding: 40 40 12
Width: 358
Flags: W
LayerCount: 2
Fore
SplineSet
273.5 537.5 m 128,-1,1
 241 426 241 426 241 309 c 256,2,3
 241 192 241 192 273.5 80.5 c 128,-1,4
 306 -31 306 -31 363 -124 c 1,5,-1
 183 -124 l 1,6,7
 119 -35 119 -35 85.5 76.5 c 128,-1,8
 52 188 52 188 52 309 c 256,9,10
 52 430 52 430 85.5 541.5 c 128,-1,11
 119 653 119 653 183 742 c 1,12,-1
 363 742 l 1,13,0
 306 649 306 649 273.5 537.5 c 128,-1,1
EndSplineSet
Substitution2: "'rtla' Right to Left Alternates in Latin lookup 0 subtable" parenright
EndChar

StartChar: parenright
Encoding: 41 41 13
Width: 358
Flags: W
LayerCount: 2
Fore
SplineSet
175 742 m 1,0,1
 239 653 239 653 272.5 541.5 c 128,-1,2
 306 430 306 430 306 309 c 256,3,4
 306 188 306 188 272.5 76.5 c 128,-1,5
 239 -35 239 -35 175 -124 c 1,6,-1
 -5 -124 l 1,7,8
 52 -31 52 -31 84.5 80.5 c 128,-1,9
 117 192 117 192 117 309 c 256,10,11
 117 426 117 426 84.5 537.5 c 128,-1,12
 52 649 52 649 -5 742 c 1,13,-1
 175 742 l 1,0,1
EndSplineSet
Substitution2: "'rtla' Right to Left Alternates in Latin lookup 0 subtable" parenleft
EndChar

StartChar: asterisk
Encoding: 42 42 14
Width: 394
Flags: W
LayerCount: 2
Fore
SplineSet
147 719 m 1,0,-1
 247 719 l 1,1,-1
 245 627 l 1,2,-1
 323 674 l 1,3,-1
 373 588 l 1,4,-1
 291 545 l 1,5,-1
 373 500 l 1,6,-1
 323 413 l 1,7,-1
 244 461 l 1,8,-1
 247 370 l 1,9,-1
 147 370 l 1,10,-1
 150 462 l 1,11,-1
 71 415 l 1,12,-1
 21 500 l 1,13,-1
 102 545 l 1,14,-1
 21 588 l 1,15,-1
 71 676 l 1,16,-1
 149 627 l 1,17,-1
 147 719 l 1,0,-1
EndSplineSet
EndChar

StartChar: plus
Encoding: 43 43 15
Width: 515
Flags: W
LayerCount: 2
Fore
SplineSet
484 391 m 1,0,-1
 484 265 l 1,1,-1
 321 265 l 1,2,-1
 321 101 l 1,3,-1
 195 101 l 1,4,-1
 195 265 l 1,5,-1
 31 265 l 1,6,-1
 31 391 l 1,7,-1
 195 391 l 1,8,-1
 195 555 l 1,9,-1
 321 555 l 1,10,-1
 321 391 l 1,11,-1
 484 391 l 1,0,-1
EndSplineSet
EndChar

StartChar: comma
Encoding: 44 44 16
Width: 254
Flags: W
LayerCount: 2
Fore
SplineSet
195 155 m 128,-1,1
 222 130 222 130 222 87 c 0,2,3
 222 52 222 52 197 13 c 2,4,-1
 109 -126 l 1,5,-1
 14 -126 l 1,6,-1
 71 14 l 1,7,8
 53 26 53 26 43.5 45 c 128,-1,9
 34 64 34 64 34 86 c 0,10,11
 34 127 34 127 61 153.5 c 128,-1,12
 88 180 88 180 129 180 c 0,13,0
 168 180 168 180 195 155 c 128,-1,1
EndSplineSet
EndChar

StartChar: hyphen
Encoding: 45 45 17
Width: 377
Flags: W
LayerCount: 2
Fore
SplineSet
52 371 m 1,0,-1
 325 371 l 1,1,-1
 325 245 l 1,2,-1
 52 245 l 1,3,-1
 52 371 l 1,0,-1
EndSplineSet
EndChar

StartChar: period
Encoding: 46 46 18
Width: 255
Flags: W
LayerCount: 2
Fore
SplineSet
195.5 154 m 128,-1,1
 222 128 222 128 222 87 c 0,2,3
 222 45 222 45 195.5 18.5 c 128,-1,4
 169 -8 169 -8 127 -8 c 0,5,6
 86 -8 86 -8 59.5 18.5 c 128,-1,7
 33 45 33 45 33 87 c 0,8,9
 33 128 33 128 59.5 154 c 128,-1,10
 86 180 86 180 127 180 c 0,11,0
 169 180 169 180 195.5 154 c 128,-1,1
EndSplineSet
Substitution2: "<3,3> Small Caps in Latin lookup 11 subtable" period.sc
EndChar

StartChar: slash
Encoding: 47 47 19
Width: 364
Flags: W
LayerCount: 2
Fore
SplineSet
283 808 m 1,0,-1
 452 808 l 1,1,-1
 125 -107 l 1,2,-1
 -44 -107 l 1,3,-1
 283 808 l 1,0,-1
EndSplineSet
Substitution2: "<11,2> Diagonal Fractions lookup 3 subtable" fraction
EndChar

StartChar: zero
Encoding: 48 48 20
Width: 701
Flags: W
LayerCount: 2
Fore
SplineSet
586 615 m 128,-1,1
 668 523 668 523 668 351 c 256,2,3
 668 179 668 179 586 86 c 128,-1,4
 504 -7 504 -7 352 -7 c 0,5,6
 198 -7 198 -7 116.5 85.5 c 128,-1,7
 35 178 35 178 35 351 c 0,8,9
 35 523 35 523 116.5 615 c 128,-1,10
 198 707 198 707 352 707 c 0,11,0
 504 707 504 707 586 615 c 128,-1,1
272 509.5 m 128,-1,13
 248 463 248 463 248 351 c 256,14,15
 248 239 248 239 272 192 c 128,-1,16
 296 145 296 145 352 145 c 0,17,18
 407 145 407 145 430.5 192 c 128,-1,19
 454 239 454 239 454 351 c 256,20,21
 454 463 454 463 430.5 509.5 c 128,-1,22
 407 556 407 556 352 556 c 0,23,12
 296 556 296 556 272 509.5 c 128,-1,13
EndSplineSet
Substitution2: "<21,0> Lower Case Numbers lookup 10 subtable" zero.osf
Substitution2: "<6,0> Monospaced Numbers lookup 9 subtable" zero.tf
Substitution2: "<11,2> Diagonal Fractions lookup 4 subtable" zero.numr
Substitution2: "<10,1> Superiors lookup 2 subtable" uni2070
Substitution2: "<10,2> Inferiors lookup 1 subtable" uni2080
EndChar

StartChar: one
Encoding: 49 49 21
Width: 415
Flags: W
LayerCount: 2
Fore
SplineSet
-22 701 m 1,0,-1
 314 701 l 1,1,-1
 314 0 l 1,2,-1
 106 0 l 1,3,-1
 106 535 l 1,4,-1
 -22 535 l 1,5,-1
 -22 701 l 1,0,-1
EndSplineSet
Substitution2: "<21,0> Lower Case Numbers lookup 10 subtable" one.osf
Substitution2: "<6,0> Monospaced Numbers lookup 9 subtable" one.tf
Substitution2: "<11,2> Diagonal Fractions lookup 4 subtable" one.numr
Substitution2: "<10,1> Superiors lookup 2 subtable" uni00B9
Substitution2: "<10,2> Inferiors lookup 1 subtable" uni2081
EndChar

StartChar: two
Encoding: 50 50 22
Width: 613
Flags: W
LayerCount: 2
Fore
SplineSet
580 162 m 1,0,-1
 580 0 l 1,1,-1
 38 0 l 1,2,-1
 37 133 l 1,3,-1
 287 391 l 2,4,5
 314 418 314 418 330.5 445.5 c 128,-1,6
 347 473 347 473 347 493 c 0,7,8
 347 517 347 517 330.5 529.5 c 128,-1,9
 314 542 314 542 284 542 c 0,10,11
 243 542 243 542 192.5 518.5 c 128,-1,12
 142 495 142 495 91 453 c 1,13,-1
 13 603 l 1,14,15
 169 710 169 710 315 710 c 0,16,17
 387 710 387 710 443.5 686.5 c 128,-1,18
 500 663 500 663 532.5 621 c 128,-1,19
 565 579 565 579 565 524 c 256,20,21
 565 469 565 469 529.5 411.5 c 128,-1,22
 494 354 494 354 428 288 c 2,23,-1
 302 162 l 1,24,-1
 580 162 l 1,0,-1
EndSplineSet
Substitution2: "<21,0> Lower Case Numbers lookup 10 subtable" two.osf
Substitution2: "<6,0> Monospaced Numbers lookup 9 subtable" two.tf
Substitution2: "<11,2> Diagonal Fractions lookup 4 subtable" two.numr
Substitution2: "<10,1> Superiors lookup 2 subtable" uni00B2
Substitution2: "<10,2> Inferiors lookup 1 subtable" uni2082
EndChar

StartChar: three
Encoding: 51 51 23
Width: 609
Flags: W
LayerCount: 2
Fore
SplineSet
533.5 350.5 m 128,-1,1
 582 300 582 300 582 222 c 0,2,3
 582 154 582 154 546.5 101.5 c 128,-1,4
 511 49 511 49 445.5 20 c 128,-1,5
 380 -9 380 -9 293 -9 c 0,6,7
 215 -9 215 -9 138 15.5 c 128,-1,8
 61 40 61 40 9 80 c 1,9,-1
 84 222 l 1,10,11
 129 185 129 185 178 165.5 c 128,-1,12
 227 146 227 146 277 146 c 0,13,14
 326 146 326 146 352 165 c 128,-1,15
 378 184 378 184 378 221 c 0,16,17
 378 257 378 257 352 276.5 c 128,-1,18
 326 296 326 296 276 296 c 2,19,-1
 151 296 l 1,20,-1
 151 405 l 1,21,-1
 301 549 l 1,22,-1
 46 549 l 1,23,-1
 46 702 l 1,24,-1
 548 702 l 1,25,-1
 548 583 l 1,26,-1
 370 423 l 1,27,-1
 405 416 l 2,28,0
 485 401 485 401 533.5 350.5 c 128,-1,1
EndSplineSet
Substitution2: "<21,0> Lower Case Numbers lookup 10 subtable" three.osf
Substitution2: "<6,0> Monospaced Numbers lookup 9 subtable" three.tf
Substitution2: "<11,2> Diagonal Fractions lookup 4 subtable" three.numr
Substitution2: "<10,1> Superiors lookup 2 subtable" uni00B3
Substitution2: "<10,2> Inferiors lookup 1 subtable" uni2083
EndChar

StartChar: four
Encoding: 52 52 24
Width: 611
Flags: W
LayerCount: 2
Fore
SplineSet
577 295 m 1,0,-1
 577 143 l 1,1,-1
 492 143 l 1,2,-1
 492 0 l 1,3,-1
 302 0 l 1,4,-1
 302 143 l 1,5,-1
 -6 143 l 1,6,-1
 -6 280 l 1,7,-1
 179 701 l 1,8,-1
 375 701 l 1,9,-1
 203 295 l 1,10,-1
 302 295 l 1,11,-1
 302 437 l 1,12,-1
 492 437 l 1,13,-1
 492 295 l 1,14,-1
 577 295 l 1,0,-1
EndSplineSet
Substitution2: "<21,0> Lower Case Numbers lookup 10 subtable" four.osf
Substitution2: "<6,0> Monospaced Numbers lookup 9 subtable" four.tf
Substitution2: "<11,2> Diagonal Fractions lookup 4 subtable" four.numr
Substitution2: "<10,1> Superiors lookup 2 subtable" uni2074
Substitution2: "<10,2> Inferiors lookup 1 subtable" uni2084
EndChar

StartChar: five
Encoding: 53 53 25
Width: 628
Flags: W
LayerCount: 2
Fore
SplineSet
466.5 421.5 m 128,-1,1
 529 395 529 395 563 347 c 128,-1,2
 597 299 597 299 597 236 c 0,3,4
 597 163 597 163 561 107.5 c 128,-1,5
 525 52 525 52 459 21.5 c 128,-1,6
 393 -9 393 -9 305 -9 c 0,7,8
 233 -9 233 -9 156 15.5 c 128,-1,9
 79 40 79 40 21 81 c 1,10,-1
 97 225 l 1,11,12
 141 188 141 188 188 167 c 128,-1,13
 235 146 235 146 282 146 c 0,14,15
 326 146 326 146 349.5 165.5 c 128,-1,16
 373 185 373 185 373 221 c 0,17,18
 373 293 373 293 279 293 c 0,19,20
 168 293 168 293 84 291 c 1,21,-1
 84 701 l 1,22,-1
 565 701 l 1,23,-1
 565 539 l 1,24,-1
 274 539 l 1,25,-1
 274 448 l 1,26,-1
 321 448 l 2,27,0
 404 448 404 448 466.5 421.5 c 128,-1,1
EndSplineSet
Substitution2: "<21,0> Lower Case Numbers lookup 10 subtable" five.osf
Substitution2: "<6,0> Monospaced Numbers lookup 9 subtable" five.tf
Substitution2: "<11,2> Diagonal Fractions lookup 4 subtable" five.numr
Substitution2: "<10,1> Superiors lookup 2 subtable" uni2075
Substitution2: "<10,2> Inferiors lookup 1 subtable" uni2085
EndChar

StartChar: six
Encoding: 54 54 26
Width: 628
Flags: W
LayerCount: 2
Fore
SplineSet
351 557 m 0,1,2
 278 557 278 557 240.5 515.5 c 128,-1,3
 203 474 203 474 204 397 c 1,4,5
 228 429 228 429 266.5 446.5 c 128,-1,6
 305 464 305 464 357 464 c 0,7,8
 424 464 424 464 474 435.5 c 128,-1,9
 524 407 524 407 551.5 355 c 128,-1,10
 579 303 579 303 579 235 c 0,11,12
 579 161 579 161 546.5 106 c 128,-1,13
 514 51 514 51 454.5 21 c 128,-1,14
 395 -9 395 -9 317 -9 c 0,15,16
 223 -9 223 -9 155 33.5 c 128,-1,17
 87 76 87 76 50.5 155 c 128,-1,18
 14 234 14 234 14 341 c 0,19,20
 14 452 14 452 54 535.5 c 128,-1,21
 94 619 94 619 167.5 664.5 c 128,-1,22
 241 710 241 710 339 710 c 0,23,24
 400 710 400 710 462 694 c 128,-1,25
 524 678 524 678 568 650 c 1,26,-1
 492 511 l 1,27,0
 432 557 432 557 351 557 c 0,1,2
246.5 296 m 128,-1,29
 224 273 224 273 224 234 c 0,30,31
 224 196 224 196 245.5 173 c 128,-1,32
 267 150 267 150 309 150 c 0,33,34
 350 150 350 150 372 172 c 128,-1,35
 394 194 394 194 394 236 c 0,36,37
 394 275 394 275 372.5 297 c 128,-1,38
 351 319 351 319 311 319 c 0,39,28
 269 319 269 319 246.5 296 c 128,-1,29
EndSplineSet
Substitution2: "<21,0> Lower Case Numbers lookup 10 subtable" six.osf
Substitution2: "<6,0> Monospaced Numbers lookup 9 subtable" six.tf
Substitution2: "<11,2> Diagonal Fractions lookup 4 subtable" six.numr
Substitution2: "<10,1> Superiors lookup 2 subtable" uni2076
Substitution2: "<10,2> Inferiors lookup 1 subtable" uni2086
EndChar

StartChar: seven
Encoding: 55 55 27
Width: 596
Flags: W
LayerCount: 2
Fore
SplineSet
14 701 m 1,0,-1
 584 701 l 1,1,-1
 584 561 l 1,2,-1
 331 0 l 1,3,-1
 112 0 l 1,4,-1
 354 539 l 1,5,-1
 198 539 l 1,6,-1
 198 441 l 1,7,-1
 14 441 l 1,8,-1
 14 701 l 1,0,-1
EndSplineSet
Substitution2: "<21,0> Lower Case Numbers lookup 10 subtable" seven.osf
Substitution2: "<6,0> Monospaced Numbers lookup 9 subtable" seven.tf
Substitution2: "<11,2> Diagonal Fractions lookup 4 subtable" seven.numr
Substitution2: "<10,1> Superiors lookup 2 subtable" uni2077
Substitution2: "<10,2> Inferiors lookup 1 subtable" uni2087
EndChar

StartChar: eight
Encoding: 56 56 28
Width: 630
Flags: W
LayerCount: 2
Fore
SplineSet
429.5 686 m 128,-1,1
 487 662 487 662 518 618.5 c 128,-1,2
 549 575 549 575 549 517 c 0,3,4
 549 475 549 475 528 436.5 c 128,-1,5
 507 398 507 398 472 375 c 1,6,7
 524 349 524 349 554.5 301.5 c 128,-1,8
 585 254 585 254 585 198 c 0,9,10
 585 136 585 136 549.5 89 c 128,-1,11
 514 42 514 42 449 16.5 c 128,-1,12
 384 -9 384 -9 297 -9 c 0,13,14
 211 -9 211 -9 145.5 16 c 128,-1,15
 80 41 80 41 44.5 87 c 128,-1,16
 9 133 9 133 9 194 c 0,17,18
 9 251 9 251 42.5 300 c 128,-1,19
 76 349 76 349 132 375 c 1,20,21
 93 401 93 401 69.5 441 c 128,-1,22
 46 481 46 481 46 523 c 0,23,24
 46 579 46 579 77 621.5 c 128,-1,25
 108 664 108 664 164.5 687 c 128,-1,26
 221 710 221 710 296 710 c 0,27,0
 372 710 372 710 429.5 686 c 128,-1,1
238.5 556.5 m 128,-1,29
 218 539 218 539 218 506 c 0,30,31
 218 475 218 475 238.5 458 c 128,-1,32
 259 441 259 441 297 441 c 256,33,34
 335 441 335 441 355.5 458 c 128,-1,35
 376 475 376 475 376 506 c 0,36,37
 376 539 376 539 355.5 556.5 c 128,-1,38
 335 574 335 574 297 574 c 256,39,28
 259 574 259 574 238.5 556.5 c 128,-1,29
228 273 m 128,-1,41
 204 253 204 253 204 215 c 0,42,43
 204 179 204 179 228 159.5 c 128,-1,44
 252 140 252 140 297 140 c 0,45,46
 343 140 343 140 367 159.5 c 128,-1,47
 391 179 391 179 391 215 c 0,48,49
 391 253 391 253 367 273 c 128,-1,50
 343 293 343 293 297 293 c 0,51,40
 252 293 252 293 228 273 c 128,-1,41
EndSplineSet
Substitution2: "<21,0> Lower Case Numbers lookup 10 subtable" eight.osf
Substitution2: "<6,0> Monospaced Numbers lookup 9 subtable" eight.tf
Substitution2: "<11,2> Diagonal Fractions lookup 4 subtable" eight.numr
Substitution2: "<10,1> Superiors lookup 2 subtable" uni2078
Substitution2: "<10,2> Inferiors lookup 1 subtable" uni2088
EndChar

StartChar: nine
Encoding: 57 57 29
Width: 627
Flags: W
LayerCount: 2
Fore
SplineSet
241 145 m 0,1,2
 315 145 315 145 352.5 186 c 128,-1,3
 390 227 390 227 389 304 c 1,4,5
 335 237 335 237 236 237 c 0,6,7
 170 237 170 237 120 265.5 c 128,-1,8
 70 294 70 294 42.5 346.5 c 128,-1,9
 15 399 15 399 15 467 c 0,10,11
 15 541 15 541 47.5 596 c 128,-1,12
 80 651 80 651 139.5 680.5 c 128,-1,13
 199 710 199 710 277 710 c 0,14,15
 370 710 370 710 438 667.5 c 128,-1,16
 506 625 506 625 542.5 546.5 c 128,-1,17
 579 468 579 468 579 361 c 0,18,19
 579 250 579 250 539 166 c 128,-1,20
 499 82 499 82 425 36.5 c 128,-1,21
 351 -9 351 -9 253 -9 c 0,22,23
 193 -9 193 -9 131.5 7 c 128,-1,24
 70 23 70 23 26 51 c 1,25,-1
 102 190 l 1,26,0
 159 145 159 145 241 145 c 0,1,2
221.5 529 m 128,-1,28
 200 507 200 507 200 466 c 0,29,30
 200 426 200 426 221 404.5 c 128,-1,31
 242 383 242 383 282 383 c 0,32,33
 324 383 324 383 346.5 406 c 128,-1,34
 369 429 369 429 369 468 c 0,35,36
 369 506 369 506 347.5 528.5 c 128,-1,37
 326 551 326 551 283 551 c 0,38,27
 243 551 243 551 221.5 529 c 128,-1,28
EndSplineSet
Substitution2: "<21,0> Lower Case Numbers lookup 10 subtable" nine.osf
Substitution2: "<6,0> Monospaced Numbers lookup 9 subtable" nine.tf
Substitution2: "<11,2> Diagonal Fractions lookup 4 subtable" nine.numr
Substitution2: "<10,1> Superiors lookup 2 subtable" uni2079
Substitution2: "<10,2> Inferiors lookup 1 subtable" uni2089
EndChar

StartChar: less
Encoding: 60 60 32
Width: 515
Flags: W
LayerCount: 2
Fore
SplineSet
484 589 m 1,0,-1
 484 448 l 1,1,-1
 161 324 l 1,2,-1
 484 199 l 1,3,-1
 484 58 l 1,4,-1
 31 243 l 1,5,-1
 31 404 l 1,6,-1
 484 589 l 1,0,-1
EndSplineSet
Substitution2: "'rtla' Right to Left Alternates in Latin lookup 0 subtable" greater
EndChar

StartChar: equal
Encoding: 61 61 33
Width: 515
Flags: W
LayerCount: 2
Fore
SplineSet
31 500 m 1,0,-1
 484 500 l 1,1,-1
 484 374 l 1,2,-1
 31 374 l 1,3,-1
 31 500 l 1,0,-1
31 282 m 1,4,-1
 484 282 l 1,5,-1
 484 156 l 1,6,-1
 31 156 l 1,7,-1
 31 282 l 1,4,-1
EndSplineSet
EndChar

StartChar: greater
Encoding: 62 62 34
Width: 515
Flags: W
LayerCount: 2
Fore
SplineSet
31 67 m 1,0,-1
 31 208 l 1,1,-1
 354 332 l 1,2,-1
 31 457 l 1,3,-1
 31 598 l 1,4,-1
 484 413 l 1,5,-1
 484 252 l 1,6,-1
 31 67 l 1,0,-1
EndSplineSet
Substitution2: "'rtla' Right to Left Alternates in Latin lookup 0 subtable" less
EndChar

StartChar: question
Encoding: 63 63 35
Width: 486
Flags: W
LayerCount: 2
Fore
SplineSet
85 643 m 128,-1,1
 148 707 148 707 260 707 c 0,2,3
 366 707 366 707 425 660.5 c 128,-1,4
 484 614 484 614 484 529 c 0,5,6
 484 476 484 476 460 441.5 c 128,-1,7
 436 407 436 407 390 366 c 0,8,9
 351 331 351 331 332 305.5 c 128,-1,10
 313 280 313 280 313 245 c 1,11,-1
 163 245 l 1,12,13
 163 303 163 303 184 337.5 c 128,-1,14
 205 372 205 372 243 408 c 0,15,16
 270 434 270 434 282.5 452.5 c 128,-1,17
 295 471 295 471 295 496 c 0,18,19
 295 523 295 523 282 535.5 c 128,-1,20
 269 548 269 548 241 548 c 0,21,22
 209 548 209 548 193 527.5 c 128,-1,23
 177 507 177 507 176 464 c 1,24,-1
 21 464 l 1,25,0
 22 579 22 579 85 643 c 128,-1,1
302.5 154 m 128,-1,27
 329 128 329 128 329 87 c 0,28,29
 329 45 329 45 302.5 18.5 c 128,-1,30
 276 -8 276 -8 234 -8 c 0,31,32
 193 -8 193 -8 166.5 18.5 c 128,-1,33
 140 45 140 45 140 87 c 0,34,35
 140 128 140 128 166.5 154 c 128,-1,36
 193 180 193 180 234 180 c 0,37,26
 276 180 276 180 302.5 154 c 128,-1,27
EndSplineSet
Substitution2: "<3,3> Small Caps in Latin lookup 11 subtable" question.sc
EndChar

StartChar: at
Encoding: 64 64 36
Width: 888
Flags: W
LayerCount: 2
Fore
SplineSet
690 116 m 0,1,2
 709 116 709 116 726.5 136 c 128,-1,3
 744 156 744 156 755 192 c 128,-1,4
 766 228 766 228 766 272 c 0,5,6
 766 366 766 366 728.5 441.5 c 128,-1,7
 691 517 691 517 619.5 560.5 c 128,-1,8
 548 604 548 604 450 604 c 0,9,10
 361 604 361 604 285.5 558.5 c 128,-1,11
 210 513 210 513 166 436 c 128,-1,12
 122 359 122 359 122 268 c 0,13,14
 122 178 122 178 163.5 105 c 128,-1,15
 205 32 205 32 277.5 -9.5 c 128,-1,16
 350 -51 350 -51 438 -51 c 0,17,18
 484 -51 484 -51 534 -35.5 c 128,-1,19
 584 -20 584 -20 624 11 c 1,20,-1
 673 -72 l 1,21,22
 630 -106 630 -106 564 -126.5 c 128,-1,23
 498 -147 498 -147 438 -147 c 0,24,25
 321 -147 321 -147 225 -93 c 128,-1,26
 129 -39 129 -39 74 56 c 128,-1,27
 19 151 19 151 19 268 c 0,28,29
 19 387 19 387 76.5 486 c 128,-1,30
 134 585 134 585 233 642 c 128,-1,31
 332 699 332 699 450 699 c 256,32,33
 568 699 568 699 663.5 644 c 128,-1,34
 759 589 759 589 814 492 c 128,-1,35
 869 395 869 395 869 275 c 0,36,37
 869 202 869 202 844.5 147 c 128,-1,38
 820 92 820 92 776 61.5 c 128,-1,39
 732 31 732 31 677 31 c 0,40,41
 581 31 581 31 559 106 c 1,42,-1
 557 116 l 1,43,44
 531 77 531 77 494.5 59 c 128,-1,45
 458 41 458 41 417 41 c 0,46,47
 362 41 362 41 313.5 70 c 128,-1,48
 265 99 265 99 235 151.5 c 128,-1,49
 205 204 205 204 205 271 c 0,50,51
 205 334 205 334 229.5 387.5 c 128,-1,52
 254 441 254 441 299 472.5 c 128,-1,53
 344 504 344 504 403 504 c 0,54,55
 437 504 437 504 464 492 c 128,-1,56
 491 480 491 480 508 465.5 c 128,-1,57
 525 451 525 451 527 446 c 1,58,-1
 527 492 l 1,59,-1
 656 492 l 1,60,-1
 656 162 l 2,61,0
 656 116 656 116 690 116 c 0,1,2
369.5 353.5 m 128,-1,63
 347 322 347 322 347 276 c 0,64,65
 347 227 347 227 370 192 c 128,-1,66
 393 157 393 157 431 157 c 0,67,68
 471 157 471 157 494.5 191 c 128,-1,69
 518 225 518 225 518 275 c 0,70,71
 518 322 518 322 494 353.5 c 128,-1,72
 470 385 470 385 429 385 c 0,73,62
 392 385 392 385 369.5 353.5 c 128,-1,63
EndSplineSet
EndChar

StartChar: A
Encoding: 65 65 37
Width: 786
Flags: W
LayerCount: 2
Fore
SplineSet
572 0 m 1,0,-1
 531 112 l 1,1,-1
 248 112 l 1,2,-1
 206 0 l 1,3,-1
 -8 0 l 1,4,-1
 291 701 l 1,5,-1
 505 701 l 1,6,-1
 794 0 l 1,7,-1
 572 0 l 1,0,-1
306 264 m 1,8,-1
 476 264 l 1,9,-1
 392 493 l 1,10,-1
 306 264 l 1,8,-1
EndSplineSet
Substitution2: "<11,2> Diagonal Fractions lookup 7 nested-substitutions 0 subtable" ordfeminine
Substitution2: "<11,2> Diagonal Fractions lookup 5 nested-substitutions 0 subtable" ordfeminine
EndChar

StartChar: B
Encoding: 66 66 38
Width: 720
Flags: W
LayerCount: 2
Fore
SplineSet
545 679.5 m 128,-1,1
 606 658 606 658 639 618 c 128,-1,2
 672 578 672 578 672 524 c 0,3,4
 672 471 672 471 640 430 c 128,-1,5
 608 389 608 389 553 373 c 1,6,7
 617 360 617 360 655.5 311.5 c 128,-1,8
 694 263 694 263 694 196 c 0,9,10
 694 137 694 137 660 92.5 c 128,-1,11
 626 48 626 48 563.5 24 c 128,-1,12
 501 0 501 0 418 0 c 2,13,-1
 59 0 l 1,14,-1
 59 701 l 1,15,-1
 403 701 l 2,16,0
 484 701 484 701 545 679.5 c 128,-1,1
441 442.5 m 128,-1,18
 459 459 459 459 459 487 c 0,19,20
 459 514 459 514 441 529.5 c 128,-1,21
 423 545 423 545 392 545 c 2,22,-1
 266 545 l 1,23,-1
 266 426 l 1,24,-1
 392 426 l 2,25,17
 423 426 423 426 441 442.5 c 128,-1,18
455.5 173 m 128,-1,27
 479 191 479 191 479 222 c 0,28,29
 479 251 479 251 455.5 267.5 c 128,-1,30
 432 284 432 284 392 283 c 2,31,-1
 266 283 l 1,32,-1
 266 156 l 1,33,-1
 392 156 l 2,34,26
 432 155 432 155 455.5 173 c 128,-1,27
EndSplineSet
EndChar

StartChar: C
Encoding: 67 67 39
Width: 690
Flags: W
LayerCount: 2
Fore
SplineSet
487.5 515.5 m 128,-1,1
 442 541 442 541 399 541 c 0,2,3
 352 541 352 541 314 517 c 128,-1,4
 276 493 276 493 254 450.5 c 128,-1,5
 232 408 232 408 232 355 c 256,6,7
 232 302 232 302 254 259.5 c 128,-1,8
 276 217 276 217 314 192.5 c 128,-1,9
 352 168 352 168 399 168 c 0,10,11
 439 168 439 168 484.5 190 c 128,-1,12
 530 212 530 212 566 250 c 1,13,-1
 686 122 l 1,14,15
 629 60 629 60 548.5 23 c 128,-1,16
 468 -14 468 -14 389 -14 c 0,17,18
 284 -14 284 -14 199.5 33.5 c 128,-1,19
 115 81 115 81 67 165 c 128,-1,20
 19 249 19 249 19 353 c 0,21,22
 19 455 19 455 68 537.5 c 128,-1,23
 117 620 117 620 203 667 c 128,-1,24
 289 714 289 714 396 714 c 0,25,26
 475 714 475 714 554 680 c 128,-1,27
 633 646 633 646 686 589 c 1,28,-1
 566 446 l 1,29,0
 533 490 533 490 487.5 515.5 c 128,-1,1
EndSplineSet
EndChar

StartChar: D
Encoding: 68 68 40
Width: 762
Flags: W
LayerCount: 2
Fore
SplineSet
563.5 657.5 m 128,-1,1
 649 614 649 614 696 534.5 c 128,-1,2
 743 455 743 455 743 351 c 256,3,4
 743 247 743 247 695 167 c 128,-1,5
 647 87 647 87 560 43.5 c 128,-1,6
 473 0 473 0 359 0 c 2,7,-1
 59 0 l 1,8,-1
 59 701 l 1,9,-1
 366 701 l 2,10,0
 478 701 478 701 563.5 657.5 c 128,-1,1
487 214 m 128,-1,12
 531 265 531 265 531 349 c 256,13,14
 531 433 531 433 484 485 c 128,-1,15
 437 537 437 537 362 537 c 2,16,-1
 267 537 l 1,17,-1
 267 163 l 1,18,-1
 372 163 l 2,19,11
 443 163 443 163 487 214 c 128,-1,12
EndSplineSet
EndChar

StartChar: E
Encoding: 69 69 41
Width: 683
Flags: W
LayerCount: 2
Fore
SplineSet
59 701 m 1,0,-1
 632 701 l 1,1,-1
 632 541 l 1,2,-1
 267 541 l 1,3,-1
 267 431 l 1,4,-1
 598 431 l 1,5,-1
 598 271 l 1,6,-1
 267 271 l 1,7,-1
 267 160 l 1,8,-1
 642 160 l 1,9,-1
 642 0 l 1,10,-1
 59 0 l 1,11,-1
 59 701 l 1,0,-1
EndSplineSet
EndChar

StartChar: F
Encoding: 70 70 42
Width: 619
Flags: W
LayerCount: 2
Fore
SplineSet
59 701 m 1,0,-1
 603 701 l 1,1,-1
 603 541 l 1,2,-1
 267 541 l 1,3,-1
 267 401 l 1,4,-1
 579 401 l 1,5,-1
 579 241 l 1,6,-1
 267 241 l 1,7,-1
 267 0 l 1,8,-1
 59 0 l 1,9,-1
 59 701 l 1,0,-1
EndSplineSet
EndChar

StartChar: G
Encoding: 71 71 43
Width: 740
Flags: W
LayerCount: 2
Fore
SplineSet
409 420 m 1,0,-1
 706 420 l 1,1,-1
 706 78 l 1,2,3
 649 38 649 38 560 12 c 128,-1,4
 471 -14 471 -14 396 -14 c 0,5,6
 289 -14 289 -14 203 33.5 c 128,-1,7
 117 81 117 81 68 164 c 128,-1,8
 19 247 19 247 19 351 c 0,9,10
 19 454 19 454 69.5 537 c 128,-1,11
 120 620 120 620 209.5 667 c 128,-1,12
 299 714 299 714 410 714 c 0,13,14
 490 714 490 714 565 685 c 128,-1,15
 640 656 640 656 696 606 c 1,16,-1
 578 464 l 1,17,18
 542 499 542 499 498.5 520 c 128,-1,19
 455 541 455 541 409 541 c 0,20,21
 359 541 359 541 318.5 516 c 128,-1,22
 278 491 278 491 255 447.5 c 128,-1,23
 232 404 232 404 232 351 c 0,24,25
 232 297 232 297 255.5 253 c 128,-1,26
 279 209 279 209 320 184 c 128,-1,27
 361 159 361 159 411 159 c 0,28,29
 456 159 456 159 517 188 c 1,30,-1
 517 232 l 1,31,-1
 409 232 l 1,32,-1
 409 420 l 1,0,-1
EndSplineSet
EndChar

StartChar: H
Encoding: 72 72 44
Width: 783
Flags: W
LayerCount: 2
Fore
SplineSet
59 701 m 1,0,-1
 267 701 l 1,1,-1
 267 422 l 1,2,-1
 516 422 l 1,3,-1
 516 701 l 1,4,-1
 724 701 l 1,5,-1
 724 0 l 1,6,-1
 516 0 l 1,7,-1
 516 261 l 1,8,-1
 267 261 l 1,9,-1
 267 0 l 1,10,-1
 59 0 l 1,11,-1
 59 701 l 1,0,-1
EndSplineSet
EndChar

StartChar: I
Encoding: 73 73 45
Width: 326
Flags: W
LayerCount: 2
Fore
SplineSet
59 701 m 1,0,-1
 267 701 l 1,1,-1
 267 0 l 1,2,-1
 59 0 l 1,3,-1
 59 701 l 1,0,-1
EndSplineSet
EndChar

StartChar: J
Encoding: 74 74 46
Width: 554
Flags: W
LayerCount: 2
Fore
SplineSet
438.5 54.5 m 128,-1,1
 370 -9 370 -9 252 -9 c 0,2,3
 99 -9 99 -9 -7 108 c 1,4,-1
 88 245 l 1,5,6
 126 206 126 206 165.5 186 c 128,-1,7
 205 166 205 166 235 166 c 0,8,9
 264 166 264 166 280.5 184 c 128,-1,10
 297 202 297 202 297 237 c 2,11,-1
 297 535 l 1,12,-1
 59 535 l 1,13,-1
 59 701 l 1,14,-1
 507 701 l 1,15,-1
 507 232 l 2,16,0
 507 118 507 118 438.5 54.5 c 128,-1,1
EndSplineSet
EndChar

StartChar: K
Encoding: 75 75 47
Width: 761
Flags: W
LayerCount: 2
Fore
SplineSet
758 0 m 1,0,-1
 509 0 l 1,1,-1
 345 258 l 1,2,-1
 267 172 l 1,3,-1
 267 0 l 1,4,-1
 59 0 l 1,5,-1
 59 701 l 1,6,-1
 267 701 l 1,7,-1
 267 420 l 1,8,-1
 502 701 l 1,9,-1
 742 701 l 1,10,-1
 487 417 l 1,11,-1
 758 0 l 1,0,-1
EndSplineSet
EndChar

StartChar: L
Encoding: 76 76 48
Width: 574
Flags: W
LayerCount: 2
Fore
SplineSet
59 701 m 1,0,-1
 267 701 l 1,1,-1
 267 174 l 1,2,-1
 561 174 l 1,3,-1
 561 0 l 1,4,-1
 59 0 l 1,5,-1
 59 701 l 1,0,-1
EndSplineSet
EndChar

StartChar: M
Encoding: 77 77 49
Width: 939
Flags: W
LayerCount: 2
Fore
SplineSet
59 701 m 1,0,-1
 282 701 l 1,1,-1
 470 312 l 1,2,-1
 657 701 l 1,3,-1
 880 701 l 1,4,-1
 880 0 l 1,5,-1
 697 0 l 1,6,-1
 697 416 l 1,7,-1
 537 69 l 1,8,-1
 402 69 l 1,9,-1
 242 416 l 1,10,-1
 242 0 l 1,11,-1
 59 0 l 1,12,-1
 59 701 l 1,0,-1
EndSplineSet
EndChar

StartChar: N
Encoding: 78 78 50
Width: 783
Flags: W
LayerCount: 2
Fore
SplineSet
534 701 m 1,0,-1
 724 701 l 1,1,-1
 724 0 l 1,2,-1
 547 0 l 1,3,-1
 250 390 l 1,4,-1
 250 0 l 1,5,-1
 59 0 l 1,6,-1
 59 701 l 1,7,-1
 237 701 l 1,8,-1
 534 310 l 1,9,-1
 534 701 l 1,0,-1
EndSplineSet
EndChar

StartChar: O
Encoding: 79 79 51
Width: 802
Flags: W
LayerCount: 2
Fore
SplineSet
596.5 667 m 128,-1,1
 684 620 684 620 733.5 537.5 c 128,-1,2
 783 455 783 455 783 352 c 0,3,4
 783 248 783 248 733.5 164.5 c 128,-1,5
 684 81 684 81 596.5 33.5 c 128,-1,6
 509 -14 509 -14 401 -14 c 0,7,8
 292 -14 292 -14 205 33.5 c 128,-1,9
 118 81 118 81 68.5 164.5 c 128,-1,10
 19 248 19 248 19 352 c 0,11,12
 19 455 19 455 68.5 537.5 c 128,-1,13
 118 620 118 620 205 667 c 128,-1,14
 292 714 292 714 401 714 c 0,15,0
 509 714 509 714 596.5 667 c 128,-1,1
318.5 516 m 128,-1,17
 279 491 279 491 255.5 447.5 c 128,-1,18
 232 404 232 404 232 351 c 256,19,20
 232 298 232 298 255.5 254 c 128,-1,21
 279 210 279 210 318.5 184.5 c 128,-1,22
 358 159 358 159 404 159 c 0,23,24
 449 159 449 159 487.5 184.5 c 128,-1,25
 526 210 526 210 548 253.5 c 128,-1,26
 570 297 570 297 570 351 c 0,27,28
 570 404 570 404 548 447.5 c 128,-1,29
 526 491 526 491 488 516 c 128,-1,30
 450 541 450 541 404 541 c 256,31,16
 358 541 358 541 318.5 516 c 128,-1,17
EndSplineSet
Substitution2: "<11,2> Diagonal Fractions lookup 7 nested-substitutions 0 subtable" ordmasculine
Substitution2: "<11,2> Diagonal Fractions lookup 5 nested-substitutions 0 subtable" ordmasculine
EndChar

StartChar: P
Encoding: 80 80 52
Width: 683
Flags: W
LayerCount: 2
Fore
SplineSet
587.5 636 m 128,-1,1
 662 571 662 571 662 452 c 0,2,3
 662 327 662 327 587.5 258 c 128,-1,4
 513 189 513 189 377 189 c 2,5,-1
 267 188 l 1,6,-1
 267 0 l 1,7,-1
 59 0 l 1,8,-1
 59 701 l 1,9,-1
 377 701 l 2,10,0
 513 701 513 701 587.5 636 c 128,-1,1
439.5 374 m 128,-1,12
 465 399 465 399 465 446 c 0,13,14
 465 492 465 492 439.5 516.5 c 128,-1,15
 414 541 414 541 367 541 c 2,16,-1
 267 541 l 1,17,-1
 267 349 l 1,18,-1
 367 349 l 2,19,11
 414 349 414 349 439.5 374 c 128,-1,12
EndSplineSet
EndChar

StartChar: Q
Encoding: 81 81 53
Width: 805
Flags: W
LayerCount: 2
Fore
SplineSet
815 -94 m 1,0,1
 774 -129 774 -129 717 -150.5 c 128,-1,2
 660 -172 660 -172 606 -172 c 0,3,4
 532 -172 532 -172 472.5 -129.5 c 128,-1,5
 413 -87 413 -87 381 -14 c 1,6,7
 277 -9 277 -9 194.5 39.5 c 128,-1,8
 112 88 112 88 65.5 169.5 c 128,-1,9
 19 251 19 251 19 352 c 0,10,11
 19 455 19 455 68.5 537.5 c 128,-1,12
 118 620 118 620 205 667 c 128,-1,13
 292 714 292 714 401 714 c 0,14,15
 509 714 509 714 596.5 667 c 128,-1,16
 684 620 684 620 733.5 537.5 c 128,-1,17
 783 455 783 455 783 352 c 0,18,19
 783 238 783 238 723 148.5 c 128,-1,20
 663 59 663 59 562 17 c 1,21,22
 591 -19 591 -19 629 -19 c 0,23,24
 651 -19 651 -19 682 -5.5 c 128,-1,25
 713 8 713 8 745 31 c 1,26,-1
 815 -94 l 1,0,1
255.5 254 m 128,-1,28
 279 210 279 210 318.5 184.5 c 128,-1,29
 358 159 358 159 404 159 c 0,30,31
 449 159 449 159 487.5 184.5 c 128,-1,32
 526 210 526 210 548 253.5 c 128,-1,33
 570 297 570 297 570 351 c 0,34,35
 570 404 570 404 548 447.5 c 128,-1,36
 526 491 526 491 488 516 c 128,-1,37
 450 541 450 541 404 541 c 256,38,39
 358 541 358 541 318.5 516 c 128,-1,40
 279 491 279 491 255.5 447.5 c 128,-1,41
 232 404 232 404 232 351 c 256,42,27
 232 298 232 298 255.5 254 c 128,-1,28
EndSplineSet
EndChar

StartChar: R
Encoding: 82 82 54
Width: 725
Flags: W
LayerCount: 2
Fore
SplineSet
470 0 m 1,0,-1
 377 189 l 1,1,-1
 267 189 l 1,2,-1
 267 0 l 1,3,-1
 59 0 l 1,4,-1
 59 701 l 1,5,-1
 386 701 l 2,6,7
 527 701 527 701 604.5 636 c 128,-1,8
 682 571 682 571 682 452 c 0,9,10
 682 375 682 375 651.5 318.5 c 128,-1,11
 621 262 621 262 564 229 c 1,12,-1
 706 0 l 1,13,-1
 470 0 l 1,0,-1
267 349 m 1,14,-1
 386 349 l 2,15,16
 433 349 433 349 458.5 374 c 128,-1,17
 484 399 484 399 484 446 c 0,18,19
 484 492 484 492 458.5 516.5 c 128,-1,20
 433 541 433 541 386 541 c 2,21,-1
 267 541 l 1,22,-1
 267 349 l 1,14,-1
EndSplineSet
EndChar

StartChar: S
Encoding: 83 83 55
Width: 655
Flags: W
LayerCount: 2
Fore
SplineSet
440 531 m 128,-1,1
 373 554 373 554 330 554 c 0,2,3
 303 554 303 554 287.5 543.5 c 128,-1,4
 272 533 272 533 272 513 c 0,5,6
 272 485 272 485 302 469.5 c 128,-1,7
 332 454 332 454 397 436 c 0,8,9
 471 415 471 415 519 393.5 c 128,-1,10
 567 372 567 372 602.5 328 c 128,-1,11
 638 284 638 284 638 212 c 0,12,13
 638 139 638 139 599.5 88.5 c 128,-1,14
 561 38 561 38 495.5 13 c 128,-1,15
 430 -12 430 -12 349 -12 c 0,16,17
 259 -12 259 -12 168.5 18.5 c 128,-1,18
 78 49 78 49 12 102 c 1,19,-1
 90 260 l 1,20,21
 143 214 143 214 219.5 182.5 c 128,-1,22
 296 151 296 151 351 151 c 0,23,24
 385 151 385 151 404 164 c 128,-1,25
 423 177 423 177 423 201 c 0,26,27
 423 230 423 230 392 245.5 c 128,-1,28
 361 261 361 261 296 278 c 0,29,30
 223 297 223 297 175 317.5 c 128,-1,31
 127 338 127 338 92 381 c 128,-1,32
 57 424 57 424 57 494 c 0,33,34
 57 562 57 562 93 612.5 c 128,-1,35
 129 663 129 663 194.5 690 c 128,-1,36
 260 717 260 717 347 717 c 0,37,38
 426 717 426 717 504 694.5 c 128,-1,39
 582 672 582 672 640 635 c 1,40,-1
 563 475 l 1,41,0
 507 508 507 508 440 531 c 128,-1,1
EndSplineSet
EndChar

StartChar: T
Encoding: 84 84 56
Width: 628
Flags: W
LayerCount: 2
Fore
SplineSet
6 701 m 1,0,-1
 622 701 l 1,1,-1
 622 535 l 1,2,-1
 418 535 l 1,3,-1
 418 0 l 1,4,-1
 209 0 l 1,5,-1
 209 535 l 1,6,-1
 6 535 l 1,7,-1
 6 701 l 1,0,-1
EndSplineSet
EndChar

StartChar: U
Encoding: 85 85 57
Width: 745
Flags: W
LayerCount: 2
Fore
SplineSet
290 195 m 128,-1,1
 324 159 324 159 375 159 c 0,2,3
 425 159 425 159 457 194.5 c 128,-1,4
 489 230 489 230 489 290 c 2,5,-1
 489 701 l 1,6,-1
 697 701 l 1,7,-1
 697 290 l 2,8,9
 697 198 697 198 657.5 129.5 c 128,-1,10
 618 61 618 61 545 23.5 c 128,-1,11
 472 -14 472 -14 375 -14 c 0,12,13
 277 -14 277 -14 203 23.5 c 128,-1,14
 129 61 129 61 88.5 129.5 c 128,-1,15
 48 198 48 198 48 290 c 2,16,-1
 48 701 l 1,17,-1
 256 701 l 1,18,-1
 256 290 l 2,19,0
 256 231 256 231 290 195 c 128,-1,1
EndSplineSet
EndChar

StartChar: V
Encoding: 86 86 58
Width: 748
Flags: W
LayerCount: 2
Fore
SplineSet
-3 701 m 1,0,-1
 219 701 l 1,1,-1
 379 216 l 1,2,-1
 539 701 l 1,3,-1
 752 701 l 1,4,-1
 481 0 l 1,5,-1
 265 0 l 1,6,-1
 -3 701 l 1,0,-1
EndSplineSet
EndChar

StartChar: W
Encoding: 87 87 59
Width: 1133
Flags: W
LayerCount: 2
Fore
SplineSet
923 701 m 1,0,-1
 1136 701 l 1,1,-1
 899 0 l 1,2,-1
 685 0 l 1,3,-1
 567 449 l 1,4,-1
 445 0 l 1,5,-1
 232 0 l 1,6,-1
 -3 701 l 1,7,-1
 219 701 l 1,8,-1
 345 214 l 1,9,-1
 470 701 l 1,10,-1
 673 701 l 1,11,-1
 799 215 l 1,12,-1
 923 701 l 1,0,-1
EndSplineSet
EndChar

StartChar: X
Encoding: 88 88 60
Width: 756
Flags: W
LayerCount: 2
Fore
SplineSet
15 701 m 1,0,-1
 257 701 l 1,1,-1
 373 518 l 1,2,-1
 490 701 l 1,3,-1
 735 701 l 1,4,-1
 506 366 l 1,5,-1
 756 0 l 1,6,-1
 506 0 l 1,7,-1
 373 200 l 1,8,-1
 242 0 l 1,9,-1
 -1 0 l 1,10,-1
 247 357 l 1,11,-1
 15 701 l 1,0,-1
EndSplineSet
EndChar

StartChar: Y
Encoding: 89 89 61
Width: 702
Flags: W
LayerCount: 2
Fore
SplineSet
709 701 m 1,0,-1
 457 222 l 1,1,-1
 457 0 l 1,2,-1
 249 0 l 1,3,-1
 249 218 l 1,4,-1
 -8 701 l 1,5,-1
 200 701 l 1,6,-1
 353 415 l 1,7,-1
 502 701 l 1,8,-1
 709 701 l 1,0,-1
EndSplineSet
EndChar

StartChar: Z
Encoding: 90 90 62
Width: 679
Flags: W
LayerCount: 2
Fore
SplineSet
36 701 m 1,0,-1
 649 701 l 1,1,-1
 649 569 l 1,2,-1
 301 162 l 1,3,-1
 656 162 l 1,4,-1
 656 0 l 1,5,-1
 24 0 l 1,6,-1
 24 131 l 1,7,-1
 372 539 l 1,8,-1
 36 539 l 1,9,-1
 36 701 l 1,0,-1
EndSplineSet
EndChar

StartChar: bracketleft
Encoding: 91 91 63
Width: 370
Flags: W
LayerCount: 2
Fore
SplineSet
60 742 m 1,0,-1
 358 742 l 1,1,-1
 358 593 l 1,2,-1
 240 593 l 1,3,-1
 240 25 l 1,4,-1
 358 25 l 1,5,-1
 358 -124 l 1,6,-1
 60 -124 l 1,7,-1
 60 742 l 1,0,-1
EndSplineSet
Substitution2: "'rtla' Right to Left Alternates in Latin lookup 0 subtable" bracketright
EndChar

StartChar: backslash
Encoding: 92 92 64
Width: 364
Flags: W
LayerCount: 2
Fore
SplineSet
81 808 m 1,0,-1
 408 -107 l 1,1,-1
 239 -107 l 1,2,-1
 -88 808 l 1,3,-1
 81 808 l 1,0,-1
EndSplineSet
EndChar

StartChar: bracketright
Encoding: 93 93 65
Width: 370
Flags: W
LayerCount: 2
Fore
SplineSet
310 742 m 1,0,-1
 310 -124 l 1,1,-1
 12 -124 l 1,2,-1
 12 25 l 1,3,-1
 130 25 l 1,4,-1
 130 593 l 1,5,-1
 12 593 l 1,6,-1
 12 742 l 1,7,-1
 310 742 l 1,0,-1
EndSplineSet
Substitution2: "'rtla' Right to Left Alternates in Latin lookup 0 subtable" bracketleft
EndChar

StartChar: asciicircum
Encoding: 94 94 66
Width: 593
Flags: W
LayerCount: 2
Fore
SplineSet
562 141 m 1,0,-1
 421 141 l 1,1,-1
 297 414 l 1,2,-1
 172 141 l 1,3,-1
 31 141 l 1,4,-1
 216 524 l 1,5,-1
 377 524 l 1,6,-1
 562 141 l 1,0,-1
EndSplineSet
EndChar

StartChar: underscore
Encoding: 95 95 67
Width: 592
Flags: W
LayerCount: 2
Fore
SplineSet
0 -95 m 1,0,-1
 592 -95 l 1,1,-1
 592 -204 l 1,2,-1
 0 -204 l 1,3,-1
 0 -95 l 1,0,-1
EndSplineSet
EndChar

StartChar: a
Encoding: 97 97 69
Width: 607
Flags: W
LayerCount: 2
Fore
SplineSet
496.5 499.5 m 128,-1,1
 561 447 561 447 561 353 c 2,2,-1
 561 0 l 1,3,-1
 363 0 l 1,4,-1
 363 60 l 1,5,6
 338 27 338 27 297.5 9 c 128,-1,7
 257 -9 257 -9 204 -9 c 0,8,9
 118 -9 118 -9 69 37.5 c 128,-1,10
 20 84 20 84 20 162 c 0,11,12
 20 241 20 241 73.5 283.5 c 128,-1,13
 127 326 127 326 230 327 c 2,14,-1
 363 327 l 1,15,-1
 363 329 l 2,16,17
 363 363 363 363 339 382 c 128,-1,18
 315 401 315 401 269 401 c 0,19,20
 236 401 236 401 192.5 391 c 128,-1,21
 149 381 149 381 105 362 c 1,22,-1
 55 496 l 1,23,24
 193 552 193 552 317 552 c 0,25,0
 432 552 432 552 496.5 499.5 c 128,-1,1
327 138 m 128,-1,27
 352 153 352 153 363 179 c 1,28,-1
 363 228 l 1,29,-1
 271 228 l 2,30,31
 210 228 210 228 210 177 c 0,32,33
 210 151 210 151 226 137 c 128,-1,34
 242 123 242 123 271 123 c 0,35,26
 302 123 302 123 327 138 c 128,-1,27
EndSplineSet
Substitution2: "<3,3> Small Caps in Latin lookup 11 subtable" a.sc
Substitution2: "<11,2> Diagonal Fractions lookup 7 nested-substitutions 0 subtable" ordfeminine
Substitution2: "<11,2> Diagonal Fractions lookup 5 nested-substitutions 0 subtable" ordfeminine
EndChar

StartChar: b
Encoding: 98 98 70
Width: 688
Flags: W
LayerCount: 2
Fore
SplineSet
549 516 m 128,-1,1
 606 481 606 481 637.5 417 c 128,-1,2
 669 353 669 353 669 269 c 0,3,4
 669 186 669 186 638.5 123.5 c 128,-1,5
 608 61 608 61 552 27 c 128,-1,6
 496 -7 496 -7 422 -7 c 0,7,8
 374 -7 374 -7 335 11 c 128,-1,9
 296 29 296 29 268 63 c 1,10,-1
 268 0 l 1,11,-1
 66 0 l 1,12,-1
 66 742 l 1,13,-1
 268 742 l 1,14,-1
 268 481 l 1,15,16
 295 515 295 515 333 533 c 128,-1,17
 371 551 371 551 417 551 c 0,18,0
 492 551 492 551 549 516 c 128,-1,1
438 186.5 m 128,-1,20
 465 220 465 220 465 274 c 256,21,22
 465 328 465 328 438 361.5 c 128,-1,23
 411 395 411 395 366 395 c 0,24,25
 322 395 322 395 295 361.5 c 128,-1,26
 268 328 268 328 268 274 c 256,27,28
 268 220 268 220 295 186.5 c 128,-1,29
 322 153 322 153 366 153 c 0,30,19
 411 153 411 153 438 186.5 c 128,-1,20
EndSplineSet
Substitution2: "<3,3> Small Caps in Latin lookup 11 subtable" b.sc
EndChar

StartChar: c
Encoding: 99 99 71
Width: 562
Flags: W
LayerCount: 2
Fore
SplineSet
363.5 373 m 128,-1,1
 341 387 341 387 313 387 c 0,2,3
 273 387 273 387 248 355 c 128,-1,4
 223 323 223 323 223 271 c 0,5,6
 223 218 223 218 247.5 185.5 c 128,-1,7
 272 153 272 153 313 153 c 0,8,9
 374 153 374 153 399 213 c 1,10,-1
 556 134 l 1,11,12
 525 67 525 67 458.5 30 c 128,-1,13
 392 -7 392 -7 302 -7 c 0,14,15
 217 -7 217 -7 153 27.5 c 128,-1,16
 89 62 89 62 54 124.5 c 128,-1,17
 19 187 19 187 19 270 c 0,18,19
 19 354 19 354 54.5 417.5 c 128,-1,20
 90 481 90 481 154.5 516 c 128,-1,21
 219 551 219 551 304 551 c 256,22,23
 389 551 389 551 454.5 514 c 128,-1,24
 520 477 520 477 555 409 c 1,25,-1
 400 333 l 1,26,0
 386 359 386 359 363.5 373 c 128,-1,1
EndSplineSet
Substitution2: "<3,3> Small Caps in Latin lookup 11 subtable" c.sc
EndChar

StartChar: d
Encoding: 100 100 72
Width: 688
Flags: W
LayerCount: 2
Fore
SplineSet
622 742 m 1,0,-1
 622 0 l 1,1,-1
 420 0 l 1,2,-1
 420 62 l 1,3,4
 393 29 393 29 355 11 c 128,-1,5
 317 -7 317 -7 271 -7 c 0,6,7
 196 -7 196 -7 139 28 c 128,-1,8
 82 63 82 63 50.5 126.5 c 128,-1,9
 19 190 19 190 19 275 c 0,10,11
 19 358 19 358 49.5 420.5 c 128,-1,12
 80 483 80 483 136 517 c 128,-1,13
 192 551 192 551 266 551 c 0,14,15
 314 551 314 551 353 533 c 128,-1,16
 392 515 392 515 420 481 c 1,17,-1
 420 742 l 1,18,-1
 622 742 l 1,0,-1
393 181.5 m 128,-1,20
 420 215 420 215 420 270 c 0,21,22
 420 324 420 324 393 357.5 c 128,-1,23
 366 391 366 391 322 391 c 0,24,25
 277 391 277 391 250 357.5 c 128,-1,26
 223 324 223 324 223 270 c 0,27,28
 223 215 223 215 250 181.5 c 128,-1,29
 277 148 277 148 322 148 c 0,30,19
 366 148 366 148 393 181.5 c 128,-1,20
EndSplineSet
Substitution2: "<3,3> Small Caps in Latin lookup 11 subtable" d.sc
EndChar

StartChar: e
Encoding: 101 101 73
Width: 609
Flags: W
LayerCount: 2
Fore
SplineSet
515 471.5 m 128,-1,1
 590 392 590 392 590 254 c 0,2,3
 590 233 590 233 589 223 c 1,4,-1
 223 223 l 1,5,6
 235 184 235 184 262.5 163 c 128,-1,7
 290 142 290 142 329 142 c 0,8,9
 392 142 392 142 449 194 c 1,10,-1
 554 91 l 1,11,12
 511 43 511 43 449.5 18 c 128,-1,13
 388 -7 388 -7 312 -7 c 0,14,15
 222 -7 222 -7 156 27.5 c 128,-1,16
 90 62 90 62 54.5 124.5 c 128,-1,17
 19 187 19 187 19 270 c 0,18,19
 19 354 19 354 55 417.5 c 128,-1,20
 91 481 91 481 156 516 c 128,-1,21
 221 551 221 551 306 551 c 0,22,0
 440 551 440 551 515 471.5 c 128,-1,1
368 388 m 128,-1,24
 345 414 345 414 308 414 c 0,25,26
 273 414 273 414 250 389 c 128,-1,27
 227 364 227 364 219 322 c 1,28,-1
 390 322 l 1,29,23
 391 362 391 362 368 388 c 128,-1,24
EndSplineSet
Substitution2: "<3,3> Small Caps in Latin lookup 11 subtable" e.sc
EndChar

StartChar: f
Encoding: 102 102 74
Width: 411
Flags: W
LayerCount: 2
Fore
SplineSet
313.5 580 m 128,-1,1
 298 566 298 566 298 542 c 2,2,-1
 298 516 l 1,3,-1
 411 516 l 1,4,-1
 411 387 l 1,5,-1
 298 387 l 1,6,-1
 298 0 l 1,7,-1
 98 0 l 1,8,-1
 98 387 l 1,9,-1
 24 387 l 1,10,-1
 24 516 l 1,11,-1
 98 516 l 1,12,-1
 98 566 l 2,13,14
 98 651 98 651 157 701 c 128,-1,15
 216 751 216 751 312 751 c 0,16,17
 373 751 373 751 435 731 c 1,18,-1
 413 581 l 1,19,20
 374 594 374 594 355 594 c 0,21,0
 329 594 329 594 313.5 580 c 128,-1,1
EndSplineSet
Substitution2: "<3,3> Small Caps in Latin lookup 11 subtable" f.sc
EndChar

StartChar: g
Encoding: 103 103 75
Width: 651
Flags: W
LayerCount: 2
Fore
SplineSet
593 544 m 1,0,-1
 593 47 l 2,1,2
 593 -28 593 -28 555.5 -85 c 128,-1,3
 518 -142 518 -142 450.5 -172.5 c 128,-1,4
 383 -203 383 -203 294 -203 c 0,5,6
 222 -203 222 -203 156 -183 c 128,-1,7
 90 -163 90 -163 43 -132 c 1,8,-1
 110 4 l 1,9,10
 146 -20 146 -20 190 -33 c 128,-1,11
 234 -46 234 -46 277 -46 c 0,12,13
 331 -46 331 -46 362 -22.5 c 128,-1,14
 393 1 393 1 393 41 c 2,15,-1
 393 96 l 1,16,17
 339 31 339 31 247 31 c 0,18,19
 181 31 181 31 129.5 63.5 c 128,-1,20
 78 96 78 96 48.5 156 c 128,-1,21
 19 216 19 216 19 294 c 0,22,23
 19 370 19 370 47.5 428.5 c 128,-1,24
 76 487 76 487 127 519 c 128,-1,25
 178 551 178 551 243 551 c 0,26,27
 338 551 338 551 393 485 c 1,28,-1
 393 544 l 1,29,-1
 593 544 l 1,0,-1
367.5 207 m 128,-1,31
 393 238 393 238 393 288 c 0,32,33
 393 340 393 340 367.5 371 c 128,-1,34
 342 402 342 402 300 402 c 0,35,36
 259 402 259 402 233.5 370.5 c 128,-1,37
 208 339 208 339 208 288 c 0,38,39
 208 238 208 238 233.5 207 c 128,-1,40
 259 176 259 176 300 176 c 0,41,30
 342 176 342 176 367.5 207 c 128,-1,31
EndSplineSet
Substitution2: "<3,3> Small Caps in Latin lookup 11 subtable" g.sc
EndChar

StartChar: h
Encoding: 104 104 76
Width: 683
Flags: W
LayerCount: 2
Fore
SplineSet
583 495.5 m 128,-1,1
 637 439 637 439 637 345 c 2,2,-1
 637 0 l 1,3,-1
 435 0 l 1,4,-1
 435 287 l 2,5,6
 435 328 435 328 414 351.5 c 128,-1,7
 393 375 393 375 357 375 c 0,8,9
 316 374 316 374 292 345 c 128,-1,10
 268 316 268 316 268 269 c 2,11,-1
 268 0 l 1,12,-1
 66 0 l 1,13,-1
 66 742 l 1,14,-1
 268 742 l 1,15,-1
 268 460 l 1,16,17
 297 505 297 505 340.5 528.5 c 128,-1,18
 384 552 384 552 441 552 c 0,19,0
 529 552 529 552 583 495.5 c 128,-1,1
EndSplineSet
Substitution2: "<3,3> Small Caps in Latin lookup 11 subtable" h.sc
EndChar

StartChar: k
Encoding: 107 107 79
Width: 648
Flags: W
LayerCount: 2
Fore
SplineSet
408 0 m 1,0,-1
 309 189 l 1,1,-1
 268 146 l 1,2,-1
 268 0 l 1,3,-1
 66 0 l 1,4,-1
 66 742 l 1,5,-1
 268 742 l 1,6,-1
 268 381 l 1,7,-1
 418 544 l 1,8,-1
 646 544 l 1,9,-1
 447 334 l 1,10,-1
 647 0 l 1,11,-1
 408 0 l 1,0,-1
EndSplineSet
Substitution2: "<3,3> Small Caps in Latin lookup 11 subtable" k.sc
EndChar

StartChar: l
Encoding: 108 108 80
Width: 335
Flags: W
LayerCount: 2
Fore
SplineSet
66 742 m 1,0,-1
 268 742 l 1,1,-1
 268 0 l 1,2,-1
 66 0 l 1,3,-1
 66 742 l 1,0,-1
EndSplineSet
Substitution2: "<3,3> Small Caps in Latin lookup 11 subtable" l.sc
EndChar

StartChar: m
Encoding: 109 109 81
Width: 1034
Flags: W
LayerCount: 2
Fore
SplineSet
896 526.5 m 128,-1,1
 940 501 940 501 964 454 c 128,-1,2
 988 407 988 407 988 345 c 2,3,-1
 988 0 l 1,4,-1
 786 0 l 1,5,-1
 786 287 l 2,6,7
 786 327 786 327 765.5 351 c 128,-1,8
 745 375 745 375 711 375 c 0,9,10
 672 374 672 374 649 345 c 128,-1,11
 626 316 626 316 626 269 c 2,12,-1
 626 0 l 1,13,-1
 424 0 l 1,14,-1
 424 287 l 2,15,16
 424 327 424 327 403.5 351 c 128,-1,17
 383 375 383 375 349 375 c 0,18,19
 310 374 310 374 286.5 345 c 128,-1,20
 263 316 263 316 263 269 c 2,21,-1
 263 0 l 1,22,-1
 61 0 l 1,23,-1
 61 544 l 1,24,-1
 263 544 l 1,25,-1
 263 461 l 1,26,27
 291 505 291 505 334 528.5 c 128,-1,28
 377 552 377 552 432 552 c 0,29,30
 495 552 495 552 542 521 c 128,-1,31
 589 490 589 490 611 434 c 1,32,33
 637 491 637 491 684.5 521.5 c 128,-1,34
 732 552 732 552 795 552 c 0,35,0
 852 552 852 552 896 526.5 c 128,-1,1
EndSplineSet
Substitution2: "<3,3> Small Caps in Latin lookup 11 subtable" m.sc
EndChar

StartChar: n
Encoding: 110 110 82
Width: 678
Flags: W
LayerCount: 2
Fore
SplineSet
538.5 526.5 m 128,-1,1
 583 501 583 501 607.5 454 c 128,-1,2
 632 407 632 407 632 345 c 2,3,-1
 632 0 l 1,4,-1
 430 0 l 1,5,-1
 430 287 l 2,6,7
 430 327 430 327 408.5 351 c 128,-1,8
 387 375 387 375 352 375 c 0,9,10
 311 374 311 374 287 345 c 128,-1,11
 263 316 263 316 263 269 c 2,12,-1
 263 0 l 1,13,-1
 61 0 l 1,14,-1
 61 544 l 1,15,-1
 263 544 l 1,16,-1
 263 460 l 1,17,18
 292 505 292 505 335.5 528.5 c 128,-1,19
 379 552 379 552 436 552 c 0,20,0
 494 552 494 552 538.5 526.5 c 128,-1,1
EndSplineSet
Substitution2: "<3,3> Small Caps in Latin lookup 11 subtable" n.sc
EndChar

StartChar: o
Encoding: 111 111 83
Width: 643
Flags: W
LayerCount: 2
Fore
SplineSet
481 516.5 m 128,-1,1
 549 482 549 482 586.5 419 c 128,-1,2
 624 356 624 356 624 272 c 0,3,4
 624 189 624 189 586.5 125.5 c 128,-1,5
 549 62 549 62 481 27.5 c 128,-1,6
 413 -7 413 -7 322 -7 c 256,7,8
 231 -7 231 -7 162.5 27.5 c 128,-1,9
 94 62 94 62 56.5 125.5 c 128,-1,10
 19 189 19 189 19 272 c 0,11,12
 19 356 19 356 56.5 419 c 128,-1,13
 94 482 94 482 162.5 516.5 c 128,-1,14
 231 551 231 551 322 551 c 256,15,0
 413 551 413 551 481 516.5 c 128,-1,1
250 357.5 m 128,-1,17
 223 324 223 324 223 270 c 0,18,19
 223 215 223 215 250 182 c 128,-1,20
 277 149 277 149 322 149 c 0,21,22
 366 149 366 149 393 182 c 128,-1,23
 420 215 420 215 420 270 c 0,24,25
 420 324 420 324 393 357.5 c 128,-1,26
 366 391 366 391 322 391 c 0,27,16
 277 391 277 391 250 357.5 c 128,-1,17
EndSplineSet
Substitution2: "<3,3> Small Caps in Latin lookup 11 subtable" o.sc
Substitution2: "<11,2> Diagonal Fractions lookup 7 nested-substitutions 0 subtable" ordmasculine
Substitution2: "<11,2> Diagonal Fractions lookup 5 nested-substitutions 0 subtable" ordmasculine
EndChar

StartChar: p
Encoding: 112 112 84
Width: 688
Flags: W
LayerCount: 2
Fore
SplineSet
549 516 m 128,-1,1
 606 481 606 481 637.5 417 c 128,-1,2
 669 353 669 353 669 269 c 0,3,4
 669 186 669 186 638.5 123.5 c 128,-1,5
 608 61 608 61 552 27 c 128,-1,6
 496 -7 496 -7 422 -7 c 0,7,8
 374 -7 374 -7 335 11 c 128,-1,9
 296 29 296 29 268 63 c 1,10,-1
 268 -194 l 1,11,-1
 66 -194 l 1,12,-1
 66 544 l 1,13,-1
 268 544 l 1,14,-1
 268 481 l 1,15,16
 295 515 295 515 333 533 c 128,-1,17
 371 551 371 551 417 551 c 0,18,0
 492 551 492 551 549 516 c 128,-1,1
438 186.5 m 128,-1,20
 465 220 465 220 465 274 c 256,21,22
 465 328 465 328 438 361.5 c 128,-1,23
 411 395 411 395 366 395 c 0,24,25
 322 395 322 395 295 361.5 c 128,-1,26
 268 328 268 328 268 274 c 256,27,28
 268 220 268 220 295 186.5 c 128,-1,29
 322 153 322 153 366 153 c 0,30,19
 411 153 411 153 438 186.5 c 128,-1,20
EndSplineSet
Substitution2: "<3,3> Small Caps in Latin lookup 11 subtable" p.sc
EndChar

StartChar: q
Encoding: 113 113 85
Width: 688
Flags: W
LayerCount: 2
Fore
SplineSet
622 544 m 1,0,-1
 622 -194 l 1,1,-1
 420 -194 l 1,2,-1
 420 62 l 1,3,4
 393 29 393 29 355 11 c 128,-1,5
 317 -7 317 -7 271 -7 c 0,6,7
 196 -7 196 -7 139 28 c 128,-1,8
 82 63 82 63 50.5 126.5 c 128,-1,9
 19 190 19 190 19 275 c 0,10,11
 19 358 19 358 49.5 420.5 c 128,-1,12
 80 483 80 483 136 517 c 128,-1,13
 192 551 192 551 266 551 c 0,14,15
 314 551 314 551 353 533 c 128,-1,16
 392 515 392 515 420 481 c 1,17,-1
 420 544 l 1,18,-1
 622 544 l 1,0,-1
393 181.5 m 128,-1,20
 420 215 420 215 420 270 c 0,21,22
 420 324 420 324 393 357.5 c 128,-1,23
 366 391 366 391 322 391 c 0,24,25
 277 391 277 391 250 357.5 c 128,-1,26
 223 324 223 324 223 270 c 0,27,28
 223 215 223 215 250 181.5 c 128,-1,29
 277 148 277 148 322 148 c 0,30,19
 366 148 366 148 393 181.5 c 128,-1,20
EndSplineSet
Substitution2: "<3,3> Small Caps in Latin lookup 11 subtable" q.sc
EndChar

StartChar: r
Encoding: 114 114 86
Width: 444
Flags: W
LayerCount: 2
Fore
SplineSet
335.5 527.5 m 128,-1,1
 379 552 379 552 434 552 c 1,2,-1
 434 370 l 1,3,4
 422 372 422 372 399 372 c 0,5,6
 336 372 336 372 299.5 342 c 128,-1,7
 263 312 263 312 263 260 c 2,8,-1
 263 0 l 1,9,-1
 61 0 l 1,10,-1
 61 544 l 1,11,-1
 263 544 l 1,12,-1
 263 458 l 1,13,0
 292 503 292 503 335.5 527.5 c 128,-1,1
EndSplineSet
Substitution2: "<3,3> Small Caps in Latin lookup 11 subtable" r.sc
EndChar

StartChar: s
Encoding: 115 115 87
Width: 535
Flags: W
LayerCount: 2
Fore
SplineSet
266 417 m 0,1,2
 247 417 247 417 236 410.5 c 128,-1,3
 225 404 225 404 225 391 c 0,4,5
 225 376 225 376 245.5 366.5 c 128,-1,6
 266 357 266 357 311 345 c 0,7,8
 371 328 371 328 410.5 311 c 128,-1,9
 450 294 450 294 479.5 259.5 c 128,-1,10
 509 225 509 225 509 171 c 0,11,12
 509 88 509 88 443.5 39.5 c 128,-1,13
 378 -9 378 -9 270 -9 c 0,14,15
 198 -9 198 -9 132.5 10.5 c 128,-1,16
 67 30 67 30 14 68 c 1,17,-1
 76 195 l 1,18,19
 127 162 127 162 177.5 145 c 128,-1,20
 228 128 228 128 273 128 c 0,21,22
 294 128 294 128 306 134.5 c 128,-1,23
 318 141 318 141 318 153 c 0,24,25
 318 168 318 168 298.5 177.5 c 128,-1,26
 279 187 279 187 234 199 c 0,27,28
 176 215 176 215 137 232 c 128,-1,29
 98 249 98 249 69 283 c 128,-1,30
 40 317 40 317 40 371 c 0,31,32
 40 455 40 455 104 504 c 128,-1,33
 168 553 168 553 272 553 c 0,34,35
 397 553 397 553 511 487 c 1,36,-1
 444 360 l 1,37,0
 333 417 333 417 266 417 c 0,1,2
EndSplineSet
Substitution2: "<3,3> Small Caps in Latin lookup 11 subtable" s.sc
EndChar

StartChar: t
Encoding: 116 116 88
Width: 449
Flags: W
LayerCount: 2
Fore
SplineSet
433 26 m 1,0,1
 404 10 404 10 362.5 0.5 c 128,-1,2
 321 -9 321 -9 279 -9 c 0,3,4
 192 -9 192 -9 140 39 c 128,-1,5
 88 87 88 87 88 170 c 2,6,-1
 88 387 l 1,7,-1
 13 387 l 1,8,-1
 13 516 l 1,9,-1
 88 516 l 1,10,-1
 88 667 l 1,11,-1
 289 667 l 1,12,-1
 289 516 l 1,13,-1
 423 516 l 1,14,-1
 423 387 l 1,15,-1
 289 387 l 1,16,-1
 289 201 l 2,17,18
 289 175 289 175 301 162 c 128,-1,19
 313 149 313 149 335 149 c 0,20,21
 354 149 354 149 397 165 c 1,22,-1
 433 26 l 1,0,1
EndSplineSet
Substitution2: "<3,3> Small Caps in Latin lookup 11 subtable" t.sc
EndChar

StartChar: u
Encoding: 117 117 89
Width: 668
Flags: W
LayerCount: 2
Fore
SplineSet
607 544 m 1,0,-1
 607 0 l 1,1,-1
 405 0 l 1,2,-1
 405 81 l 1,3,4
 377 37 377 37 334.5 14 c 128,-1,5
 292 -9 292 -9 238 -9 c 0,6,7
 181 -9 181 -9 137.5 16.5 c 128,-1,8
 94 42 94 42 70 89 c 128,-1,9
 46 136 46 136 46 199 c 2,10,-1
 46 544 l 1,11,-1
 248 544 l 1,12,-1
 248 256 l 2,13,14
 248 216 248 216 268 192.5 c 128,-1,15
 288 169 288 169 321 169 c 0,16,17
 360 170 360 170 382.5 199 c 128,-1,18
 405 228 405 228 405 275 c 2,19,-1
 405 544 l 1,20,-1
 607 544 l 1,0,-1
EndSplineSet
Substitution2: "<3,3> Small Caps in Latin lookup 11 subtable" u.sc
EndChar

StartChar: v
Encoding: 118 118 90
Width: 594
Flags: W
LayerCount: 2
Fore
SplineSet
-8 544 m 1,0,-1
 200 544 l 1,1,-1
 300 184 l 1,2,-1
 401 544 l 1,3,-1
 603 544 l 1,4,-1
 400 0 l 1,5,-1
 194 0 l 1,6,-1
 -8 544 l 1,0,-1
EndSplineSet
Substitution2: "<3,3> Small Caps in Latin lookup 11 subtable" v.sc
EndChar

StartChar: w
Encoding: 119 119 91
Width: 959
Flags: W
LayerCount: 2
Fore
SplineSet
-8 544 m 1,0,-1
 197 544 l 1,1,-1
 295 197 l 1,2,-1
 389 544 l 1,3,-1
 579 544 l 1,4,-1
 676 197 l 1,5,-1
 772 544 l 1,6,-1
 968 544 l 1,7,-1
 770 0 l 1,8,-1
 571 0 l 1,9,-1
 481 312 l 1,10,-1
 389 0 l 1,11,-1
 190 0 l 1,12,-1
 -8 544 l 1,0,-1
EndSplineSet
Substitution2: "<3,3> Small Caps in Latin lookup 11 subtable" w.sc
EndChar

StartChar: x
Encoding: 120 120 92
Width: 633
Flags: W
LayerCount: 2
Fore
SplineSet
10 544 m 1,0,-1
 242 544 l 1,1,-1
 317 403 l 1,2,-1
 401 544 l 1,3,-1
 621 544 l 1,4,-1
 451 279 l 1,5,-1
 633 0 l 1,6,-1
 401 0 l 1,7,-1
 317 154 l 1,8,-1
 221 0 l 1,9,-1
 -1 0 l 1,10,-1
 181 278 l 1,11,-1
 10 544 l 1,0,-1
EndSplineSet
Substitution2: "<3,3> Small Caps in Latin lookup 11 subtable" x.sc
EndChar

StartChar: y
Encoding: 121 121 93
Width: 605
Flags: W
LayerCount: 2
Fore
SplineSet
297 -164.5 m 128,-1,1
 241 -203 241 -203 159 -203 c 0,2,3
 109 -203 109 -203 67 -188.5 c 128,-1,4
 25 -174 25 -174 -16 -143 c 1,5,-1
 68 -8 l 1,6,7
 87 -25 87 -25 104 -32 c 128,-1,8
 121 -39 121 -39 141 -39 c 0,9,10
 183 -39 183 -39 200 -4 c 2,11,-1
 210 15 l 1,12,-1
 -15 544 l 1,13,-1
 192 544 l 1,14,-1
 311 211 l 1,15,-1
 412 544 l 1,16,-1
 613 544 l 1,17,-1
 385 -46 l 2,18,0
 353 -126 353 -126 297 -164.5 c 128,-1,1
EndSplineSet
Substitution2: "<3,3> Small Caps in Latin lookup 11 subtable" y.sc
EndChar

StartChar: z
Encoding: 122 122 94
Width: 562
Flags: W
LayerCount: 2
Fore
SplineSet
39 544 m 1,0,-1
 527 544 l 1,1,-1
 527 424 l 1,2,-1
 283 151 l 1,3,-1
 537 151 l 1,4,-1
 537 0 l 1,5,-1
 29 0 l 1,6,-1
 29 119 l 1,7,-1
 273 392 l 1,8,-1
 39 392 l 1,9,-1
 39 544 l 1,0,-1
EndSplineSet
Substitution2: "<3,3> Small Caps in Latin lookup 11 subtable" z.sc
EndChar

StartChar: braceleft
Encoding: 123 123 95
Width: 370
Flags: W
LayerCount: 2
Fore
SplineSet
249 350 m 128,-1,1
 226 322 226 322 170 309 c 1,2,3
 226 295 226 295 249 267 c 128,-1,4
 272 239 272 239 272 181 c 2,5,-1
 272 84 l 2,6,7
 272 49 272 49 289 36 c 128,-1,8
 306 23 306 23 356 23 c 1,9,-1
 356 -126 l 1,10,-1
 277 -126 l 2,11,12
 207 -126 207 -126 167 -112 c 128,-1,13
 127 -98 127 -98 109.5 -66.5 c 128,-1,14
 92 -35 92 -35 92 21 c 2,15,-1
 92 194 l 2,16,17
 92 215 92 215 84.5 223.5 c 128,-1,18
 77 232 77 232 59 232 c 2,19,-1
 17 232 l 1,20,-1
 17 385 l 1,21,-1
 59 385 l 2,22,23
 77 385 77 385 84.5 393.5 c 128,-1,24
 92 402 92 402 92 424 c 2,25,-1
 92 596 l 2,26,27
 92 652 92 652 109.5 684 c 128,-1,28
 127 716 127 716 167 730 c 128,-1,29
 207 744 207 744 277 744 c 2,30,-1
 356 744 l 1,31,-1
 356 595 l 1,32,33
 306 595 306 595 289 582 c 128,-1,34
 272 569 272 569 272 534 c 2,35,-1
 272 437 l 2,36,0
 272 378 272 378 249 350 c 128,-1,1
EndSplineSet
Substitution2: "'rtla' Right to Left Alternates in Latin lookup 0 subtable" braceright
EndChar

StartChar: bar
Encoding: 124 124 96
Width: 314
Flags: W
LayerCount: 2
Fore
SplineSet
82 799 m 1,0,-1
 232 799 l 1,1,-1
 232 -106 l 1,2,-1
 82 -106 l 1,3,-1
 82 799 l 1,0,-1
EndSplineSet
EndChar

StartChar: braceright
Encoding: 125 125 97
Width: 370
Flags: W
LayerCount: 2
Fore
SplineSet
353 385 m 1,0,-1
 353 232 l 1,1,-1
 311 232 l 2,2,3
 293 232 293 232 285.5 223.5 c 128,-1,4
 278 215 278 215 278 194 c 2,5,-1
 278 21 l 2,6,7
 278 -35 278 -35 260.5 -66.5 c 128,-1,8
 243 -98 243 -98 203 -112 c 128,-1,9
 163 -126 163 -126 93 -126 c 2,10,-1
 14 -126 l 1,11,-1
 14 23 l 1,12,13
 64 23 64 23 81 36 c 128,-1,14
 98 49 98 49 98 84 c 2,15,-1
 98 181 l 2,16,17
 98 239 98 239 121 267 c 128,-1,18
 144 295 144 295 200 309 c 1,19,20
 144 322 144 322 121 350 c 128,-1,21
 98 378 98 378 98 437 c 2,22,-1
 98 534 l 2,23,24
 98 569 98 569 81 582 c 128,-1,25
 64 595 64 595 14 595 c 1,26,-1
 14 744 l 1,27,-1
 93 744 l 2,28,29
 163 744 163 744 203 730 c 128,-1,30
 243 716 243 716 260.5 684 c 128,-1,31
 278 652 278 652 278 596 c 2,32,-1
 278 424 l 2,33,34
 278 402 278 402 285.5 393.5 c 128,-1,35
 293 385 293 385 311 385 c 2,36,-1
 353 385 l 1,0,-1
EndSplineSet
Substitution2: "'rtla' Right to Left Alternates in Latin lookup 0 subtable" braceleft
EndChar

StartChar: asciitilde
Encoding: 126 126 98
Width: 515
Flags: W
LayerCount: 2
Fore
SplineSet
435.5 277 m 128,-1,1
 406 231 406 231 344 231 c 0,2,3
 316 231 316 231 295.5 239.5 c 128,-1,4
 275 248 275 248 252 262 c 0,5,6
 241 269 241 269 231 273.5 c 128,-1,7
 221 278 221 278 214 278 c 0,8,9
 186 278 186 278 186 235 c 1,10,-1
 51 235 l 1,11,12
 51 330 51 330 81 376 c 128,-1,13
 111 422 111 422 173 422 c 0,14,15
 199 422 199 422 219.5 414 c 128,-1,16
 240 406 240 406 264 391 c 0,17,18
 289 375 289 375 302 375 c 0,19,20
 331 375 331 375 331 418 c 1,21,-1
 465 418 l 1,22,0
 465 323 465 323 435.5 277 c 128,-1,1
EndSplineSet
EndChar

StartChar: exclamdown
Encoding: 161 161 100
Width: 276
Flags: W
LayerCount: 2
Fore
SplineSet
77.5 389 m 128,-1,1
 51 415 51 415 51 456 c 0,2,3
 51 498 51 498 77.5 524.5 c 128,-1,4
 104 551 104 551 146 551 c 0,5,6
 187 551 187 551 213.5 524.5 c 128,-1,7
 240 498 240 498 240 456 c 0,8,9
 240 415 240 415 213.5 389 c 128,-1,10
 187 363 187 363 146 363 c 0,11,0
 104 363 104 363 77.5 389 c 128,-1,1
238 -156 m 1,12,-1
 46 -156 l 1,13,-1
 46 26 l 1,14,-1
 81 293 l 1,15,-1
 202 293 l 1,16,-1
 238 26 l 1,17,-1
 238 -156 l 1,12,-1
EndSplineSet
Substitution2: "<3,3> Small Caps in Latin lookup 11 subtable" exclamdown.sc
EndChar

StartChar: cent
Encoding: 162 162 101
Width: 600
Flags: W
LayerCount: 2
Fore
SplineSet
488 49.5 m 128,-1,1
 444 16 444 16 385 2 c 1,2,-1
 385 -160 l 1,3,-1
 236 -160 l 1,4,-1
 236 -1 l 1,5,6
 136 18 136 18 77.5 90.5 c 128,-1,7
 19 163 19 163 19 270 c 0,8,9
 19 379 19 379 77.5 452 c 128,-1,10
 136 525 136 525 236 545 c 1,11,-1
 236 707 l 1,12,-1
 385 707 l 1,13,-1
 385 541 l 1,14,15
 442 528 442 528 485.5 493.5 c 128,-1,16
 529 459 529 459 555 409 c 1,17,-1
 400 333 l 1,18,19
 386 359 386 359 363.5 373 c 128,-1,20
 341 387 341 387 313 387 c 0,21,22
 273 387 273 387 248 355 c 128,-1,23
 223 323 223 323 223 271 c 0,24,25
 223 218 223 218 247.5 185.5 c 128,-1,26
 272 153 272 153 313 153 c 0,27,28
 374 153 374 153 399 213 c 1,29,-1
 556 134 l 1,30,0
 532 83 532 83 488 49.5 c 128,-1,1
EndSplineSet
EndChar

StartChar: sterling
Encoding: 163 163 102
Width: 570
Flags: W
LayerCount: 2
Fore
SplineSet
305 156 m 1,0,-1
 552 156 l 1,1,-1
 552 0 l 1,2,-1
 24 0 l 1,3,-1
 24 156 l 1,4,-1
 96 156 l 1,5,-1
 96 307 l 1,6,-1
 24 307 l 1,7,-1
 24 375 l 1,8,-1
 96 375 l 1,9,-1
 96 468 l 2,10,11
 96 583 96 583 162 646.5 c 128,-1,12
 228 710 228 710 347 710 c 0,13,14
 410 710 410 710 467 688 c 128,-1,15
 524 666 524 666 567 626 c 1,16,-1
 490 473 l 1,17,18
 427 536 427 536 370 536 c 0,19,20
 305 536 305 536 305 464 c 2,21,-1
 305 375 l 1,22,-1
 468 375 l 1,23,-1
 468 307 l 1,24,-1
 305 307 l 1,25,-1
 305 156 l 1,0,-1
EndSplineSet
EndChar

StartChar: currency
Encoding: 164 164 103
Width: 697
Flags: W
LayerCount: 2
Fore
SplineSet
575 203 m 1,1,-1
 678 101 l 1,2,-1
 565 -12 l 1,3,-1
 461 92 l 1,4,5
 409 66 409 66 348 66 c 256,6,7
 287 66 287 66 235 92 c 1,8,-1
 132 -12 l 1,9,-1
 19 101 l 1,10,-1
 121 202 l 1,11,12
 91 259 91 259 91 322 c 0,13,14
 91 382 91 382 118 436 c 1,15,-1
 19 534 l 1,16,-1
 132 647 l 1,17,-1
 229 549 l 1,18,19
 284 578 284 578 348 578 c 0,20,21
 414 578 414 578 467 549 c 1,22,-1
 565 647 l 1,23,-1
 678 534 l 1,24,-1
 579 435 l 1,25,26
 605 383 605 383 605 322 c 0,27,0
 605 258 605 258 575 203 c 1,1,-1
419 253 m 128,-1,29
 449 282 449 282 449 322 c 0,30,31
 449 363 449 363 419 392.5 c 128,-1,32
 389 422 389 422 348 422 c 256,33,34
 307 422 307 422 277.5 392.5 c 128,-1,35
 248 363 248 363 248 322 c 0,36,37
 248 282 248 282 277.5 253 c 128,-1,38
 307 224 307 224 348 224 c 256,39,28
 389 224 389 224 419 253 c 128,-1,29
EndSplineSet
EndChar

StartChar: yen
Encoding: 165 165 104
Width: 717
Flags: W
LayerCount: 2
Fore
SplineSet
717 701 m 1,0,-1
 524 335 l 1,1,-1
 650 335 l 1,2,-1
 650 267 l 1,3,-1
 489 267 l 1,4,-1
 465 222 l 1,5,-1
 465 219 l 1,6,-1
 650 219 l 1,7,-1
 650 151 l 1,8,-1
 465 151 l 1,9,-1
 465 0 l 1,10,-1
 257 0 l 1,11,-1
 257 151 l 1,12,-1
 69 151 l 1,13,-1
 69 219 l 1,14,-1
 256 219 l 1,15,-1
 230 267 l 1,16,-1
 69 267 l 1,17,-1
 69 335 l 1,18,-1
 194 335 l 1,19,-1
 0 701 l 1,20,-1
 208 701 l 1,21,-1
 361 415 l 1,22,-1
 509 701 l 1,23,-1
 717 701 l 1,0,-1
EndSplineSet
EndChar

StartChar: brokenbar
Encoding: 166 166 105
Width: 314
Flags: W
LayerCount: 2
Fore
SplineSet
82 799 m 1,0,-1
 232 799 l 1,1,-1
 232 459 l 1,2,-1
 82 459 l 1,3,-1
 82 799 l 1,0,-1
82 235 m 1,4,-1
 232 235 l 1,5,-1
 232 -106 l 1,6,-1
 82 -106 l 1,7,-1
 82 235 l 1,4,-1
EndSplineSet
EndChar

StartChar: section
Encoding: 167 167 106
Width: 568
Flags: W
LayerCount: 2
Fore
SplineSet
296 561 m 0,1,2
 273 561 273 561 261 554 c 128,-1,3
 249 547 249 547 249 535 c 0,4,5
 249 518 249 518 271.5 507 c 128,-1,6
 294 496 294 496 344 481 c 0,7,8
 405 462 405 462 445.5 444 c 128,-1,9
 486 426 486 426 516 392.5 c 128,-1,10
 546 359 546 359 546 308 c 0,11,12
 546 264 546 264 521 228.5 c 128,-1,13
 496 193 496 193 452 172 c 1,14,15
 481 152 481 152 493.5 132 c 128,-1,16
 506 112 506 112 506 78 c 0,17,18
 506 29 506 29 477.5 -9 c 128,-1,19
 449 -47 449 -47 395.5 -68 c 128,-1,20
 342 -89 342 -89 270 -89 c 0,21,22
 202 -89 202 -89 135 -69 c 128,-1,23
 68 -49 68 -49 14 -11 c 1,24,-1
 69 114 l 1,25,26
 122 81 122 81 173 63.5 c 128,-1,27
 224 46 224 46 266 46 c 0,28,29
 291 46 291 46 304.5 53 c 128,-1,30
 318 60 318 60 318 72 c 0,31,32
 318 87 318 87 297 97.5 c 128,-1,33
 276 108 276 108 227 123 c 0,34,35
 167 141 167 141 126.5 159 c 128,-1,36
 86 177 86 177 56 211 c 128,-1,37
 26 245 26 245 26 296 c 0,38,39
 26 342 26 342 51.5 376.5 c 128,-1,40
 77 411 77 411 124 432 c 1,41,42
 91 452 91 452 78.5 473.5 c 128,-1,43
 66 495 66 495 66 526 c 0,44,45
 66 575 66 575 93.5 613 c 128,-1,46
 121 651 121 651 173 672.5 c 128,-1,47
 225 694 225 694 294 694 c 0,48,49
 413 694 413 694 534 629 c 1,50,-1
 474 504 l 1,51,0
 359 561 359 561 296 561 c 0,1,2
223 331 m 128,-1,53
 208 323 208 323 208 309 c 0,54,55
 208 291 208 291 233.5 279.5 c 128,-1,56
 259 268 259 268 297 268 c 0,57,58
 328 268 328 268 343.5 276 c 128,-1,59
 359 284 359 284 359 297 c 0,60,61
 359 315 359 315 332 327 c 128,-1,62
 305 339 305 339 267 339 c 0,63,52
 238 339 238 339 223 331 c 128,-1,53
EndSplineSet
EndChar

StartChar: copyright
Encoding: 169 169 108
Width: 715
Flags: W
LayerCount: 2
Fore
SplineSet
528.5 643.5 m 128,-1,1
 606 598 606 598 651 520 c 128,-1,2
 696 442 696 442 696 350 c 0,3,4
 696 259 696 259 651 180.5 c 128,-1,5
 606 102 606 102 528 55.5 c 128,-1,6
 450 9 450 9 356 9 c 0,7,8
 263 9 263 9 185.5 55 c 128,-1,9
 108 101 108 101 63.5 179 c 128,-1,10
 19 257 19 257 19 348 c 256,11,12
 19 439 19 439 64 517.5 c 128,-1,13
 109 596 109 596 186.5 642.5 c 128,-1,14
 264 689 264 689 358 689 c 0,15,0
 451 689 451 689 528.5 643.5 c 128,-1,1
232.5 564 m 128,-1,17
 176 530 176 530 143 472.5 c 128,-1,18
 110 415 110 415 110 348 c 256,19,20
 110 281 110 281 142.5 224 c 128,-1,21
 175 167 175 167 231.5 133.5 c 128,-1,22
 288 100 288 100 356 100 c 0,23,24
 425 100 425 100 482 134 c 128,-1,25
 539 168 539 168 572 225.5 c 128,-1,26
 605 283 605 283 605 350 c 256,27,28
 605 417 605 417 572 474 c 128,-1,29
 539 531 539 531 482.5 564.5 c 128,-1,30
 426 598 426 598 358 598 c 0,31,16
 289 598 289 598 232.5 564 c 128,-1,17
406.5 421.5 m 128,-1,33
 386 433 386 433 366 433 c 0,34,35
 333 433 333 433 311 409.5 c 128,-1,36
 289 386 289 386 289 351 c 0,37,38
 289 315 289 315 311 291.5 c 128,-1,39
 333 268 333 268 366 268 c 0,40,41
 385 268 385 268 405 277.5 c 128,-1,42
 425 287 425 287 442 304 c 1,43,-1
 497 246 l 1,44,45
 471 217 471 217 434.5 200.5 c 128,-1,46
 398 184 398 184 361 184 c 0,47,48
 313 184 313 184 274.5 205.5 c 128,-1,49
 236 227 236 227 214 264.5 c 128,-1,50
 192 302 192 302 192 349 c 0,51,52
 192 395 192 395 214.5 432.5 c 128,-1,53
 237 470 237 470 276.5 491 c 128,-1,54
 316 512 316 512 365 512 c 0,55,56
 401 512 401 512 437 496.5 c 128,-1,57
 473 481 473 481 497 455 c 1,58,-1
 442 390 l 1,59,32
 427 410 427 410 406.5 421.5 c 128,-1,33
EndSplineSet
EndChar

StartChar: ordfeminine
Encoding: 170 170 109
Width: 397
Flags: W
LayerCount: 2
Fore
SplineSet
324 758.5 m 128,-1,1
 366 727 366 727 365 670 c 2,2,-1
 365 458 l 1,3,-1
 231 458 l 1,4,-1
 231 495 l 1,5,6
 198 452 198 452 131 452 c 0,7,8
 77 452 77 452 46.5 480 c 128,-1,9
 16 508 16 508 16 555 c 0,10,11
 16 603 16 603 50 628 c 128,-1,12
 84 653 84 653 149 654 c 2,13,-1
 231 654 l 1,14,15
 230 672 230 672 215.5 682 c 128,-1,16
 201 692 201 692 174 692 c 0,17,18
 132 692 132 692 69 671 c 1,19,-1
 38 759 l 1,20,21
 133 790 133 790 207 790 c 0,22,0
 282 790 282 790 324 758.5 c 128,-1,1
231 563 m 1,24,-1
 231 593 l 1,25,-1
 178 593 l 2,26,27
 162 593 162 593 153.5 586 c 128,-1,28
 145 579 145 579 145 566 c 0,29,30
 145 536 145 536 178 536 c 256,31,23
 211 536 211 536 231 563 c 1,24,-1
EndSplineSet
EndChar

StartChar: logicalnot
Encoding: 172 172 111
Width: 588
Flags: W
LayerCount: 2
Fore
SplineSet
529 439 m 1,0,-1
 529 132 l 1,1,-1
 385 132 l 1,2,-1
 385 312 l 1,3,-1
 31 312 l 1,4,-1
 31 439 l 1,5,-1
 529 439 l 1,0,-1
EndSplineSet
EndChar

StartChar: uni00AD
Encoding: 173 173 112
Width: 377
Flags: W
LayerCount: 2
Fore
SplineSet
52 371 m 1,0,-1
 325 371 l 1,1,-1
 325 245 l 1,2,-1
 52 245 l 1,3,-1
 52 371 l 1,0,-1
EndSplineSet
EndChar

StartChar: registered
Encoding: 174 174 113
Width: 715
Flags: W
LayerCount: 2
Fore
SplineSet
528.5 643.5 m 128,-1,1
 606 598 606 598 651 520 c 128,-1,2
 696 442 696 442 696 350 c 0,3,4
 696 259 696 259 651 180.5 c 128,-1,5
 606 102 606 102 528 55.5 c 128,-1,6
 450 9 450 9 356 9 c 0,7,8
 263 9 263 9 185.5 55 c 128,-1,9
 108 101 108 101 63.5 179 c 128,-1,10
 19 257 19 257 19 348 c 256,11,12
 19 439 19 439 64 517.5 c 128,-1,13
 109 596 109 596 186.5 642.5 c 128,-1,14
 264 689 264 689 358 689 c 0,15,0
 451 689 451 689 528.5 643.5 c 128,-1,1
482 134 m 128,-1,17
 539 168 539 168 572 225.5 c 128,-1,18
 605 283 605 283 605 350 c 256,19,20
 605 417 605 417 572 474 c 128,-1,21
 539 531 539 531 482.5 564.5 c 128,-1,22
 426 598 426 598 358 598 c 0,23,24
 289 598 289 598 232.5 564 c 128,-1,25
 176 530 176 530 143 472.5 c 128,-1,26
 110 415 110 415 110 348 c 256,27,28
 110 281 110 281 142.5 224 c 128,-1,29
 175 167 175 167 231.5 133.5 c 128,-1,30
 288 100 288 100 356 100 c 0,31,16
 425 100 425 100 482 134 c 128,-1,17
446 307 m 1,33,-1
 510 206 l 1,34,-1
 407 206 l 1,35,-1
 365 290 l 1,36,-1
 319 290 l 1,37,-1
 319 206 l 1,38,-1
 228 206 l 1,39,-1
 228 516 l 1,40,-1
 368 516 l 2,41,42
 430 516 430 516 464.5 487.5 c 128,-1,43
 499 459 499 459 499 407 c 0,44,32
 499 337 499 337 446 307 c 1,33,-1
319 359 m 1,45,-1
 368 359 l 2,46,47
 389 359 389 359 400.5 370.5 c 128,-1,48
 412 382 412 382 412 403 c 256,49,50
 412 424 412 424 400.5 435.5 c 128,-1,51
 389 447 389 447 368 447 c 2,52,-1
 319 447 l 1,53,-1
 319 359 l 1,45,-1
EndSplineSet
EndChar

StartChar: degree
Encoding: 176 176 115
Width: 389
Flags: W
LayerCount: 2
Fore
SplineSet
290 786 m 128,-1,1
 325 751 325 751 325 701 c 0,2,3
 325 652 325 652 290 617 c 128,-1,4
 255 582 255 582 205 582 c 256,5,6
 155 582 155 582 120 617 c 128,-1,7
 85 652 85 652 85 701 c 0,8,9
 85 751 85 751 120.5 786 c 128,-1,10
 156 821 156 821 205 821 c 0,11,0
 255 821 255 821 290 786 c 128,-1,1
174 732 m 128,-1,13
 161 719 161 719 161 701 c 256,14,15
 161 683 161 683 174 670.5 c 128,-1,16
 187 658 187 658 205 658 c 256,17,18
 223 658 223 658 236 670.5 c 128,-1,19
 249 683 249 683 249 701 c 256,20,21
 249 719 249 719 236 732 c 128,-1,22
 223 745 223 745 205 745 c 256,23,12
 187 745 187 745 174 732 c 128,-1,13
EndSplineSet
EndChar

StartChar: plusminus
Encoding: 177 177 116
Width: 515
Flags: W
LayerCount: 2
Fore
SplineSet
321 467 m 1,0,-1
 484 467 l 1,1,-1
 484 346 l 1,2,-1
 321 346 l 1,3,-1
 321 190 l 1,4,-1
 195 190 l 1,5,-1
 195 346 l 1,6,-1
 31 346 l 1,7,-1
 31 467 l 1,8,-1
 195 467 l 1,9,-1
 195 623 l 1,10,-1
 321 623 l 1,11,-1
 321 467 l 1,0,-1
31 -8 m 1,12,-1
 31 118 l 1,13,-1
 484 118 l 1,14,-1
 484 -8 l 1,15,-1
 31 -8 l 1,12,-1
EndSplineSet
EndChar

StartChar: paragraph
Encoding: 182 182 121
Width: 668
Flags: W
LayerCount: 2
Fore
SplineSet
202 307 m 2,0,1
 125 307 125 307 78 340.5 c 128,-1,2
 31 374 31 374 11.5 422.5 c 128,-1,3
 -8 471 -8 471 -8 520 c 0,4,5
 -8 580 -8 580 18 630 c 128,-1,6
 44 680 44 680 100.5 711 c 128,-1,7
 157 742 157 742 244 742 c 2,8,-1
 609 742 l 1,9,-1
 609 -106 l 1,10,-1
 460 -106 l 1,11,-1
 460 630 l 1,12,-1
 375 630 l 1,13,-1
 375 -106 l 1,14,-1
 226 -106 l 1,15,-1
 226 307 l 1,16,-1
 202 307 l 2,0,1
EndSplineSet
EndChar

StartChar: ordmasculine
Encoding: 186 186 125
Width: 416
Flags: W
LayerCount: 2
Fore
SplineSet
348.5 743.5 m 128,-1,1
 401 698 401 698 401 621 c 0,2,3
 401 545 401 545 348.5 499.5 c 128,-1,4
 296 454 296 454 208 454 c 256,5,6
 120 454 120 454 68 499.5 c 128,-1,7
 16 545 16 545 16 621 c 0,8,9
 16 698 16 698 68 743.5 c 128,-1,10
 120 789 120 789 208 789 c 256,11,0
 296 789 296 789 348.5 743.5 c 128,-1,1
168.5 667 m 128,-1,13
 154 649 154 649 154 620 c 256,14,15
 154 591 154 591 168.5 573 c 128,-1,16
 183 555 183 555 208 555 c 0,17,18
 232 555 232 555 247 573 c 128,-1,19
 262 591 262 591 262 620 c 256,20,21
 262 649 262 649 247 667 c 128,-1,22
 232 685 232 685 208 685 c 0,23,12
 183 685 183 685 168.5 667 c 128,-1,13
EndSplineSet
EndChar

StartChar: questiondown
Encoding: 191 191 130
Width: 486
Flags: W
LayerCount: 2
Fore
SplineSet
183.5 389 m 128,-1,1
 157 415 157 415 157 456 c 0,2,3
 157 498 157 498 183.5 524.5 c 128,-1,4
 210 551 210 551 252 551 c 0,5,6
 293 551 293 551 319.5 524.5 c 128,-1,7
 346 498 346 498 346 456 c 0,8,9
 346 415 346 415 319.5 389 c 128,-1,10
 293 363 293 363 252 363 c 0,11,0
 210 363 210 363 183.5 389 c 128,-1,1
401 -100 m 128,-1,13
 338 -164 338 -164 226 -164 c 0,14,15
 120 -164 120 -164 61 -117.5 c 128,-1,16
 2 -71 2 -71 2 14 c 0,17,18
 2 67 2 67 26 101.5 c 128,-1,19
 50 136 50 136 96 177 c 0,20,21
 135 212 135 212 154 237.5 c 128,-1,22
 173 263 173 263 173 298 c 1,23,-1
 323 298 l 1,24,25
 323 240 323 240 302 205.5 c 128,-1,26
 281 171 281 171 243 135 c 0,27,28
 216 109 216 109 203.5 90.5 c 128,-1,29
 191 72 191 72 191 47 c 0,30,31
 191 20 191 20 204 7.5 c 128,-1,32
 217 -5 217 -5 245 -5 c 0,33,34
 277 -5 277 -5 293 15.5 c 128,-1,35
 309 36 309 36 310 79 c 1,36,-1
 465 79 l 1,37,12
 464 -36 464 -36 401 -100 c 128,-1,13
EndSplineSet
Substitution2: "<3,3> Small Caps in Latin lookup 11 subtable" questiondown.sc
EndChar

StartChar: AE
Encoding: 198 198 137
Width: 1127
Flags: W
LayerCount: 2
Fore
SplineSet
711 160 m 1,0,-1
 1086 160 l 1,1,-1
 1086 0 l 1,2,-1
 503 0 l 1,3,-1
 503 133 l 1,4,-1
 276 133 l 1,5,-1
 208 0 l 1,6,-1
 -8 0 l 1,7,-1
 386 701 l 1,8,-1
 1076 701 l 1,9,-1
 1076 541 l 1,10,-1
 711 541 l 1,11,-1
 711 431 l 1,12,-1
 1042 431 l 1,13,-1
 1042 271 l 1,14,-1
 711 271 l 1,15,-1
 711 160 l 1,0,-1
353 283 m 1,16,-1
 503 283 l 1,17,-1
 503 542 l 1,18,-1
 485 542 l 1,19,-1
 353 283 l 1,16,-1
EndSplineSet
EndChar

StartChar: Ccedilla
Encoding: 199 199 138
Width: 690
Flags: W
LayerCount: 2
Fore
SplineSet
484.5 190 m 128,-1,1
 530 212 530 212 566 250 c 1,2,-1
 686 122 l 1,3,4
 636 67 636 67 567.5 31.5 c 128,-1,5
 499 -4 499 -4 428 -12 c 1,6,-1
 411 -57 l 1,7,8
 494 -78 494 -78 494 -139 c 0,9,10
 494 -189 494 -189 455.5 -214 c 128,-1,11
 417 -239 417 -239 361 -239 c 0,12,13
 304 -239 304 -239 247 -219 c 1,14,-1
 275 -134 l 1,15,16
 295 -142 295 -142 323 -142 c 0,17,18
 341 -142 341 -142 352.5 -136.5 c 128,-1,19
 364 -131 364 -131 364 -122 c 0,20,21
 364 -111 364 -111 348 -105 c 128,-1,22
 332 -99 332 -99 308 -99 c 2,23,-1
 288 -99 l 1,24,-1
 317 -8 l 1,25,26
 230 7 230 7 162.5 57.5 c 128,-1,27
 95 108 95 108 57 184.5 c 128,-1,28
 19 261 19 261 19 353 c 0,29,30
 19 455 19 455 68 537.5 c 128,-1,31
 117 620 117 620 203 667 c 128,-1,32
 289 714 289 714 396 714 c 0,33,34
 475 714 475 714 554 680 c 128,-1,35
 633 646 633 646 686 589 c 1,36,-1
 566 446 l 1,37,38
 533 490 533 490 487.5 515.5 c 128,-1,39
 442 541 442 541 399 541 c 0,40,41
 352 541 352 541 314 517 c 128,-1,42
 276 493 276 493 254 450.5 c 128,-1,43
 232 408 232 408 232 355 c 256,44,45
 232 302 232 302 254 259.5 c 128,-1,46
 276 217 276 217 314 192.5 c 128,-1,47
 352 168 352 168 399 168 c 0,48,0
 439 168 439 168 484.5 190 c 128,-1,1
EndSplineSet
EndChar

StartChar: multiply
Encoding: 215 215 154
Width: 515
Flags: W
LayerCount: 2
Fore
SplineSet
463 443 m 1,0,-1
 348 328 l 1,1,-1
 463 213 l 1,2,-1
 373 123 l 1,3,-1
 258 238 l 1,4,-1
 142 123 l 1,5,-1
 53 213 l 1,6,-1
 168 328 l 1,7,-1
 53 443 l 1,8,-1
 142 533 l 1,9,-1
 258 418 l 1,10,-1
 373 533 l 1,11,-1
 463 443 l 1,0,-1
EndSplineSet
EndChar

StartChar: Oslash
Encoding: 216 216 155
Width: 802
Flags: W
LayerCount: 2
Fore
SplineSet
743.5 512.5 m 128,-1,1
 783 438 783 438 783 348 c 0,2,3
 783 246 783 246 733.5 164 c 128,-1,4
 684 82 684 82 596.5 35 c 128,-1,5
 509 -12 509 -12 401 -12 c 0,6,7
 324 -12 324 -12 258 12 c 1,8,-1
 218 -55 l 1,9,-1
 97 -55 l 1,10,-1
 166 59 l 1,11,12
 97 108 97 108 58 183 c 128,-1,13
 19 258 19 258 19 348 c 0,14,15
 19 450 19 450 68.5 531 c 128,-1,16
 118 612 118 612 205 658 c 128,-1,17
 292 704 292 704 401 704 c 0,18,19
 472 704 472 704 540 682 c 1,20,-1
 584 755 l 1,21,-1
 705 755 l 1,22,-1
 633 636 l 1,23,0
 704 587 704 587 743.5 512.5 c 128,-1,1
269 231 m 1,25,-1
 445 525 l 1,26,27
 423 530 423 530 404 530 c 0,28,29
 358 530 358 530 318.5 506 c 128,-1,30
 279 482 279 482 255.5 440 c 128,-1,31
 232 398 232 398 232 347 c 0,32,24
 232 282 232 282 269 231 c 1,25,-1
487.5 185.5 m 128,-1,34
 526 210 526 210 548 252.5 c 128,-1,35
 570 295 570 295 570 347 c 0,36,37
 570 381 570 381 559.5 411.5 c 128,-1,38
 549 442 549 442 531 466 c 1,39,-1
 353 169 l 1,40,41
 379 161 379 161 404 161 c 0,42,33
 449 161 449 161 487.5 185.5 c 128,-1,34
EndSplineSet
EndChar

StartChar: Thorn
Encoding: 222 222 161
Width: 694
Flags: W
LayerCount: 2
Fore
SplineSet
534 582.5 m 128,-1,1
 601 553 601 553 637 497.5 c 128,-1,2
 673 442 673 442 673 367 c 0,3,4
 673 288 673 288 637 229 c 128,-1,5
 601 170 601 170 534 138.5 c 128,-1,6
 467 107 467 107 377 107 c 2,7,-1
 267 107 l 1,8,-1
 267 0 l 1,9,-1
 59 0 l 1,10,-1
 59 701 l 1,11,-1
 267 701 l 1,12,-1
 267 612 l 1,13,-1
 377 612 l 2,14,0
 467 612 467 612 534 582.5 c 128,-1,1
435 290.5 m 128,-1,16
 459 316 459 316 459 361 c 0,17,18
 459 404 459 404 435 428.5 c 128,-1,19
 411 453 411 453 368 453 c 2,20,-1
 267 453 l 1,21,-1
 267 265 l 1,22,-1
 368 265 l 2,23,15
 411 265 411 265 435 290.5 c 128,-1,16
EndSplineSet
EndChar

StartChar: germandbls
Encoding: 223 223 162
Width: 667
Flags: W
LayerCount: 2
Fore
SplineSet
82.5 630 m 128,-1,1
 117 688 117 688 180 719.5 c 128,-1,2
 243 751 243 751 327 751 c 0,3,4
 408 751 408 751 469.5 726 c 128,-1,5
 531 701 531 701 564.5 655 c 128,-1,6
 598 609 598 609 598 548 c 0,7,8
 598 499 598 499 574.5 454.5 c 128,-1,9
 551 410 551 410 512 384 c 1,10,11
 570 366 570 366 605.5 320.5 c 128,-1,12
 641 275 641 275 641 216 c 0,13,14
 641 152 641 152 606 103 c 128,-1,15
 571 54 571 54 506.5 27 c 128,-1,16
 442 0 442 0 356 0 c 2,17,-1
 308 0 l 1,18,-1
 308 142 l 1,19,-1
 339 142 l 2,20,21
 445 142 445 142 445 219 c 0,22,23
 445 293 445 293 333 293 c 2,24,-1
 312 293 l 1,25,-1
 312 435 l 1,26,27
 402 435 402 435 402 518 c 256,28,29
 402 601 402 601 329 601 c 0,30,31
 250 601 250 601 250 509 c 2,32,-1
 250 0 l 1,33,-1
 48 0 l 1,34,-1
 48 494 l 2,35,0
 48 572 48 572 82.5 630 c 128,-1,1
EndSplineSet
Substitution2: "<3,3> Small Caps in Latin lookup 11 subtable" germandbls.sc
EndChar

StartChar: ae
Encoding: 230 230 169
Width: 962
Flags: W
LayerCount: 2
Fore
SplineSet
610 163 m 128,-1,1
 640 142 640 142 679 142 c 0,2,3
 744 142 744 142 799 194 c 1,4,-1
 904 91 l 1,5,6
 861 43 861 43 799.5 18 c 128,-1,7
 738 -7 738 -7 661 -7 c 0,8,9
 585 -7 585 -7 529 20.5 c 128,-1,10
 473 48 473 48 440 99 c 1,11,12
 409 46 409 46 353.5 18 c 128,-1,13
 298 -10 298 -10 221 -10 c 0,14,15
 128 -10 128 -10 74 36.5 c 128,-1,16
 20 83 20 83 20 161 c 0,17,18
 20 240 20 240 74 281 c 128,-1,19
 128 322 128 322 231 324 c 2,20,-1
 365 324 l 1,21,-1
 365 338 l 2,22,23
 362 368 362 368 338 384.5 c 128,-1,24
 314 401 314 401 271 401 c 0,25,26
 236 401 236 401 191 391 c 128,-1,27
 146 381 146 381 101 362 c 1,28,-1
 55 497 l 1,29,30
 194 552 194 552 318 552 c 0,31,32
 434 552 434 552 495 500 c 1,33,34
 560 551 560 551 656 551 c 0,35,36
 744 551 744 551 809 514.5 c 128,-1,37
 874 478 874 478 908.5 410.5 c 128,-1,38
 943 343 943 343 943 253 c 0,39,40
 943 236 943 236 942 227 c 1,41,-1
 572 227 l 1,42,-1
 573 219 l 2,43,0
 580 184 580 184 610 163 c 128,-1,1
718 388.5 m 128,-1,45
 695 415 695 415 657 415 c 0,46,47
 622 415 622 415 598.5 389.5 c 128,-1,48
 575 364 575 364 568 322 c 1,49,-1
 740 322 l 1,50,44
 741 362 741 362 718 388.5 c 128,-1,45
226.5 215.5 m 128,-1,52
 210 202 210 202 210 177 c 0,53,54
 210 151 210 151 226.5 135.5 c 128,-1,55
 243 120 243 120 272 120 c 256,56,57
 301 120 301 120 325.5 134 c 128,-1,58
 350 148 350 148 366 174 c 1,59,-1
 365 229 l 1,60,-1
 273 229 l 2,61,51
 243 229 243 229 226.5 215.5 c 128,-1,52
EndSplineSet
Substitution2: "<3,3> Small Caps in Latin lookup 11 subtable" ae.sc
EndChar

StartChar: ccedilla
Encoding: 231 231 170
Width: 562
Flags: W
LayerCount: 2
Fore
SplineSet
475.5 40.5 m 128,-1,1
 422 5 422 5 349 -4 c 1,2,-1
 330 -57 l 1,3,4
 413 -78 413 -78 413 -139 c 0,5,6
 413 -189 413 -189 374.5 -214 c 128,-1,7
 336 -239 336 -239 280 -239 c 0,8,9
 223 -239 223 -239 166 -219 c 1,10,-1
 194 -134 l 1,11,12
 214 -142 214 -142 242 -142 c 0,13,14
 260 -142 260 -142 271.5 -136.5 c 128,-1,15
 283 -131 283 -131 283 -122 c 0,16,17
 283 -111 283 -111 267 -105 c 128,-1,18
 251 -99 251 -99 227 -99 c 2,19,-1
 207 -99 l 1,20,-1
 238 -2 l 1,21,22
 137 17 137 17 78 89.5 c 128,-1,23
 19 162 19 162 19 270 c 0,24,25
 19 354 19 354 54.5 417.5 c 128,-1,26
 90 481 90 481 154.5 516 c 128,-1,27
 219 551 219 551 304 551 c 256,28,29
 389 551 389 551 454.5 514 c 128,-1,30
 520 477 520 477 555 409 c 1,31,-1
 400 333 l 1,32,33
 386 359 386 359 363.5 373 c 128,-1,34
 341 387 341 387 313 387 c 0,35,36
 273 387 273 387 248 355 c 128,-1,37
 223 323 223 323 223 271 c 0,38,39
 223 218 223 218 247.5 185.5 c 128,-1,40
 272 153 272 153 313 153 c 0,41,42
 374 153 374 153 399 213 c 1,43,-1
 556 134 l 1,44,0
 529 76 529 76 475.5 40.5 c 128,-1,1
EndSplineSet
Substitution2: "<3,3> Small Caps in Latin lookup 11 subtable" ccedilla.sc
EndChar

StartChar: eth
Encoding: 240 240 179
Width: 611
Flags: W
LayerCount: 2
Fore
SplineSet
552.5 471 m 128,-1,1
 592 386 592 386 592 294 c 0,2,3
 592 203 592 203 554 134 c 128,-1,4
 516 65 516 65 446.5 27.5 c 128,-1,5
 377 -10 377 -10 284 -10 c 0,6,7
 203 -10 203 -10 142 19 c 128,-1,8
 81 48 81 48 48 101.5 c 128,-1,9
 15 155 15 155 15 226 c 0,10,11
 15 292 15 292 43 342 c 128,-1,12
 71 392 71 392 122.5 419.5 c 128,-1,13
 174 447 174 447 242 447 c 0,14,15
 287 447 287 447 328.5 433.5 c 128,-1,16
 370 420 370 420 394 398 c 1,17,18
 392 439 392 439 366 479.5 c 128,-1,19
 340 520 340 520 294 557 c 1,20,-1
 117 477 l 1,21,-1
 82 549 l 1,22,-1
 217 611 l 1,23,24
 158 645 158 645 92 670 c 1,25,-1
 227 751 l 1,26,27
 303 723 303 723 368 680 c 1,28,-1
 512 746 l 1,29,-1
 547 672 l 1,30,-1
 440 623 l 1,31,0
 513 556 513 556 552.5 471 c 128,-1,1
353 178 m 128,-1,33
 376 199 376 199 376 235 c 0,34,35
 376 270 376 270 353 291.5 c 128,-1,36
 330 313 330 313 291 313 c 0,37,38
 253 313 253 313 230.5 292.5 c 128,-1,39
 208 272 208 272 208 236 c 256,40,41
 208 200 208 200 230.5 178.5 c 128,-1,42
 253 157 253 157 291 157 c 0,43,32
 330 157 330 157 353 178 c 128,-1,33
EndSplineSet
Substitution2: "<3,3> Small Caps in Latin lookup 11 subtable" eth.sc
EndChar

StartChar: divide
Encoding: 247 247 186
Width: 515
Flags: W
LayerCount: 2
Fore
SplineSet
317.5 569.5 m 128,-1,1
 341 546 341 546 341 508 c 256,2,3
 341 470 341 470 317 446 c 128,-1,4
 293 422 293 422 256 422 c 256,5,6
 219 422 219 422 194.5 446.5 c 128,-1,7
 170 471 170 471 170 508 c 256,8,9
 170 545 170 545 194 569 c 128,-1,10
 218 593 218 593 256 593 c 256,11,0
 294 593 294 593 317.5 569.5 c 128,-1,1
31 391 m 1,12,-1
 484 391 l 1,13,-1
 484 265 l 1,14,-1
 31 265 l 1,15,-1
 31 391 l 1,12,-1
317.5 210.5 m 128,-1,17
 341 187 341 187 341 149 c 256,18,19
 341 111 341 111 317 87 c 128,-1,20
 293 63 293 63 256 63 c 256,21,22
 219 63 219 63 194.5 87.5 c 128,-1,23
 170 112 170 112 170 149 c 256,24,25
 170 186 170 186 194 210 c 128,-1,26
 218 234 218 234 256 234 c 256,27,16
 294 234 294 234 317.5 210.5 c 128,-1,17
EndSplineSet
EndChar

StartChar: oslash
Encoding: 248 248 187
Width: 643
Flags: W
LayerCount: 2
Fore
SplineSet
596.5 400.5 m 128,-1,1
 624 343 624 343 624 272 c 0,2,3
 624 189 624 189 586.5 125.5 c 128,-1,4
 549 62 549 62 481 27.5 c 128,-1,5
 413 -7 413 -7 322 -7 c 0,6,7
 249 -7 249 -7 193 15 c 1,8,-1
 127 -83 l 1,9,-1
 40 -83 l 1,10,-1
 129 48 l 1,11,12
 76 85 76 85 47.5 142.5 c 128,-1,13
 19 200 19 200 19 272 c 0,14,15
 19 356 19 356 56.5 419 c 128,-1,16
 94 482 94 482 162.5 516.5 c 128,-1,17
 231 551 231 551 322 551 c 0,18,19
 394 551 394 551 454 528 c 1,20,-1
 521 627 l 1,21,-1
 608 627 l 1,22,-1
 518 494 l 1,23,0
 569 458 569 458 596.5 400.5 c 128,-1,1
226 192 m 1,25,-1
 366 398 l 1,26,27
 346 407 346 407 322 407 c 0,28,29
 271 407 271 407 240.5 369.5 c 128,-1,30
 210 332 210 332 210 270 c 0,31,24
 210 226 210 226 226 192 c 1,25,-1
403 169.5 m 128,-1,33
 434 207 434 207 434 270 c 0,34,35
 434 312 434 312 418 346 c 1,36,-1
 278 141 l 1,37,38
 298 132 298 132 322 132 c 0,39,32
 372 132 372 132 403 169.5 c 128,-1,33
EndSplineSet
Substitution2: "<3,3> Small Caps in Latin lookup 11 subtable" oslash.sc
EndChar

StartChar: thorn
Encoding: 254 254 193
Width: 688
Flags: W
LayerCount: 2
Fore
SplineSet
417 551 m 0,1,2
 492 551 492 551 549 516 c 128,-1,3
 606 481 606 481 637.5 417 c 128,-1,4
 669 353 669 353 669 269 c 0,5,6
 669 186 669 186 638.5 123.5 c 128,-1,7
 608 61 608 61 552 27 c 128,-1,8
 496 -7 496 -7 422 -7 c 0,9,10
 374 -7 374 -7 335 11 c 128,-1,11
 296 29 296 29 268 64 c 1,12,-1
 268 -194 l 1,13,-1
 66 -194 l 1,14,-1
 66 742 l 1,15,-1
 268 742 l 1,16,-1
 268 481 l 1,17,0
 324 551 324 551 417 551 c 0,1,2
295 361.5 m 128,-1,19
 268 328 268 328 268 274 c 256,20,21
 268 220 268 220 295 186.5 c 128,-1,22
 322 153 322 153 366 153 c 0,23,24
 411 153 411 153 438 186.5 c 128,-1,25
 465 220 465 220 465 274 c 256,26,27
 465 328 465 328 438 361.5 c 128,-1,28
 411 395 411 395 366 395 c 0,29,18
 322 395 322 395 295 361.5 c 128,-1,19
EndSplineSet
Substitution2: "<3,3> Small Caps in Latin lookup 11 subtable" thorn.sc
EndChar

StartChar: Aogonek
Encoding: 260 260 199
Width: 786
Flags: W
LayerCount: 2
Fore
SplineSet
704 -112 m 1,1,-1
 734 -215 l 1,2,3
 683 -238 683 -238 632 -238 c 0,4,5
 577 -238 577 -238 547.5 -207 c 128,-1,6
 518 -176 518 -176 518 -127 c 0,7,8
 518 -62 518 -62 572 0 c 1,9,-1
 531 112 l 1,10,-1
 248 112 l 1,11,-1
 206 0 l 1,12,-1
 -8 0 l 1,13,-1
 291 701 l 1,14,-1
 505 701 l 1,15,-1
 794 0 l 1,16,-1
 729 0 l 1,17,18
 694 -26 694 -26 675 -48.5 c 128,-1,19
 656 -71 656 -71 656 -94 c 0,20,21
 656 -120 656 -120 678 -120 c 0,22,0
 690 -120 690 -120 704 -112 c 1,1,-1
306 264 m 1,23,-1
 476 264 l 1,24,-1
 392 493 l 1,25,-1
 306 264 l 1,23,-1
EndSplineSet
EndChar

StartChar: aogonek
Encoding: 261 261 200
Width: 607
Flags: W
LayerCount: 2
Fore
SplineSet
462 -48.5 m 128,-1,1
 443 -71 443 -71 443 -94 c 0,2,3
 443 -120 443 -120 465 -120 c 0,4,5
 477 -120 477 -120 491 -112 c 1,6,-1
 521 -215 l 1,7,8
 470 -238 470 -238 419 -238 c 0,9,10
 364 -238 364 -238 334.5 -207 c 128,-1,11
 305 -176 305 -176 305 -127 c 0,12,13
 305 -58 305 -58 363 4 c 1,14,-1
 363 60 l 1,15,16
 338 27 338 27 297.5 9 c 128,-1,17
 257 -9 257 -9 204 -9 c 0,18,19
 118 -9 118 -9 69 37.5 c 128,-1,20
 20 84 20 84 20 162 c 0,21,22
 20 241 20 241 73.5 283.5 c 128,-1,23
 127 326 127 326 230 327 c 2,24,-1
 363 327 l 1,25,-1
 363 329 l 2,26,27
 363 363 363 363 339 382 c 128,-1,28
 315 401 315 401 269 401 c 0,29,30
 236 401 236 401 192.5 391 c 128,-1,31
 149 381 149 381 105 362 c 1,32,-1
 55 496 l 1,33,34
 193 552 193 552 317 552 c 0,35,36
 432 552 432 552 496.5 499.5 c 128,-1,37
 561 447 561 447 561 353 c 2,38,-1
 561 0 l 1,39,-1
 516 0 l 1,40,0
 481 -26 481 -26 462 -48.5 c 128,-1,1
327 138 m 128,-1,42
 352 153 352 153 363 179 c 1,43,-1
 363 228 l 1,44,-1
 271 228 l 2,45,46
 210 228 210 228 210 177 c 0,47,48
 210 151 210 151 226 137 c 128,-1,49
 242 123 242 123 271 123 c 0,50,41
 302 123 302 123 327 138 c 128,-1,42
EndSplineSet
Substitution2: "<3,3> Small Caps in Latin lookup 11 subtable" aogonek.sc
EndChar

StartChar: Dcroat
Encoding: 272 272 211
Width: 762
Flags: W
LayerCount: 2
Fore
SplineSet
563.5 657.5 m 128,-1,1
 649 614 649 614 696 534.5 c 128,-1,2
 743 455 743 455 743 351 c 256,3,4
 743 247 743 247 695 167 c 128,-1,5
 647 87 647 87 560 43.5 c 128,-1,6
 473 0 473 0 359 0 c 2,7,-1
 59 0 l 1,8,-1
 59 305 l 1,9,-1
 -5 305 l 1,10,-1
 -5 396 l 1,11,-1
 59 396 l 1,12,-1
 59 701 l 1,13,-1
 366 701 l 2,14,0
 478 701 478 701 563.5 657.5 c 128,-1,1
487 214 m 128,-1,16
 531 265 531 265 531 349 c 256,17,18
 531 433 531 433 484 485 c 128,-1,19
 437 537 437 537 362 537 c 2,20,-1
 267 537 l 1,21,-1
 267 396 l 1,22,-1
 414 396 l 1,23,-1
 414 305 l 1,24,-1
 267 305 l 1,25,-1
 267 163 l 1,26,-1
 372 163 l 2,27,15
 443 163 443 163 487 214 c 128,-1,16
EndSplineSet
EndChar

StartChar: dcroat
Encoding: 273 273 212
Width: 688
Flags: W
LayerCount: 2
Fore
SplineSet
684 572 m 1,0,-1
 622 572 l 1,1,-1
 622 -1 l 1,2,-1
 420 -1 l 1,3,-1
 420 59 l 1,4,5
 362 -7 362 -7 270 -7 c 0,6,7
 195 -7 195 -7 138 25.5 c 128,-1,8
 81 58 81 58 50 117.5 c 128,-1,9
 19 177 19 177 19 256 c 0,10,11
 19 333 19 333 49.5 391.5 c 128,-1,12
 80 450 80 450 135.5 481.5 c 128,-1,13
 191 513 191 513 265 513 c 0,14,15
 361 513 361 513 420 446 c 1,16,-1
 420 572 l 1,17,-1
 259 572 l 1,18,-1
 259 665 l 1,19,-1
 420 665 l 1,20,-1
 420 742 l 1,21,-1
 622 742 l 1,22,-1
 622 665 l 1,23,-1
 684 665 l 1,24,-1
 684 572 l 1,0,-1
393 176 m 128,-1,26
 420 204 420 204 420 251 c 0,27,28
 420 297 420 297 393 325 c 128,-1,29
 366 353 366 353 322 353 c 0,30,31
 277 353 277 353 250 325 c 128,-1,32
 223 297 223 297 223 251 c 0,33,34
 223 204 223 204 250 176 c 128,-1,35
 277 148 277 148 322 148 c 0,36,25
 366 148 366 148 393 176 c 128,-1,26
EndSplineSet
Substitution2: "<3,3> Small Caps in Latin lookup 11 subtable" dcroat.sc
EndChar

StartChar: Eogonek
Encoding: 280 280 219
Width: 683
Flags: W
LayerCount: 2
Fore
SplineSet
647 -215 m 1,0,1
 596 -238 596 -238 545 -238 c 0,2,3
 490 -238 490 -238 460.5 -207 c 128,-1,4
 431 -176 431 -176 431 -127 c 0,5,6
 431 -62 431 -62 485 0 c 1,7,-1
 59 0 l 1,8,-1
 59 701 l 1,9,-1
 632 701 l 1,10,-1
 632 541 l 1,11,-1
 267 541 l 1,12,-1
 267 431 l 1,13,-1
 598 431 l 1,14,-1
 598 271 l 1,15,-1
 267 271 l 1,16,-1
 267 160 l 1,17,-1
 642 160 l 1,18,-1
 642 0 l 1,19,20
 607 -26 607 -26 588 -48.5 c 128,-1,21
 569 -71 569 -71 569 -94 c 0,22,23
 569 -120 569 -120 591 -120 c 0,24,25
 603 -120 603 -120 617 -112 c 1,26,-1
 647 -215 l 1,0,1
EndSplineSet
EndChar

StartChar: eogonek
Encoding: 281 281 220
Width: 609
Flags: W
LayerCount: 2
Fore
SplineSet
515 471.5 m 128,-1,1
 590 392 590 392 590 254 c 0,2,3
 590 233 590 233 589 223 c 1,4,-1
 223 223 l 1,5,6
 235 184 235 184 262.5 163 c 128,-1,7
 290 142 290 142 329 142 c 0,8,9
 392 142 392 142 449 194 c 1,10,-1
 554 91 l 1,11,12
 545 81 545 81 525 63 c 0,13,14
 484 26 484 26 459 -16.5 c 128,-1,15
 434 -59 434 -59 434 -91 c 0,16,17
 434 -120 434 -120 454 -120 c 0,18,19
 468 -120 468 -120 482 -112 c 1,20,-1
 512 -215 l 1,21,22
 459 -238 459 -238 413 -238 c 0,23,24
 361 -238 361 -238 328 -210 c 128,-1,25
 295 -182 295 -182 295 -128 c 0,26,27
 295 -95 295 -95 308.5 -65.5 c 128,-1,28
 322 -36 322 -36 351 -5 c 1,29,30
 325 -7 325 -7 312 -7 c 0,31,32
 222 -7 222 -7 156 27.5 c 128,-1,33
 90 62 90 62 54.5 124.5 c 128,-1,34
 19 187 19 187 19 270 c 0,35,36
 19 354 19 354 55 417.5 c 128,-1,37
 91 481 91 481 156 516 c 128,-1,38
 221 551 221 551 306 551 c 0,39,0
 440 551 440 551 515 471.5 c 128,-1,1
368 388 m 128,-1,41
 345 414 345 414 308 414 c 0,42,43
 273 414 273 414 250 389 c 128,-1,44
 227 364 227 364 219 322 c 1,45,-1
 390 322 l 1,46,40
 391 362 391 362 368 388 c 128,-1,41
EndSplineSet
Substitution2: "<3,3> Small Caps in Latin lookup 11 subtable" eogonek.sc
EndChar

StartChar: Hbar
Encoding: 294 294 233
Width: 863
Flags: W
LayerCount: 2
Fore
SplineSet
854 607 m 1,0,-1
 854 515 l 1,1,-1
 763 515 l 1,2,-1
 763 0 l 1,3,-1
 555 0 l 1,4,-1
 555 261 l 1,5,-1
 306 261 l 1,6,-1
 306 0 l 1,7,-1
 98 0 l 1,8,-1
 98 515 l 1,9,-1
 5 515 l 1,10,-1
 5 607 l 1,11,-1
 98 607 l 1,12,-1
 98 701 l 1,13,-1
 306 701 l 1,14,-1
 306 607 l 1,15,-1
 555 607 l 1,16,-1
 555 701 l 1,17,-1
 763 701 l 1,18,-1
 763 607 l 1,19,-1
 854 607 l 1,0,-1
555 421 m 1,20,-1
 555 515 l 1,21,-1
 306 515 l 1,22,-1
 306 421 l 1,23,-1
 555 421 l 1,20,-1
EndSplineSet
EndChar

StartChar: hbar
Encoding: 295 295 234
Width: 683
Flags: W
LayerCount: 2
Fore
SplineSet
583 456.5 m 128,-1,1
 637 400 637 400 637 305 c 2,2,-1
 637 0 l 1,3,-1
 435 0 l 1,4,-1
 435 248 l 2,5,6
 435 288 435 288 414 311.5 c 128,-1,7
 393 335 393 335 357 335 c 0,8,9
 316 335 316 335 292 306 c 128,-1,10
 268 277 268 277 268 229 c 2,11,-1
 268 0 l 1,12,-1
 66 0 l 1,13,-1
 66 572 l 1,14,-1
 4 572 l 1,15,-1
 4 665 l 1,16,-1
 66 665 l 1,17,-1
 66 742 l 1,18,-1
 268 742 l 1,19,-1
 268 665 l 1,20,-1
 430 665 l 1,21,-1
 430 572 l 1,22,-1
 268 572 l 1,23,-1
 268 421 l 1,24,25
 297 466 297 466 341 489.5 c 128,-1,26
 385 513 385 513 441 513 c 0,27,0
 529 513 529 513 583 456.5 c 128,-1,1
EndSplineSet
Substitution2: "<3,3> Small Caps in Latin lookup 11 subtable" hbar.sc
EndChar

StartChar: Iogonek
Encoding: 302 302 241
Width: 326
Flags: W
LayerCount: 2
Fore
SplineSet
159 -48.5 m 128,-1,1
 140 -71 140 -71 140 -94 c 0,2,3
 140 -120 140 -120 162 -120 c 0,4,5
 174 -120 174 -120 188 -112 c 1,6,-1
 218 -215 l 1,7,8
 167 -238 167 -238 116 -238 c 0,9,10
 61 -238 61 -238 31.5 -207 c 128,-1,11
 2 -176 2 -176 2 -127 c 0,12,13
 2 -60 2 -60 59 3 c 1,14,-1
 59 701 l 1,15,-1
 267 701 l 1,16,-1
 267 0 l 1,17,-1
 213 0 l 1,18,0
 178 -26 178 -26 159 -48.5 c 128,-1,1
EndSplineSet
EndChar

StartChar: iogonek
Encoding: 303 303 242
Width: 324
Flags: W
LayerCount: 2
Fore
SplineSet
85.5 624 m 128,-1,1
 56 653 56 653 56 699 c 256,2,3
 56 745 56 745 85.5 774 c 128,-1,4
 115 803 115 803 161 803 c 256,5,6
 207 803 207 803 236 774 c 128,-1,7
 265 745 265 745 265 699 c 256,8,9
 265 653 265 653 236 624 c 128,-1,10
 207 595 207 595 161 595 c 256,11,0
 115 595 115 595 85.5 624 c 128,-1,1
61 544 m 1,12,-1
 263 544 l 1,13,-1
 263 0 l 1,14,-1
 216 0 l 1,15,16
 181 -26 181 -26 162 -48.5 c 128,-1,17
 143 -71 143 -71 143 -94 c 0,18,19
 143 -120 143 -120 165 -120 c 0,20,21
 177 -120 177 -120 191 -112 c 1,22,-1
 221 -215 l 1,23,24
 170 -238 170 -238 119 -238 c 0,25,26
 64 -238 64 -238 34.5 -207 c 128,-1,27
 5 -176 5 -176 5 -127 c 0,28,29
 5 -60 5 -60 61 2 c 1,30,-1
 61 544 l 1,12,-1
EndSplineSet
Substitution2: "<3,3> Small Caps in Latin lookup 11 subtable" iogonek.sc
EndChar

StartChar: dotlessi
Encoding: 305 305 244
Width: 324
Flags: W
LayerCount: 2
Fore
SplineSet
61 544 m 1,0,-1
 263 544 l 1,1,-1
 263 0 l 1,2,-1
 61 0 l 1,3,-1
 61 544 l 1,0,-1
EndSplineSet
Substitution2: "<3,3> Small Caps in Latin lookup 11 subtable" dotlessi.sc
EndChar

StartChar: kgreenlandic
Encoding: 312 312 251
Width: 641
Flags: W
LayerCount: 2
Fore
SplineSet
640 544 m 1,0,-1
 441 334 l 1,1,-1
 640 0 l 1,2,-1
 401 0 l 1,3,-1
 303 188 l 1,4,-1
 263 147 l 1,5,-1
 263 0 l 1,6,-1
 61 0 l 1,7,-1
 61 544 l 1,8,-1
 263 544 l 1,9,-1
 263 370 l 1,10,-1
 411 544 l 1,11,-1
 640 544 l 1,0,-1
EndSplineSet
Substitution2: "<3,3> Small Caps in Latin lookup 11 subtable" kgreenlandic.sc
EndChar

StartChar: Lslash
Encoding: 321 321 260
Width: 624
Flags: W
LayerCount: 2
Fore
SplineSet
317 174 m 1,0,-1
 611 174 l 1,1,-1
 611 0 l 1,2,-1
 109 0 l 1,3,-1
 109 296 l 1,4,-1
 17 249 l 1,5,-1
 17 357 l 1,6,-1
 109 404 l 1,7,-1
 109 701 l 1,8,-1
 317 701 l 1,9,-1
 317 510 l 1,10,-1
 423 564 l 1,11,-1
 423 456 l 1,12,-1
 317 402 l 1,13,-1
 317 174 l 1,0,-1
EndSplineSet
EndChar

StartChar: lslash
Encoding: 322 322 261
Width: 435
Flags: W
LayerCount: 2
Fore
SplineSet
419 555 m 1,0,-1
 419 446 l 1,1,-1
 317 394 l 1,2,-1
 317 0 l 1,3,-1
 115 0 l 1,4,-1
 115 291 l 1,5,-1
 13 239 l 1,6,-1
 13 348 l 1,7,-1
 115 400 l 1,8,-1
 115 742 l 1,9,-1
 317 742 l 1,10,-1
 317 503 l 1,11,-1
 419 555 l 1,0,-1
EndSplineSet
Substitution2: "<3,3> Small Caps in Latin lookup 11 subtable" lslash.sc
EndChar

StartChar: Eng
Encoding: 330 330 269
Width: 783
Flags: W
LayerCount: 2
Fore
SplineSet
724 701 m 1,0,-1
 724 0 l 1,1,2
 719 -104 719 -104 651 -162 c 128,-1,3
 583 -220 583 -220 470 -220 c 0,4,5
 372 -220 372 -220 295 -172 c 1,6,-1
 366 -16 l 1,7,8
 427 -45 427 -45 470 -45 c 0,9,10
 530 -45 530 -45 536 14 c 1,11,-1
 250 390 l 1,12,-1
 250 0 l 1,13,-1
 59 0 l 1,14,-1
 59 701 l 1,15,-1
 237 701 l 1,16,-1
 534 309 l 1,17,-1
 534 701 l 1,18,-1
 724 701 l 1,0,-1
EndSplineSet
EndChar

StartChar: eng
Encoding: 331 331 270
Width: 678
Flags: W
LayerCount: 2
Fore
SplineSet
538.5 526.5 m 128,-1,1
 583 501 583 501 607.5 454 c 128,-1,2
 632 407 632 407 632 345 c 2,3,-1
 632 -21 l 2,4,5
 632 -104 632 -104 575 -153 c 128,-1,6
 518 -202 518 -202 427 -202 c 0,7,8
 340 -202 340 -202 277 -168 c 1,9,-1
 324 -28 l 1,10,11
 355 -45 355 -45 382 -45 c 0,12,13
 404 -45 404 -45 417 -32 c 128,-1,14
 430 -19 430 -19 430 7 c 2,15,-1
 430 287 l 2,16,17
 430 327 430 327 408.5 351 c 128,-1,18
 387 375 387 375 352 375 c 0,19,20
 311 374 311 374 287 345 c 128,-1,21
 263 316 263 316 263 269 c 2,22,-1
 263 0 l 1,23,-1
 61 0 l 1,24,-1
 61 544 l 1,25,-1
 263 544 l 1,26,-1
 263 460 l 1,27,28
 292 505 292 505 335.5 528.5 c 128,-1,29
 379 552 379 552 436 552 c 0,30,0
 494 552 494 552 538.5 526.5 c 128,-1,1
EndSplineSet
Substitution2: "<3,3> Small Caps in Latin lookup 11 subtable" eng.sc
EndChar

StartChar: OE
Encoding: 338 338 277
Width: 1121
Flags: W
LayerCount: 2
Fore
SplineSet
1080 160 m 1,0,-1
 1080 0 l 1,1,-1
 400 0 l 2,2,3
 292 0 292 0 205 45 c 128,-1,4
 118 90 118 90 68.5 170 c 128,-1,5
 19 250 19 250 19 349 c 256,6,7
 19 448 19 448 68.5 528.5 c 128,-1,8
 118 609 118 609 205 655 c 128,-1,9
 292 701 292 701 400 701 c 2,10,-1
 1070 701 l 1,11,-1
 1070 541 l 1,12,-1
 705 541 l 1,13,-1
 705 431 l 1,14,-1
 1036 431 l 1,15,-1
 1036 271 l 1,16,-1
 705 271 l 1,17,-1
 705 160 l 1,18,-1
 1080 160 l 1,0,-1
497 167 m 1,19,-1
 497 532 l 1,20,-1
 400 532 l 2,21,22
 353 532 353 532 314.5 508 c 128,-1,23
 276 484 276 484 254 442 c 128,-1,24
 232 400 232 400 232 348 c 256,25,26
 232 296 232 296 254 254.5 c 128,-1,27
 276 213 276 213 314.5 189.5 c 128,-1,28
 353 166 353 166 400 166 c 2,29,-1
 497 167 l 1,19,-1
EndSplineSet
EndChar

StartChar: oe
Encoding: 339 339 278
Width: 1008
Flags: W
LayerCount: 2
Fore
SplineSet
854 514.5 m 128,-1,1
 919 478 919 478 954 410.5 c 128,-1,2
 989 343 989 343 989 253 c 2,3,-1
 988 227 l 1,4,-1
 614 227 l 1,5,6
 626 186 626 186 654.5 164 c 128,-1,7
 683 142 683 142 724 142 c 0,8,9
 788 142 788 142 845 194 c 1,10,-1
 950 91 l 1,11,12
 907 43 907 43 845 18 c 128,-1,13
 783 -7 783 -7 706 -7 c 0,14,15
 643 -7 643 -7 595 13.5 c 128,-1,16
 547 34 547 34 516 72 c 1,17,18
 446 -7 446 -7 322 -7 c 0,19,20
 231 -7 231 -7 162.5 27.5 c 128,-1,21
 94 62 94 62 56.5 125.5 c 128,-1,22
 19 189 19 189 19 272 c 0,23,24
 19 356 19 356 56.5 419 c 128,-1,25
 94 482 94 482 162.5 516.5 c 128,-1,26
 231 551 231 551 322 551 c 0,27,28
 448 551 448 551 517 471 c 1,29,30
 583 551 583 551 701 551 c 0,31,0
 789 551 789 551 854 514.5 c 128,-1,1
764 388.5 m 128,-1,33
 741 415 741 415 703 415 c 0,34,35
 667 415 667 415 643 389.5 c 128,-1,36
 619 364 619 364 611 322 c 1,37,-1
 786 322 l 1,38,32
 787 362 787 362 764 388.5 c 128,-1,33
393 182 m 128,-1,40
 420 215 420 215 420 270 c 0,41,42
 420 324 420 324 393 357.5 c 128,-1,43
 366 391 366 391 322 391 c 0,44,45
 277 391 277 391 250 357.5 c 128,-1,46
 223 324 223 324 223 270 c 0,47,48
 223 215 223 215 250 182 c 128,-1,49
 277 149 277 149 322 149 c 0,50,39
 366 149 366 149 393 182 c 128,-1,40
EndSplineSet
Substitution2: "<3,3> Small Caps in Latin lookup 11 subtable" oe.sc
EndChar

StartChar: Scedilla
Encoding: 350 350 289
Width: 655
Flags: W
LayerCount: 2
Fore
SplineSet
302 469.5 m 128,-1,1
 332 454 332 454 397 436 c 0,2,3
 471 415 471 415 519 393.5 c 128,-1,4
 567 372 567 372 602.5 328 c 128,-1,5
 638 284 638 284 638 212 c 0,6,7
 638 114 638 114 571 57.5 c 128,-1,8
 504 1 504 1 396 -10 c 1,9,-1
 379 -57 l 1,10,11
 462 -78 462 -78 462 -139 c 0,12,13
 462 -189 462 -189 423.5 -214 c 128,-1,14
 385 -239 385 -239 329 -239 c 0,15,16
 272 -239 272 -239 215 -219 c 1,17,-1
 243 -134 l 1,18,19
 263 -142 263 -142 291 -142 c 0,20,21
 309 -142 309 -142 320.5 -136.5 c 128,-1,22
 332 -131 332 -131 332 -122 c 0,23,24
 332 -111 332 -111 316 -105 c 128,-1,25
 300 -99 300 -99 276 -99 c 2,26,-1
 256 -99 l 1,27,-1
 285 -8 l 1,28,29
 210 1 210 1 138 30 c 128,-1,30
 66 59 66 59 12 102 c 1,31,-1
 90 260 l 1,32,33
 143 214 143 214 219.5 182.5 c 128,-1,34
 296 151 296 151 351 151 c 0,35,36
 385 151 385 151 404 164 c 128,-1,37
 423 177 423 177 423 201 c 0,38,39
 423 230 423 230 392 245.5 c 128,-1,40
 361 261 361 261 296 278 c 0,41,42
 223 297 223 297 175 317.5 c 128,-1,43
 127 338 127 338 92 381 c 128,-1,44
 57 424 57 424 57 494 c 0,45,46
 57 562 57 562 93 612.5 c 128,-1,47
 129 663 129 663 194.5 690 c 128,-1,48
 260 717 260 717 347 717 c 0,49,50
 426 717 426 717 504 694.5 c 128,-1,51
 582 672 582 672 640 635 c 1,52,-1
 563 475 l 1,53,54
 507 508 507 508 440 531 c 128,-1,55
 373 554 373 554 330 554 c 0,56,57
 303 554 303 554 287.5 543.5 c 128,-1,58
 272 533 272 533 272 513 c 0,59,0
 272 485 272 485 302 469.5 c 128,-1,1
EndSplineSet
EndChar

StartChar: scedilla
Encoding: 351 351 290
Width: 535
Flags: W
LayerCount: 2
Fore
SplineSet
245.5 366.5 m 128,-1,1
 266 357 266 357 311 345 c 0,2,3
 371 328 371 328 410.5 311 c 128,-1,4
 450 294 450 294 479.5 259.5 c 128,-1,5
 509 225 509 225 509 171 c 0,6,7
 509 99 509 99 459.5 52.5 c 128,-1,8
 410 6 410 6 325 -5 c 1,9,-1
 306 -57 l 1,10,11
 389 -78 389 -78 389 -139 c 0,12,13
 389 -189 389 -189 350.5 -214 c 128,-1,14
 312 -239 312 -239 256 -239 c 0,15,16
 199 -239 199 -239 142 -219 c 1,17,-1
 170 -134 l 1,18,19
 190 -142 190 -142 218 -142 c 0,20,21
 236 -142 236 -142 247.5 -136.5 c 128,-1,22
 259 -131 259 -131 259 -122 c 0,23,24
 259 -111 259 -111 243 -105 c 128,-1,25
 227 -99 227 -99 203 -99 c 2,26,-1
 183 -99 l 1,27,-1
 213 -6 l 1,28,29
 100 6 100 6 14 68 c 1,30,-1
 76 195 l 1,31,32
 127 162 127 162 177.5 145 c 128,-1,33
 228 128 228 128 273 128 c 0,34,35
 294 128 294 128 306 134.5 c 128,-1,36
 318 141 318 141 318 153 c 0,37,38
 318 168 318 168 298.5 177.5 c 128,-1,39
 279 187 279 187 234 199 c 0,40,41
 176 215 176 215 137 232 c 128,-1,42
 98 249 98 249 69 283 c 128,-1,43
 40 317 40 317 40 371 c 0,44,45
 40 455 40 455 104 504 c 128,-1,46
 168 553 168 553 272 553 c 0,47,48
 397 553 397 553 511 487 c 1,49,-1
 444 360 l 1,50,51
 333 417 333 417 266 417 c 0,52,53
 247 417 247 417 236 410.5 c 128,-1,54
 225 404 225 404 225 391 c 0,55,0
 225 376 225 376 245.5 366.5 c 128,-1,1
EndSplineSet
Substitution2: "<3,3> Small Caps in Latin lookup 11 subtable" scedilla.sc
EndChar

StartChar: uni0162
Encoding: 354 354 293
Width: 628
Flags: W
LayerCount: 2
Fore
SplineSet
375 0 m 1,0,-1
 354 -57 l 1,1,2
 437 -78 437 -78 437 -139 c 0,3,4
 437 -189 437 -189 398.5 -214 c 128,-1,5
 360 -239 360 -239 304 -239 c 0,6,7
 247 -239 247 -239 190 -219 c 1,8,-1
 218 -134 l 1,9,10
 238 -142 238 -142 266 -142 c 0,11,12
 284 -142 284 -142 295.5 -136.5 c 128,-1,13
 307 -131 307 -131 307 -122 c 0,14,15
 307 -111 307 -111 291 -105 c 128,-1,16
 275 -99 275 -99 251 -99 c 2,17,-1
 231 -99 l 1,18,-1
 263 0 l 1,19,-1
 209 0 l 1,20,-1
 209 535 l 1,21,-1
 6 535 l 1,22,-1
 6 701 l 1,23,-1
 622 701 l 1,24,-1
 622 535 l 1,25,-1
 418 535 l 1,26,-1
 418 0 l 1,27,-1
 375 0 l 1,0,-1
EndSplineSet
EndChar

StartChar: uni0163
Encoding: 355 355 294
Width: 449
Flags: W
LayerCount: 2
Fore
SplineSet
399 -139 m 0,1,2
 399 -189 399 -189 360.5 -214 c 128,-1,3
 322 -239 322 -239 266 -239 c 0,4,5
 209 -239 209 -239 152 -219 c 1,6,-1
 180 -134 l 1,7,8
 200 -142 200 -142 228 -142 c 0,9,10
 246 -142 246 -142 257.5 -136.5 c 128,-1,11
 269 -131 269 -131 269 -122 c 0,12,13
 269 -111 269 -111 253 -105 c 128,-1,14
 237 -99 237 -99 213 -99 c 2,15,-1
 193 -99 l 1,16,-1
 224 -3 l 1,17,18
 161 11 161 11 124.5 56 c 128,-1,19
 88 101 88 101 88 170 c 2,20,-1
 88 387 l 1,21,-1
 13 387 l 1,22,-1
 13 516 l 1,23,-1
 88 516 l 1,24,-1
 88 667 l 1,25,-1
 289 667 l 1,26,-1
 289 516 l 1,27,-1
 423 516 l 1,28,-1
 423 387 l 1,29,-1
 289 387 l 1,30,-1
 289 201 l 2,31,32
 289 175 289 175 301 162 c 128,-1,33
 313 149 313 149 335 149 c 0,34,35
 354 149 354 149 397 165 c 1,36,-1
 433 26 l 1,37,38
 393 3 393 3 335 -5 c 1,39,-1
 316 -57 l 1,40,0
 399 -78 399 -78 399 -139 c 0,1,2
EndSplineSet
Substitution2: "<3,3> Small Caps in Latin lookup 11 subtable" uni0163.sc
EndChar

StartChar: Tbar
Encoding: 358 358 297
Width: 628
Flags: W
LayerCount: 2
Fore
SplineSet
622 535 m 1,0,-1
 418 535 l 1,1,-1
 418 359 l 1,2,-1
 536 359 l 1,3,-1
 536 251 l 1,4,-1
 418 251 l 1,5,-1
 418 0 l 1,6,-1
 209 0 l 1,7,-1
 209 251 l 1,8,-1
 89 251 l 1,9,-1
 89 359 l 1,10,-1
 209 359 l 1,11,-1
 209 535 l 1,12,-1
 6 535 l 1,13,-1
 6 701 l 1,14,-1
 622 701 l 1,15,-1
 622 535 l 1,0,-1
EndSplineSet
EndChar

StartChar: tbar
Encoding: 359 359 298
Width: 449
Flags: W
LayerCount: 2
Fore
SplineSet
433 26 m 1,0,1
 404 10 404 10 362.5 0.5 c 128,-1,2
 321 -9 321 -9 279 -9 c 0,3,4
 192 -9 192 -9 140 39 c 128,-1,5
 88 87 88 87 88 170 c 2,6,-1
 88 236 l 1,7,-1
 13 236 l 1,8,-1
 13 345 l 1,9,-1
 88 345 l 1,10,-1
 88 406 l 1,11,-1
 13 406 l 1,12,-1
 13 516 l 1,13,-1
 88 516 l 1,14,-1
 88 667 l 1,15,-1
 289 667 l 1,16,-1
 289 516 l 1,17,-1
 423 516 l 1,18,-1
 423 406 l 1,19,-1
 289 406 l 1,20,-1
 289 345 l 1,21,-1
 423 345 l 1,22,-1
 423 236 l 1,23,-1
 289 236 l 1,24,-1
 289 201 l 2,25,26
 289 175 289 175 301 162 c 128,-1,27
 313 149 313 149 335 149 c 0,28,29
 354 149 354 149 397 165 c 1,30,-1
 433 26 l 1,0,1
EndSplineSet
Substitution2: "<3,3> Small Caps in Latin lookup 11 subtable" tbar.sc
EndChar

StartChar: Uogonek
Encoding: 370 370 309
Width: 745
Flags: W
LayerCount: 2
Fore
SplineSet
697 701 m 1,0,-1
 697 290 l 2,1,2
 697 214 697 214 669.5 153 c 128,-1,3
 642 92 642 92 591 52 c 1,4,5
 554 16 554 16 532.5 -22.5 c 128,-1,6
 511 -61 511 -61 511 -91 c 0,7,8
 511 -120 511 -120 531 -120 c 0,9,10
 545 -120 545 -120 559 -112 c 1,11,-1
 589 -215 l 1,12,13
 536 -238 536 -238 490 -238 c 0,14,15
 438 -238 438 -238 405 -210 c 128,-1,16
 372 -182 372 -182 372 -128 c 0,17,18
 372 -68 372 -68 422 -12 c 1,19,20
 392 -14 392 -14 375 -14 c 0,21,22
 277 -14 277 -14 203 23.5 c 128,-1,23
 129 61 129 61 88.5 129.5 c 128,-1,24
 48 198 48 198 48 290 c 2,25,-1
 48 701 l 1,26,-1
 256 701 l 1,27,-1
 256 290 l 2,28,29
 256 231 256 231 290 195 c 128,-1,30
 324 159 324 159 375 159 c 0,31,32
 425 159 425 159 457 194.5 c 128,-1,33
 489 230 489 230 489 290 c 2,34,-1
 489 701 l 1,35,-1
 697 701 l 1,0,-1
EndSplineSet
EndChar

StartChar: uogonek
Encoding: 371 371 310
Width: 668
Flags: W
LayerCount: 2
Fore
SplineSet
504 -48.5 m 128,-1,1
 485 -71 485 -71 485 -94 c 0,2,3
 485 -120 485 -120 507 -120 c 0,4,5
 519 -120 519 -120 533 -112 c 1,6,-1
 563 -215 l 1,7,8
 512 -238 512 -238 461 -238 c 0,9,10
 406 -238 406 -238 376.5 -207 c 128,-1,11
 347 -176 347 -176 347 -127 c 0,12,13
 347 -58 347 -58 405 4 c 1,14,-1
 405 81 l 1,15,16
 377 37 377 37 334.5 14 c 128,-1,17
 292 -9 292 -9 238 -9 c 0,18,19
 181 -9 181 -9 137.5 16.5 c 128,-1,20
 94 42 94 42 70 89 c 128,-1,21
 46 136 46 136 46 199 c 2,22,-1
 46 544 l 1,23,-1
 248 544 l 1,24,-1
 248 256 l 2,25,26
 248 216 248 216 268 192.5 c 128,-1,27
 288 169 288 169 321 169 c 0,28,29
 360 170 360 170 382.5 199 c 128,-1,30
 405 228 405 228 405 275 c 2,31,-1
 405 544 l 1,32,-1
 607 544 l 1,33,-1
 607 0 l 1,34,-1
 558 0 l 1,35,0
 523 -26 523 -26 504 -48.5 c 128,-1,1
EndSplineSet
Substitution2: "<3,3> Small Caps in Latin lookup 11 subtable" uogonek.sc
EndChar

StartChar: uni018F
Encoding: 399 399 322
Width: 796
Flags: W
LayerCount: 2
Fore
SplineSet
202.5 36.5 m 128,-1,1
 118 87 118 87 72 179.5 c 128,-1,2
 26 272 26 272 26 394 c 1,3,-1
 552 394 l 1,4,5
 541 460 541 460 499.5 500.5 c 128,-1,6
 458 541 458 541 401 541 c 0,7,8
 356 541 356 541 317.5 517 c 128,-1,9
 279 493 279 493 256 452 c 1,10,-1
 112 598 l 1,11,12
 165 654 165 654 237.5 684 c 128,-1,13
 310 714 310 714 398 714 c 0,14,15
 504 714 504 714 588.5 667 c 128,-1,16
 673 620 673 620 721 537.5 c 128,-1,17
 769 455 769 455 769 352 c 0,18,19
 769 248 769 248 721 164.5 c 128,-1,20
 673 81 673 81 588 33.5 c 128,-1,21
 503 -14 503 -14 398 -14 c 0,22,0
 287 -14 287 -14 202.5 36.5 c 128,-1,1
492 189.5 m 128,-1,24
 530 220 530 220 546 273 c 1,25,-1
 252 273 l 1,26,27
 270 220 270 220 309 189.5 c 128,-1,28
 348 159 348 159 401 159 c 256,29,23
 454 159 454 159 492 189.5 c 128,-1,24
EndSplineSet
EndChar

StartChar: florin
Encoding: 402 402 323
Width: 429
Flags: W
LayerCount: 2
Fore
SplineSet
335 580.5 m 128,-1,1
 318 566 318 566 315 540 c 2,2,-1
 306 466 l 1,3,-1
 419 466 l 1,4,-1
 403 338 l 1,5,-1
 290 338 l 1,6,-1
 246 -21 l 2,7,8
 235 -104 235 -104 175 -153.5 c 128,-1,9
 115 -203 115 -203 22 -203 c 0,10,11
 -14 -203 -14 -203 -50 -192.5 c 128,-1,12
 -86 -182 -86 -182 -110 -164 c 1,13,-1
 -60 -26 l 1,14,15
 -48 -35 -48 -35 -32 -40.5 c 128,-1,16
 -16 -46 -16 -46 -3 -46 c 0,17,18
 18 -46 18 -46 31.5 -31 c 128,-1,19
 45 -16 45 -16 49 10 c 2,20,-1
 89 338 l 1,21,-1
 15 338 l 1,22,-1
 31 466 l 1,23,-1
 105 466 l 1,24,-1
 118 570 l 2,25,26
 129 653 129 653 190.5 702.5 c 128,-1,27
 252 752 252 752 343 752 c 0,28,29
 387 752 387 752 431 741.5 c 128,-1,30
 475 731 475 731 504 713 c 1,31,-1
 437 575 l 1,32,33
 424 585 424 585 408 590 c 128,-1,34
 392 595 392 595 378 595 c 0,35,0
 352 595 352 595 335 580.5 c 128,-1,1
EndSplineSet
EndChar

StartChar: Ohorn
Encoding: 416 416 324
Width: 832
Flags: W
LayerCount: 2
Fore
SplineSet
813 742 m 0,1,2
 813 687 813 687 783 646 c 128,-1,3
 753 605 753 605 699 585 c 1,4,5
 739 538 739 538 761 478.5 c 128,-1,6
 783 419 783 419 783 352 c 0,7,8
 783 248 783 248 733.5 164.5 c 128,-1,9
 684 81 684 81 596.5 33.5 c 128,-1,10
 509 -14 509 -14 401 -14 c 0,11,12
 292 -14 292 -14 205 33.5 c 128,-1,13
 118 81 118 81 68.5 164.5 c 128,-1,14
 19 248 19 248 19 352 c 0,15,16
 19 455 19 455 68.5 537.5 c 128,-1,17
 118 620 118 620 205 667 c 128,-1,18
 292 714 292 714 401 714 c 0,19,20
 500 714 500 714 582 674 c 0,21,22
 594 672 594 672 601 672 c 0,23,24
 628 672 628 672 643.5 691 c 128,-1,25
 659 710 659 710 659 738 c 0,26,27
 659 771 659 771 638 801 c 1,28,-1
 784 854 l 1,29,0
 813 796 813 796 813 742 c 0,1,2
487.5 184.5 m 128,-1,31
 526 210 526 210 548 253.5 c 128,-1,32
 570 297 570 297 570 351 c 0,33,34
 570 404 570 404 548 447.5 c 128,-1,35
 526 491 526 491 488 516 c 128,-1,36
 450 541 450 541 404 541 c 256,37,38
 358 541 358 541 318.5 516 c 128,-1,39
 279 491 279 491 255.5 447.5 c 128,-1,40
 232 404 232 404 232 351 c 256,41,42
 232 298 232 298 255.5 254 c 128,-1,43
 279 210 279 210 318.5 184.5 c 128,-1,44
 358 159 358 159 404 159 c 0,45,30
 449 159 449 159 487.5 184.5 c 128,-1,31
EndSplineSet
EndChar

StartChar: ohorn
Encoding: 417 417 325
Width: 688
Flags: W
LayerCount: 2
Fore
SplineSet
711 585 m 0,1,2
 711 527 711 527 677 484 c 128,-1,3
 643 441 643 441 584 423 c 1,4,5
 624 358 624 358 624 272 c 0,6,7
 624 189 624 189 586.5 125.5 c 128,-1,8
 549 62 549 62 481 27.5 c 128,-1,9
 413 -7 413 -7 322 -7 c 256,10,11
 231 -7 231 -7 162.5 27.5 c 128,-1,12
 94 62 94 62 56.5 125.5 c 128,-1,13
 19 189 19 189 19 272 c 0,14,15
 19 356 19 356 56.5 419 c 128,-1,16
 94 482 94 482 162.5 516.5 c 128,-1,17
 231 551 231 551 322 551 c 0,18,19
 409 551 409 551 478 518 c 0,20,21
 488 515 488 515 499 515 c 0,22,23
 526 515 526 515 541.5 534 c 128,-1,24
 557 553 557 553 557 581 c 0,25,26
 557 614 557 614 536 644 c 1,27,-1
 682 697 l 1,28,0
 711 639 711 639 711 585 c 0,1,2
393 182 m 128,-1,30
 420 215 420 215 420 270 c 0,31,32
 420 324 420 324 393 357.5 c 128,-1,33
 366 391 366 391 322 391 c 0,34,35
 277 391 277 391 250 357.5 c 128,-1,36
 223 324 223 324 223 270 c 0,37,38
 223 215 223 215 250 182 c 128,-1,39
 277 149 277 149 322 149 c 0,40,29
 366 149 366 149 393 182 c 128,-1,30
EndSplineSet
Substitution2: "<3,3> Small Caps in Latin lookup 11 subtable" ohorn.sc
EndChar

StartChar: Uhorn
Encoding: 431 431 326
Width: 801
Flags: W
LayerCount: 2
Fore
SplineSet
824 751 m 0,1,2
 824 696 824 696 791.5 659.5 c 128,-1,3
 759 623 759 623 697 609 c 1,4,-1
 697 290 l 2,5,6
 697 198 697 198 657.5 129.5 c 128,-1,7
 618 61 618 61 545 23.5 c 128,-1,8
 472 -14 472 -14 375 -14 c 0,9,10
 277 -14 277 -14 203 23.5 c 128,-1,11
 129 61 129 61 88.5 129.5 c 128,-1,12
 48 198 48 198 48 290 c 2,13,-1
 48 701 l 1,14,-1
 256 701 l 1,15,-1
 256 290 l 2,16,17
 256 231 256 231 290 195 c 128,-1,18
 324 159 324 159 375 159 c 0,19,20
 425 159 425 159 457 194.5 c 128,-1,21
 489 230 489 230 489 290 c 2,22,-1
 489 701 l 1,23,-1
 624 701 l 2,24,25
 651 701 651 701 664.5 715.5 c 128,-1,26
 678 730 678 730 678 752 c 0,27,28
 678 778 678 778 661 802 c 1,29,-1
 801 854 l 1,30,0
 824 796 824 796 824 751 c 0,1,2
EndSplineSet
EndChar

StartChar: uhorn
Encoding: 432 432 327
Width: 698
Flags: W
LayerCount: 2
Fore
SplineSet
730 594 m 0,1,2
 730 540 730 540 698.5 504 c 128,-1,3
 667 468 667 468 607 453 c 1,4,-1
 607 0 l 1,5,-1
 405 0 l 1,6,-1
 405 81 l 1,7,8
 377 37 377 37 334.5 14 c 128,-1,9
 292 -9 292 -9 238 -9 c 0,10,11
 181 -9 181 -9 137.5 16.5 c 128,-1,12
 94 42 94 42 70 89 c 128,-1,13
 46 136 46 136 46 199 c 2,14,-1
 46 544 l 1,15,-1
 248 544 l 1,16,-1
 248 256 l 2,17,18
 248 216 248 216 268 192.5 c 128,-1,19
 288 169 288 169 321 169 c 0,20,21
 360 170 360 170 382.5 199 c 128,-1,22
 405 228 405 228 405 275 c 2,23,-1
 405 544 l 1,24,-1
 530 544 l 2,25,26
 557 544 557 544 570.5 558.5 c 128,-1,27
 584 573 584 573 584 595 c 0,28,29
 584 621 584 621 567 645 c 1,30,-1
 707 697 l 1,31,0
 730 642 730 642 730 594 c 0,1,2
EndSplineSet
Substitution2: "<3,3> Small Caps in Latin lookup 11 subtable" uhorn.sc
EndChar

StartChar: uni01EA
Encoding: 490 490 339
Width: 802
Flags: W
LayerCount: 2
Fore
SplineSet
740 176.5 m 128,-1,1
 697 97 697 97 621 48 c 1,2,3
 587 13 587 13 566.5 -24.5 c 128,-1,4
 546 -62 546 -62 546 -91 c 256,5,6
 546 -120 546 -120 566 -120 c 0,7,8
 580 -120 580 -120 594 -112 c 1,9,-1
 624 -215 l 1,10,11
 571 -238 571 -238 525 -238 c 0,12,13
 473 -238 473 -238 440 -210 c 128,-1,14
 407 -182 407 -182 407 -128 c 0,15,16
 407 -67 407 -67 458 -10 c 1,17,18
 433 -14 433 -14 401 -14 c 0,19,20
 292 -14 292 -14 205 33.5 c 128,-1,21
 118 81 118 81 68.5 164.5 c 128,-1,22
 19 248 19 248 19 352 c 0,23,24
 19 455 19 455 68.5 537.5 c 128,-1,25
 118 620 118 620 205 667 c 128,-1,26
 292 714 292 714 401 714 c 0,27,28
 509 714 509 714 596.5 667 c 128,-1,29
 684 620 684 620 733.5 537.5 c 128,-1,30
 783 455 783 455 783 352 c 0,31,0
 783 256 783 256 740 176.5 c 128,-1,1
255.5 254 m 128,-1,33
 279 210 279 210 318.5 184.5 c 128,-1,34
 358 159 358 159 404 159 c 0,35,36
 449 159 449 159 487.5 184.5 c 128,-1,37
 526 210 526 210 548 253.5 c 128,-1,38
 570 297 570 297 570 351 c 0,39,40
 570 404 570 404 548 447.5 c 128,-1,41
 526 491 526 491 488 516 c 128,-1,42
 450 541 450 541 404 541 c 256,43,44
 358 541 358 541 318.5 516 c 128,-1,45
 279 491 279 491 255.5 447.5 c 128,-1,46
 232 404 232 404 232 351 c 256,47,32
 232 298 232 298 255.5 254 c 128,-1,33
EndSplineSet
EndChar

StartChar: uni01EB
Encoding: 491 491 340
Width: 643
Flags: W
LayerCount: 2
Fore
SplineSet
601 153.5 m 128,-1,1
 578 100 578 100 535 63 c 0,2,3
 494 26 494 26 469 -16.5 c 128,-1,4
 444 -59 444 -59 444 -91 c 0,5,6
 444 -120 444 -120 464 -120 c 0,7,8
 478 -120 478 -120 492 -112 c 1,9,-1
 522 -215 l 1,10,11
 469 -238 469 -238 423 -238 c 0,12,13
 371 -238 371 -238 338 -210 c 128,-1,14
 305 -182 305 -182 305 -128 c 0,15,16
 305 -95 305 -95 318.5 -65.5 c 128,-1,17
 332 -36 332 -36 361 -5 c 1,18,19
 335 -7 335 -7 322 -7 c 0,20,21
 231 -7 231 -7 162.5 27.5 c 128,-1,22
 94 62 94 62 56.5 125.5 c 128,-1,23
 19 189 19 189 19 272 c 0,24,25
 19 356 19 356 56.5 419 c 128,-1,26
 94 482 94 482 162.5 516.5 c 128,-1,27
 231 551 231 551 322 551 c 256,28,29
 413 551 413 551 481 516.5 c 128,-1,30
 549 482 549 482 586.5 419 c 128,-1,31
 624 356 624 356 624 272 c 0,32,0
 624 207 624 207 601 153.5 c 128,-1,1
250 182 m 128,-1,34
 277 149 277 149 322 149 c 0,35,36
 366 149 366 149 393 182 c 128,-1,37
 420 215 420 215 420 270 c 0,38,39
 420 324 420 324 393 357.5 c 128,-1,40
 366 391 366 391 322 391 c 0,41,42
 277 391 277 391 250 357.5 c 128,-1,43
 223 324 223 324 223 270 c 0,44,33
 223 215 223 215 250 182 c 128,-1,34
EndSplineSet
Substitution2: "<3,3> Small Caps in Latin lookup 11 subtable" uni01EB.sc
EndChar

StartChar: uni0237
Encoding: 567 567 383
Width: 326
Flags: W
LayerCount: 2
Fore
SplineSet
17 -45 m 0,1,2
 65 -45 65 -45 65 12 c 2,3,-1
 65 544 l 1,4,-1
 267 544 l 1,5,-1
 267 -19 l 2,6,7
 267 -104 267 -104 212 -153 c 128,-1,8
 157 -202 157 -202 64 -202 c 0,9,10
 -6 -202 -6 -202 -64 -180 c 1,11,-1
 -25 -39 l 1,12,0
 3 -45 3 -45 17 -45 c 0,1,2
EndSplineSet
EndChar

StartChar: uni0259
Encoding: 601 601 384
Width: 609
Flags: W
LayerCount: 2
Fore
SplineSet
453 516.5 m 128,-1,1
 519 482 519 482 554.5 419.5 c 128,-1,2
 590 357 590 357 590 274 c 0,3,4
 590 190 590 190 554 126.5 c 128,-1,5
 518 63 518 63 453 28 c 128,-1,6
 388 -7 388 -7 303 -7 c 0,7,8
 169 -7 169 -7 94 72.5 c 128,-1,9
 19 152 19 152 19 290 c 0,10,11
 19 311 19 311 20 321 c 1,12,-1
 386 321 l 1,13,14
 374 360 374 360 346.5 381 c 128,-1,15
 319 402 319 402 280 402 c 0,16,17
 217 402 217 402 160 350 c 1,18,-1
 55 453 l 1,19,20
 98 501 98 501 159.5 526 c 128,-1,21
 221 551 221 551 297 551 c 0,22,0
 387 551 387 551 453 516.5 c 128,-1,1
359 155 m 128,-1,24
 382 180 382 180 390 222 c 1,25,-1
 219 222 l 1,26,27
 218 182 218 182 241 156 c 128,-1,28
 264 130 264 130 301 130 c 0,29,23
 336 130 336 130 359 155 c 128,-1,24
EndSplineSet
Substitution2: "<3,3> Small Caps in Latin lookup 11 subtable" uni0259.sc
EndChar

StartChar: uni02BB
Encoding: 699 699 385
Width: 248
Flags: W
LayerCount: 2
Fore
SplineSet
198 477 m 1,0,-1
 50 511 l 1,1,-1
 80 700 l 1,2,-1
 198 700 l 1,3,-1
 198 477 l 1,0,-1
EndSplineSet
EndChar

StartChar: uni02BC
Encoding: 700 700 386
Width: 231
Flags: W
LayerCount: 2
Fore
SplineSet
47 701 m 1,0,-1
 180 701 l 1,1,-1
 153 438 l 1,2,-1
 47 438 l 1,3,-1
 47 701 l 1,0,-1
EndSplineSet
EndChar

StartChar: uni02BE
Encoding: 702 702 387
Width: 219
Flags: W
LayerCount: 2
Fore
SplineSet
55 654 m 1,0,1
 74 654 74 654 87 667 c 128,-1,2
 100 680 100 680 100 699 c 256,3,4
 100 718 100 718 87 731 c 128,-1,5
 74 744 74 744 55 744 c 1,6,-1
 55 821 l 1,7,8
 106 821 106 821 142 785.5 c 128,-1,9
 178 750 178 750 178 699 c 256,10,11
 178 648 178 648 142 612.5 c 128,-1,12
 106 577 106 577 55 577 c 1,13,-1
 55 654 l 1,0,1
EndSplineSet
EndChar

StartChar: uni02BF
Encoding: 703 703 388
Width: 218
Flags: W
LayerCount: 2
Fore
SplineSet
163 654 m 1,0,1
 144 654 144 654 131 667 c 128,-1,2
 118 680 118 680 118 699 c 256,3,4
 118 718 118 718 131 731 c 128,-1,5
 144 744 144 744 163 744 c 1,6,-1
 163 821 l 1,7,8
 112 821 112 821 76 785.5 c 128,-1,9
 40 750 40 750 40 699 c 256,10,11
 40 648 40 648 76 612.5 c 128,-1,12
 112 577 112 577 163 577 c 1,13,-1
 163 654 l 1,0,1
EndSplineSet
EndChar

StartChar: uni02C8
Encoding: 712 712 391
Width: 171
Flags: W
LayerCount: 2
Fore
SplineSet
20 503 m 1,0,-1
 20 701 l 1,1,-1
 151 701 l 1,2,-1
 151 503 l 1,3,-1
 20 503 l 1,0,-1
EndSplineSet
EndChar

StartChar: uni02CC
Encoding: 716 716 395
Width: 174
Flags: W
LayerCount: 2
Fore
SplineSet
20 -228 m 1,0,-1
 20 -30 l 1,1,-1
 154 -30 l 1,2,-1
 154 -228 l 1,3,-1
 20 -228 l 1,0,-1
EndSplineSet
EndChar

StartChar: gravecomb
Encoding: 768 768 402
Width: 0
Flags: W
LayerCount: 2
Fore
SplineSet
-165 775 m 1,0,-1
 -56 605 l 1,1,-1
 -189 595 l 1,2,-1
 -324 717 l 1,3,-1
 -165 775 l 1,0,-1
EndSplineSet
Substitution2: "<3,3> Small Caps in Latin lookup 11 subtable" gravecomb.sc
EndChar

StartChar: acutecomb
Encoding: 769 769 403
Width: 0
Flags: W
LayerCount: 2
Fore
SplineSet
-173 775 m 1,0,-1
 -15 717 l 1,1,-1
 -168 595 l 1,2,-1
 -300 605 l 1,3,-1
 -173 775 l 1,0,-1
EndSplineSet
Substitution2: "<3,3> Small Caps in Latin lookup 11 subtable" acutecomb.sc
EndChar

StartChar: uni0302
Encoding: 770 770 404
Width: 0
Flags: W
LayerCount: 2
Fore
SplineSet
-18 609 m 1,0,-1
 -152 609 l 1,1,-1
 -214 678 l 1,2,-1
 -277 609 l 1,3,-1
 -411 609 l 1,4,-1
 -301 766 l 1,5,-1
 -128 766 l 1,6,-1
 -18 609 l 1,0,-1
EndSplineSet
Substitution2: "<3,3> Small Caps in Latin lookup 11 subtable" uni0302.sc
EndChar

StartChar: tildecomb
Encoding: 771 771 405
Width: 0
Flags: W
LayerCount: 2
Fore
SplineSet
-39.5 637 m 128,-1,1
 -64 596 -64 596 -118 596 c 0,2,3
 -142 596 -142 596 -162 603 c 128,-1,4
 -182 610 -182 610 -208 623 c 0,5,6
 -238 639 -238 639 -251 639 c 0,7,8
 -277 639 -277 639 -279 599 c 1,9,-1
 -388 599 l 1,10,11
 -388 683 -388 683 -363.5 724.5 c 128,-1,12
 -339 766 -339 766 -285 766 c 0,13,14
 -261 766 -261 766 -240.5 759 c 128,-1,15
 -220 752 -220 752 -193 739 c 0,16,17
 -182 733 -182 733 -171 728.5 c 128,-1,18
 -160 724 -160 724 -153 724 c 0,19,20
 -138 724 -138 724 -131 733.5 c 128,-1,21
 -124 743 -124 743 -123 763 c 1,22,-1
 -15 763 l 1,23,0
 -15 678 -15 678 -39.5 637 c 128,-1,1
EndSplineSet
Substitution2: "<3,3> Small Caps in Latin lookup 11 subtable" tildecomb.sc
EndChar

StartChar: uni0304
Encoding: 772 772 406
Width: 0
Flags: W
LayerCount: 2
Fore
SplineSet
-323 752 m 1,0,-1
 -8 752 l 1,1,-1
 -8 637 l 1,2,-1
 -323 637 l 1,3,-1
 -323 752 l 1,0,-1
EndSplineSet
Substitution2: "<3,3> Small Caps in Latin lookup 11 subtable" uni0304.sc
EndChar

StartChar: uni0306
Encoding: 774 774 407
Width: 0
Flags: W
LayerCount: 2
Fore
SplineSet
-226 726 m 128,-1,1
 -212 711 -212 711 -190 711 c 256,2,3
 -168 711 -168 711 -154 726 c 128,-1,4
 -140 741 -140 741 -138 765 c 1,5,-1
 -15 765 l 1,6,7
 -19 689 -19 689 -66.5 643.5 c 128,-1,8
 -114 598 -114 598 -190 598 c 256,9,10
 -266 598 -266 598 -313.5 643.5 c 128,-1,11
 -361 689 -361 689 -365 765 c 1,12,-1
 -242 765 l 1,13,0
 -240 741 -240 741 -226 726 c 128,-1,1
EndSplineSet
Substitution2: "<3,3> Small Caps in Latin lookup 11 subtable" uni0306.sc
EndChar

StartChar: uni0307
Encoding: 775 775 408
Width: 0
Flags: W
LayerCount: 2
Fore
SplineSet
-63 774 m 128,-1,1
 -34 745 -34 745 -34 699 c 256,2,3
 -34 653 -34 653 -63 624 c 128,-1,4
 -92 595 -92 595 -138 595 c 256,5,6
 -184 595 -184 595 -213.5 624 c 128,-1,7
 -243 653 -243 653 -243 699 c 256,8,9
 -243 745 -243 745 -213.5 774 c 128,-1,10
 -184 803 -184 803 -138 803 c 256,11,0
 -92 803 -92 803 -63 774 c 128,-1,1
EndSplineSet
Substitution2: "<3,3> Small Caps in Latin lookup 11 subtable" uni0307.sc
EndChar

StartChar: uni0308
Encoding: 776 776 409
Width: 0
Flags: W
LayerCount: 2
Fore
SplineSet
-283 750.5 m 128,-1,1
 -260 727 -260 727 -260 691 c 256,2,3
 -260 655 -260 655 -283 631.5 c 128,-1,4
 -306 608 -306 608 -342 608 c 256,5,6
 -378 608 -378 608 -401 631.5 c 128,-1,7
 -424 655 -424 655 -424 691 c 256,8,9
 -424 727 -424 727 -401 750.5 c 128,-1,10
 -378 774 -378 774 -342 774 c 256,11,0
 -306 774 -306 774 -283 750.5 c 128,-1,1
-86 750.5 m 128,-1,13
 -63 727 -63 727 -63 691 c 256,14,15
 -63 655 -63 655 -86 631.5 c 128,-1,16
 -109 608 -109 608 -145 608 c 256,17,18
 -181 608 -181 608 -204 631.5 c 128,-1,19
 -227 655 -227 655 -227 691 c 256,20,21
 -227 727 -227 727 -204 750.5 c 128,-1,22
 -181 774 -181 774 -145 774 c 256,23,12
 -109 774 -109 774 -86 750.5 c 128,-1,13
EndSplineSet
Substitution2: "<3,3> Small Caps in Latin lookup 11 subtable" uni0308.sc
EndChar

StartChar: hookabovecomb
Encoding: 777 777 410
Width: 0
Flags: W
LayerCount: 2
Fore
SplineSet
-62.5 799 m 128,-1,1
 -32 772 -32 772 -32 728 c 0,2,3
 -32 654 -32 654 -122 585 c 1,4,-1
 -208 620 l 1,5,6
 -186 639 -186 639 -174 658.5 c 128,-1,7
 -162 678 -162 678 -162 695 c 0,8,9
 -162 707 -162 707 -170 714.5 c 128,-1,10
 -178 722 -178 722 -190 722 c 0,11,12
 -210 722 -210 722 -228 707 c 1,13,-1
 -279 785 l 1,14,15
 -214 826 -214 826 -149 826 c 0,16,0
 -93 826 -93 826 -62.5 799 c 128,-1,1
EndSplineSet
Substitution2: "<3,3> Small Caps in Latin lookup 11 subtable" hookabovecomb.sc
EndChar

StartChar: uni030A
Encoding: 778 778 411
Width: 0
Flags: W
LayerCount: 2
Fore
SplineSet
-77.5 785.5 m 128,-1,1
 -42 750 -42 750 -42 700 c 256,2,3
 -42 650 -42 650 -77.5 614.5 c 128,-1,4
 -113 579 -113 579 -163 579 c 256,5,6
 -213 579 -213 579 -248.5 614.5 c 128,-1,7
 -284 650 -284 650 -284 700 c 256,8,9
 -284 750 -284 750 -248.5 785.5 c 128,-1,10
 -213 821 -213 821 -163 821 c 256,11,0
 -113 821 -113 821 -77.5 785.5 c 128,-1,1
-192.5 729 m 128,-1,13
 -205 717 -205 717 -205 700 c 256,14,15
 -205 683 -205 683 -192.5 671 c 128,-1,16
 -180 659 -180 659 -163 659 c 256,17,18
 -146 659 -146 659 -133.5 671 c 128,-1,19
 -121 683 -121 683 -121 700 c 256,20,21
 -121 717 -121 717 -133.5 729 c 128,-1,22
 -146 741 -146 741 -163 741 c 256,23,12
 -180 741 -180 741 -192.5 729 c 128,-1,13
EndSplineSet
EndChar

StartChar: uni030B
Encoding: 779 779 412
Width: 0
Flags: W
LayerCount: 2
Fore
SplineSet
-382 776 m 1,0,-1
 -234 725 l 1,1,-1
 -323 595 l 1,2,-1
 -464 605 l 1,3,-1
 -382 776 l 1,0,-1
-173 776 m 1,4,-1
 -24 725 l 1,5,-1
 -114 595 l 1,6,-1
 -255 605 l 1,7,-1
 -173 776 l 1,4,-1
EndSplineSet
Substitution2: "<3,3> Small Caps in Latin lookup 11 subtable" uni030B.sc
EndChar

StartChar: uni030C
Encoding: 780 780 413
Width: 0
Flags: W
LayerCount: 2
Fore
SplineSet
-175 765 m 1,0,-1
 -41 765 l 1,1,-1
 -151 608 l 1,2,-1
 -324 608 l 1,3,-1
 -434 765 l 1,4,-1
 -300 765 l 1,5,-1
 -237 696 l 1,6,-1
 -175 765 l 1,0,-1
EndSplineSet
Substitution2: "<3,3> Small Caps in Latin lookup 11 subtable" uni030C.sc
EndChar

StartChar: uni030F
Encoding: 783 783 414
Width: 0
Flags: W
LayerCount: 2
Fore
SplineSet
-345 776 m 1,0,-1
 -264 605 l 1,1,-1
 -404 595 l 1,2,-1
 -494 725 l 1,3,-1
 -345 776 l 1,0,-1
-136 776 m 1,4,-1
 -55 605 l 1,5,-1
 -195 595 l 1,6,-1
 -285 725 l 1,7,-1
 -136 776 l 1,4,-1
EndSplineSet
Substitution2: "<3,3> Small Caps in Latin lookup 11 subtable" uni030F.sc
EndChar

StartChar: uni0311
Encoding: 785 785 415
Width: 0
Flags: W
LayerCount: 2
Fore
SplineSet
-365 598 m 1,0,1
 -361 674 -361 674 -313.5 719.5 c 128,-1,2
 -266 765 -266 765 -190 765 c 256,3,4
 -114 765 -114 765 -66.5 719.5 c 128,-1,5
 -19 674 -19 674 -15 598 c 1,6,-1
 -138 598 l 1,7,8
 -140 622 -140 622 -154 636.5 c 128,-1,9
 -168 651 -168 651 -190 651 c 256,10,11
 -212 651 -212 651 -226 636.5 c 128,-1,12
 -240 622 -240 622 -242 598 c 1,13,-1
 -365 598 l 1,0,1
EndSplineSet
Substitution2: "<3,3> Small Caps in Latin lookup 11 subtable" uni0311.sc
EndChar

StartChar: uni0312
Encoding: 786 786 416
Width: 0
Flags: W
LayerCount: 2
Fore
SplineSet
-68 609 m 1,0,-1
 -228 609 l 1,1,-1
 -148 788 l 1,2,-1
 -36 788 l 1,3,-1
 -68 609 l 1,0,-1
EndSplineSet
EndChar

StartChar: uni031B
Encoding: 795 795 417
Width: 0
Flags: W
LayerCount: 2
Fore
SplineSet
-51 594 m 0,1,2
 -51 521 -51 521 -107 482 c 128,-1,3
 -163 443 -163 443 -267 443 c 1,4,-1
 -251 544 l 1,5,6
 -224 544 -224 544 -210.5 558.5 c 128,-1,7
 -197 573 -197 573 -197 595 c 0,8,9
 -197 621 -197 621 -214 645 c 1,10,-1
 -74 697 l 1,11,0
 -51 642 -51 642 -51 594 c 0,1,2
EndSplineSet
EndChar

StartChar: dotbelowcomb
Encoding: 803 803 418
Width: 0
Flags: W
LayerCount: 2
Fore
SplineSet
-63 -95 m 128,-1,1
 -34 -124 -34 -124 -34 -170 c 256,2,3
 -34 -216 -34 -216 -63 -245 c 128,-1,4
 -92 -274 -92 -274 -138 -274 c 256,5,6
 -184 -274 -184 -274 -213.5 -245 c 128,-1,7
 -243 -216 -243 -216 -243 -170 c 256,8,9
 -243 -124 -243 -124 -213.5 -95 c 128,-1,10
 -184 -66 -184 -66 -138 -66 c 256,11,0
 -92 -66 -92 -66 -63 -95 c 128,-1,1
EndSplineSet
Substitution2: "<3,3> Small Caps in Latin lookup 11 subtable" dotbelowcomb.sc
EndChar

StartChar: uni0324
Encoding: 804 804 419
Width: 0
Flags: W
LayerCount: 2
Fore
SplineSet
-272 -88.5 m 128,-1,1
 -249 -112 -249 -112 -249 -148 c 256,2,3
 -249 -184 -249 -184 -272 -207.5 c 128,-1,4
 -295 -231 -295 -231 -331 -231 c 256,5,6
 -367 -231 -367 -231 -390 -207.5 c 128,-1,7
 -413 -184 -413 -184 -413 -148 c 256,8,9
 -413 -112 -413 -112 -390 -88.5 c 128,-1,10
 -367 -65 -367 -65 -331 -65 c 256,11,0
 -295 -65 -295 -65 -272 -88.5 c 128,-1,1
-75 -88.5 m 128,-1,13
 -52 -112 -52 -112 -52 -148 c 256,14,15
 -52 -184 -52 -184 -75 -207.5 c 128,-1,16
 -98 -231 -98 -231 -134 -231 c 256,17,18
 -170 -231 -170 -231 -193 -207.5 c 128,-1,19
 -216 -184 -216 -184 -216 -148 c 256,20,21
 -216 -112 -216 -112 -193 -88.5 c 128,-1,22
 -170 -65 -170 -65 -134 -65 c 256,23,12
 -98 -65 -98 -65 -75 -88.5 c 128,-1,13
EndSplineSet
Substitution2: "<3,3> Small Caps in Latin lookup 11 subtable" uni0324.sc
EndChar

StartChar: uni0326
Encoding: 806 806 420
Width: 0
Flags: W
LayerCount: 2
Fore
SplineSet
-209 -60 m 1,0,-1
 -49 -60 l 1,1,-1
 -129 -239 l 1,2,-1
 -241 -239 l 1,3,-1
 -209 -60 l 1,0,-1
EndSplineSet
EndChar

StartChar: uni0327
Encoding: 807 807 421
Width: 0
Flags: W
LayerCount: 2
Fore
SplineSet
-92 0 m 1,0,-1
 -113 -57 l 1,1,2
 -30 -78 -30 -78 -30 -139 c 0,3,4
 -30 -189 -30 -189 -68.5 -214 c 128,-1,5
 -107 -239 -107 -239 -163 -239 c 0,6,7
 -220 -239 -220 -239 -277 -219 c 1,8,-1
 -249 -134 l 1,9,10
 -229 -142 -229 -142 -201 -142 c 0,11,12
 -183 -142 -183 -142 -171.5 -136.5 c 128,-1,13
 -160 -131 -160 -131 -160 -122 c 0,14,15
 -160 -111 -160 -111 -176 -105 c 128,-1,16
 -192 -99 -192 -99 -216 -99 c 2,17,-1
 -236 -99 l 1,18,-1
 -201 10 l 1,19,-1
 -92 0 l 1,0,-1
EndSplineSet
Substitution2: "<3,3> Small Caps in Latin lookup 11 subtable" uni0327.sc
EndChar

StartChar: uni0328
Encoding: 808 808 422
Width: 0
Flags: W
LayerCount: 2
Fore
SplineSet
-54 0 m 1,0,1
 -89 -26 -89 -26 -108 -48.5 c 128,-1,2
 -127 -71 -127 -71 -127 -94 c 0,3,4
 -127 -120 -127 -120 -105 -120 c 0,5,6
 -93 -120 -93 -120 -79 -112 c 1,7,-1
 -49 -215 l 1,8,9
 -100 -238 -100 -238 -151 -238 c 0,10,11
 -206 -238 -206 -238 -235.5 -207 c 128,-1,12
 -265 -176 -265 -176 -265 -127 c 0,13,14
 -265 -83 -265 -83 -240 -40 c 128,-1,15
 -215 3 -215 3 -166 42 c 1,16,-1
 -54 0 l 1,0,1
EndSplineSet
EndChar

StartChar: uni032E
Encoding: 814 814 423
Width: 0
Flags: W
LayerCount: 2
Fore
SplineSet
-226 -100 m 128,-1,1
 -212 -115 -212 -115 -190 -115 c 256,2,3
 -168 -115 -168 -115 -154 -100 c 128,-1,4
 -140 -85 -140 -85 -138 -61 c 1,5,-1
 -15 -61 l 1,6,7
 -19 -137 -19 -137 -66.5 -182.5 c 128,-1,8
 -114 -228 -114 -228 -190 -228 c 256,9,10
 -266 -228 -266 -228 -313.5 -182.5 c 128,-1,11
 -361 -137 -361 -137 -365 -61 c 1,12,-1
 -242 -61 l 1,13,0
 -240 -85 -240 -85 -226 -100 c 128,-1,1
EndSplineSet
EndChar

StartChar: uni0331
Encoding: 817 817 424
Width: 0
Flags: W
LayerCount: 2
Fore
SplineSet
-353 -77 m 1,0,-1
 -38 -77 l 1,1,-1
 -38 -192 l 1,2,-1
 -353 -192 l 1,3,-1
 -353 -77 l 1,0,-1
EndSplineSet
EndChar

StartChar: uni0335
Encoding: 821 821 425
Width: 0
Flags: W
LayerCount: 2
Fore
SplineSet
-416 488 m 1,0,-1
 -6 488 l 1,1,-1
 -6 380 l 1,2,-1
 -416 380 l 1,3,-1
 -416 488 l 1,0,-1
EndSplineSet
EndChar

StartChar: uni0336
Encoding: 822 822 426
Width: 0
Flags: W
LayerCount: 2
Fore
SplineSet
-526 488 m 1,0,-1
 -79 488 l 1,1,-1
 -79 380 l 1,2,-1
 -526 380 l 1,3,-1
 -526 488 l 1,0,-1
EndSplineSet
EndChar

StartChar: uni0337
Encoding: 823 823 427
Width: 0
Flags: W
LayerCount: 2
Fore
SplineSet
2 567 m 1,0,-1
 -169 89 l 1,1,-1
 -338 89 l 1,2,-1
 -167 567 l 1,3,-1
 2 567 l 1,0,-1
EndSplineSet
EndChar

StartChar: uni0338
Encoding: 824 824 428
Width: 0
Flags: W
LayerCount: 2
Fore
SplineSet
-370 0 m 1,0,-1
 -105 742 l 1,1,-1
 64 742 l 1,2,-1
 -200 0 l 1,3,-1
 -370 0 l 1,0,-1
EndSplineSet
EndChar

StartChar: uni0394
Encoding: 916 916 429
Width: 786
Flags: W
LayerCount: 2
Fore
SplineSet
505 701 m 1,0,-1
 794 0 l 1,1,-1
 -8 0 l 1,2,-1
 291 701 l 1,3,-1
 505 701 l 1,0,-1
263 150 m 1,4,-1
 517 150 l 1,5,-1
 392 493 l 1,6,-1
 263 150 l 1,4,-1
EndSplineSet
EndChar

StartChar: uni03A9
Encoding: 937 937 430
Width: 843
Flags: W
LayerCount: 2
Fore
SplineSet
566.5 264.5 m 128,-1,1
 599 315 599 315 599 372 c 0,2,3
 599 420 599 420 576.5 458.5 c 128,-1,4
 554 497 554 497 513.5 519 c 128,-1,5
 473 541 473 541 421 541 c 256,6,7
 369 541 369 541 329 519 c 128,-1,8
 289 497 289 497 267 458.5 c 128,-1,9
 245 420 245 420 245 372 c 0,10,11
 245 315 245 315 277.5 264.5 c 128,-1,12
 310 214 310 214 368 184 c 1,13,-1
 368 0 l 1,14,-1
 6 0 l 1,15,-1
 6 162 l 1,16,-1
 180 162 l 1,17,18
 123 208 123 208 92 269.5 c 128,-1,19
 61 331 61 331 61 397 c 0,20,21
 61 484 61 484 108.5 555.5 c 128,-1,22
 156 627 156 627 238.5 668.5 c 128,-1,23
 321 710 321 710 421 710 c 256,24,25
 521 710 521 710 604 668.5 c 128,-1,26
 687 627 687 627 735 555 c 128,-1,27
 783 483 783 483 783 396 c 0,28,29
 783 331 783 331 751.5 269.5 c 128,-1,30
 720 208 720 208 664 162 c 1,31,-1
 837 162 l 1,32,-1
 837 0 l 1,33,-1
 475 0 l 1,34,-1
 475 184 l 1,35,0
 534 214 534 214 566.5 264.5 c 128,-1,1
EndSplineSet
EndChar

StartChar: uni03BC
Encoding: 956 956 431
Width: 688
Flags: W
LayerCount: 2
Fore
SplineSet
627 544 m 1,0,-1
 627 0 l 1,1,-1
 425 0 l 1,2,-1
 425 81 l 1,3,4
 399 39 399 39 359 16 c 128,-1,5
 319 -7 319 -7 268 -9 c 1,6,-1
 268 -194 l 1,7,-1
 66 -194 l 1,8,-1
 66 544 l 1,9,-1
 268 544 l 1,10,-1
 268 256 l 2,11,12
 268 216 268 216 288 192.5 c 128,-1,13
 308 169 308 169 341 169 c 0,14,15
 380 170 380 170 402.5 199 c 128,-1,16
 425 228 425 228 425 275 c 2,17,-1
 425 544 l 1,18,-1
 627 544 l 1,0,-1
EndSplineSet
EndChar

StartChar: pi
Encoding: 960 960 432
Width: 731
Flags: W
LayerCount: 2
Fore
SplineSet
604 403 m 1,0,-1
 604 0 l 1,1,-1
 438 0 l 1,2,-1
 438 403 l 1,3,-1
 378 403 l 1,4,-1
 336 0 l 1,5,-1
 170 0 l 1,6,-1
 211 403 l 1,7,-1
 190 403 l 2,8,9
 167 403 167 403 151.5 388.5 c 128,-1,10
 136 374 136 374 137 352 c 0,11,12
 137 327 137 327 157 287 c 1,13,-1
 18 240 l 1,14,15
 1 274 1 274 -9 314 c 128,-1,16
 -19 354 -19 354 -19 388 c 0,17,18
 -19 432 -19 432 4.5 468 c 128,-1,19
 28 504 28 504 70 524 c 128,-1,20
 112 544 112 544 164 544 c 2,21,-1
 718 544 l 1,22,-1
 719 403 l 1,23,-1
 604 403 l 1,0,-1
EndSplineSet
EndChar

StartChar: uni1E08
Encoding: 7688 7688 433
Width: 690
Flags: W
LayerCount: 2
Fore
SplineSet
534 870 m 1,0,-1
 381 748 l 1,1,-1
 249 758 l 1,2,-1
 376 928 l 1,3,-1
 534 870 l 1,0,-1
484.5 190 m 128,-1,5
 530 212 530 212 566 250 c 1,6,-1
 686 122 l 1,7,8
 636 67 636 67 567.5 31.5 c 128,-1,9
 499 -4 499 -4 428 -12 c 1,10,-1
 411 -57 l 1,11,12
 494 -78 494 -78 494 -139 c 0,13,14
 494 -189 494 -189 455.5 -214 c 128,-1,15
 417 -239 417 -239 361 -239 c 0,16,17
 304 -239 304 -239 247 -219 c 1,18,-1
 275 -134 l 1,19,20
 295 -142 295 -142 323 -142 c 0,21,22
 341 -142 341 -142 352.5 -136.5 c 128,-1,23
 364 -131 364 -131 364 -122 c 0,24,25
 364 -111 364 -111 348 -105 c 128,-1,26
 332 -99 332 -99 308 -99 c 2,27,-1
 288 -99 l 1,28,-1
 317 -8 l 1,29,30
 230 7 230 7 162.5 57.5 c 128,-1,31
 95 108 95 108 57 184.5 c 128,-1,32
 19 261 19 261 19 353 c 0,33,34
 19 455 19 455 68 537.5 c 128,-1,35
 117 620 117 620 203 667 c 128,-1,36
 289 714 289 714 396 714 c 0,37,38
 475 714 475 714 554 680 c 128,-1,39
 633 646 633 646 686 589 c 1,40,-1
 566 446 l 1,41,42
 533 490 533 490 487.5 515.5 c 128,-1,43
 442 541 442 541 399 541 c 0,44,45
 352 541 352 541 314 517 c 128,-1,46
 276 493 276 493 254 450.5 c 128,-1,47
 232 408 232 408 232 355 c 256,48,49
 232 302 232 302 254 259.5 c 128,-1,50
 276 217 276 217 314 192.5 c 128,-1,51
 352 168 352 168 399 168 c 0,52,4
 439 168 439 168 484.5 190 c 128,-1,5
EndSplineSet
EndChar

StartChar: uni1E09
Encoding: 7689 7689 434
Width: 562
Flags: W
LayerCount: 2
Fore
SplineSet
467 717 m 1,0,-1
 314 595 l 1,1,-1
 182 605 l 1,2,-1
 309 775 l 1,3,-1
 467 717 l 1,0,-1
475.5 40.5 m 128,-1,5
 422 5 422 5 349 -4 c 1,6,-1
 330 -57 l 1,7,8
 413 -78 413 -78 413 -139 c 0,9,10
 413 -189 413 -189 374.5 -214 c 128,-1,11
 336 -239 336 -239 280 -239 c 0,12,13
 223 -239 223 -239 166 -219 c 1,14,-1
 194 -134 l 1,15,16
 214 -142 214 -142 242 -142 c 0,17,18
 260 -142 260 -142 271.5 -136.5 c 128,-1,19
 283 -131 283 -131 283 -122 c 0,20,21
 283 -111 283 -111 267 -105 c 128,-1,22
 251 -99 251 -99 227 -99 c 2,23,-1
 207 -99 l 1,24,-1
 238 -2 l 1,25,26
 137 17 137 17 78 89.5 c 128,-1,27
 19 162 19 162 19 270 c 0,28,29
 19 354 19 354 54.5 417.5 c 128,-1,30
 90 481 90 481 154.5 516 c 128,-1,31
 219 551 219 551 304 551 c 256,32,33
 389 551 389 551 454.5 514 c 128,-1,34
 520 477 520 477 555 409 c 1,35,-1
 400 333 l 1,36,37
 386 359 386 359 363.5 373 c 128,-1,38
 341 387 341 387 313 387 c 0,39,40
 273 387 273 387 248 355 c 128,-1,41
 223 323 223 323 223 271 c 0,42,43
 223 218 223 218 247.5 185.5 c 128,-1,44
 272 153 272 153 313 153 c 0,45,46
 374 153 374 153 399 213 c 1,47,-1
 556 134 l 1,48,4
 529 76 529 76 475.5 40.5 c 128,-1,5
EndSplineSet
Substitution2: "<3,3> Small Caps in Latin lookup 11 subtable" uni1E09.sc
EndChar

StartChar: uni1E1C
Encoding: 7708 7708 443
Width: 683
Flags: W
LayerCount: 2
Fore
SplineSet
205.5 799.5 m 128,-1,1
 158 845 158 845 154 921 c 1,2,-1
 277 921 l 1,3,4
 279 897 279 897 293 882 c 128,-1,5
 307 867 307 867 329 867 c 256,6,7
 351 867 351 867 365 882 c 128,-1,8
 379 897 379 897 381 921 c 1,9,-1
 504 921 l 1,10,11
 500 845 500 845 452.5 799.5 c 128,-1,12
 405 754 405 754 329 754 c 256,13,0
 253 754 253 754 205.5 799.5 c 128,-1,1
411 0 m 1,14,-1
 390 -57 l 1,15,16
 473 -78 473 -78 473 -139 c 0,17,18
 473 -189 473 -189 434.5 -214 c 128,-1,19
 396 -239 396 -239 340 -239 c 0,20,21
 283 -239 283 -239 226 -219 c 1,22,-1
 254 -134 l 1,23,24
 274 -142 274 -142 302 -142 c 0,25,26
 320 -142 320 -142 331.5 -136.5 c 128,-1,27
 343 -131 343 -131 343 -122 c 0,28,29
 343 -111 343 -111 327 -105 c 128,-1,30
 311 -99 311 -99 287 -99 c 2,31,-1
 267 -99 l 1,32,-1
 299 0 l 1,33,-1
 59 0 l 1,34,-1
 59 701 l 1,35,-1
 632 701 l 1,36,-1
 632 541 l 1,37,-1
 267 541 l 1,38,-1
 267 431 l 1,39,-1
 598 431 l 1,40,-1
 598 271 l 1,41,-1
 267 271 l 1,42,-1
 267 160 l 1,43,-1
 642 160 l 1,44,-1
 642 0 l 1,45,-1
 411 0 l 1,14,-1
EndSplineSet
EndChar

StartChar: uni1E1D
Encoding: 7709 7709 444
Width: 609
Flags: W
LayerCount: 2
Fore
SplineSet
175.5 643.5 m 128,-1,1
 128 689 128 689 124 765 c 1,2,-1
 247 765 l 1,3,4
 249 741 249 741 263 726 c 128,-1,5
 277 711 277 711 299 711 c 256,6,7
 321 711 321 711 335 726 c 128,-1,8
 349 741 349 741 351 765 c 1,9,-1
 474 765 l 1,10,11
 470 689 470 689 422.5 643.5 c 128,-1,12
 375 598 375 598 299 598 c 256,13,0
 223 598 223 598 175.5 643.5 c 128,-1,1
515 471.5 m 128,-1,15
 590 392 590 392 590 254 c 0,16,17
 590 233 590 233 589 223 c 1,18,-1
 223 223 l 1,19,20
 235 184 235 184 262.5 163 c 128,-1,21
 290 142 290 142 329 142 c 0,22,23
 392 142 392 142 449 194 c 1,24,-1
 554 91 l 1,25,26
 483 13 483 13 366 -4 c 1,27,-1
 346 -57 l 1,28,29
 429 -78 429 -78 429 -139 c 0,30,31
 429 -189 429 -189 390.5 -214 c 128,-1,32
 352 -239 352 -239 296 -239 c 0,33,34
 239 -239 239 -239 182 -219 c 1,35,-1
 210 -134 l 1,36,37
 230 -142 230 -142 258 -142 c 0,38,39
 276 -142 276 -142 287.5 -136.5 c 128,-1,40
 299 -131 299 -131 299 -122 c 0,41,42
 299 -111 299 -111 283 -105 c 128,-1,43
 267 -99 267 -99 243 -99 c 2,44,-1
 223 -99 l 1,45,-1
 254 -3 l 1,46,47
 144 13 144 13 81.5 86 c 128,-1,48
 19 159 19 159 19 270 c 0,49,50
 19 354 19 354 55 417.5 c 128,-1,51
 91 481 91 481 156 516 c 128,-1,52
 221 551 221 551 306 551 c 0,53,14
 440 551 440 551 515 471.5 c 128,-1,15
368 388 m 128,-1,55
 345 414 345 414 308 414 c 0,56,57
 273 414 273 414 250 389 c 128,-1,58
 227 364 227 364 219 322 c 1,59,-1
 390 322 l 1,60,54
 391 362 391 362 368 388 c 128,-1,55
EndSplineSet
Substitution2: "<3,3> Small Caps in Latin lookup 11 subtable" uni1E1D.sc
EndChar

StartChar: uni1E9E
Encoding: 7838 7838 506
Width: 724
Flags: W
LayerCount: 2
Fore
SplineSet
665.5 324.5 m 128,-1,1
 702 276 702 276 702 207 c 0,2,3
 702 111 702 111 631 55.5 c 128,-1,4
 560 0 560 0 425 0 c 2,5,-1
 343 0 l 1,6,-1
 343 155 l 1,7,-1
 393 155 l 2,8,9
 436 155 436 155 461.5 174 c 128,-1,10
 487 193 487 193 487 225 c 0,11,12
 487 258 487 258 462 276 c 128,-1,13
 437 294 437 294 393 294 c 2,14,-1
 370 294 l 1,15,-1
 370 410 l 1,16,-1
 472 534 l 1,17,18
 442 543 442 543 404 543 c 0,19,20
 330 543 330 543 289 500.5 c 128,-1,21
 248 458 248 458 248 381 c 2,22,-1
 248 0 l 1,23,-1
 40 0 l 1,24,-1
 40 365 l 2,25,26
 40 473 40 473 81.5 550.5 c 128,-1,27
 123 628 123 628 201 669 c 128,-1,28
 279 710 279 710 387 710 c 0,29,30
 460 710 460 710 524.5 690.5 c 128,-1,31
 589 671 589 671 641 638 c 1,32,-1
 641 492 l 1,33,-1
 563 395 l 1,34,0
 629 373 629 373 665.5 324.5 c 128,-1,1
EndSplineSet
EndChar

StartChar: figuredash
Encoding: 8210 8210 603
Width: 617
Flags: W
LayerCount: 2
Fore
SplineSet
0 371 m 1,0,-1
 617 371 l 1,1,-1
 617 245 l 1,2,-1
 0 245 l 1,3,-1
 0 371 l 1,0,-1
EndSplineSet
EndChar

StartChar: endash
Encoding: 8211 8211 604
Width: 409
Flags: W
LayerCount: 2
Fore
SplineSet
0 371 m 1,0,-1
 409 371 l 1,1,-1
 409 245 l 1,2,-1
 0 245 l 1,3,-1
 0 371 l 1,0,-1
EndSplineSet
EndChar

StartChar: emdash
Encoding: 8212 8212 605
Width: 627
Flags: W
LayerCount: 2
Fore
SplineSet
0 371 m 1,0,-1
 627 371 l 1,1,-1
 627 245 l 1,2,-1
 0 245 l 1,3,-1
 0 371 l 1,0,-1
EndSplineSet
EndChar

StartChar: quoteleft
Encoding: 8216 8216 607
Width: 254
Flags: W
LayerCount: 2
Fore
SplineSet
192.5 571 m 128,-1,1
 202 552 202 552 202 530 c 0,2,3
 202 489 202 489 175 462.5 c 128,-1,4
 148 436 148 436 107 436 c 0,5,6
 68 436 68 436 41 461 c 128,-1,7
 14 486 14 486 14 529 c 0,8,9
 14 564 14 564 39 603 c 2,10,-1
 127 742 l 1,11,-1
 222 742 l 1,12,-1
 165 602 l 1,13,0
 183 590 183 590 192.5 571 c 128,-1,1
EndSplineSet
Substitution2: "<3,3> Small Caps in Latin lookup 11 subtable" quoteleft.sc
EndChar

StartChar: quoteright
Encoding: 8217 8217 608
Width: 254
Flags: W
LayerCount: 2
Fore
SplineSet
195 717 m 128,-1,1
 222 692 222 692 222 649 c 0,2,3
 222 614 222 614 197 575 c 2,4,-1
 109 436 l 1,5,-1
 14 436 l 1,6,-1
 71 576 l 1,7,8
 53 588 53 588 43.5 607 c 128,-1,9
 34 626 34 626 34 648 c 0,10,11
 34 689 34 689 61 715.5 c 128,-1,12
 88 742 88 742 129 742 c 0,13,0
 168 742 168 742 195 717 c 128,-1,1
EndSplineSet
Substitution2: "<3,3> Small Caps in Latin lookup 11 subtable" quoteright.sc
EndChar

StartChar: quotesinglbase
Encoding: 8218 8218 609
Width: 254
Flags: W
LayerCount: 2
Fore
SplineSet
195 155 m 128,-1,1
 222 130 222 130 222 87 c 0,2,3
 222 52 222 52 197 13 c 2,4,-1
 109 -126 l 1,5,-1
 14 -126 l 1,6,-1
 71 14 l 1,7,8
 53 26 53 26 43.5 45 c 128,-1,9
 34 64 34 64 34 86 c 0,10,11
 34 127 34 127 61 153.5 c 128,-1,12
 88 180 88 180 129 180 c 0,13,0
 168 180 168 180 195 155 c 128,-1,1
EndSplineSet
EndChar

StartChar: dagger
Encoding: 8224 8224 613
Width: 593
Flags: W
LayerCount: 2
Fore
SplineSet
193 699 m 1,0,-1
 394 699 l 1,1,-1
 394 499 l 1,2,-1
 574 499 l 1,3,-1
 574 339 l 1,4,-1
 394 339 l 1,5,-1
 394 -186 l 1,6,-1
 193 -186 l 1,7,-1
 193 339 l 1,8,-1
 19 339 l 1,9,-1
 19 499 l 1,10,-1
 193 499 l 1,11,-1
 193 699 l 1,0,-1
EndSplineSet
EndChar

StartChar: daggerdbl
Encoding: 8225 8225 614
Width: 593
Flags: W
LayerCount: 2
Fore
SplineSet
574 339 m 1,0,-1
 394 339 l 1,1,-1
 394 183 l 1,2,-1
 574 183 l 1,3,-1
 574 23 l 1,4,-1
 394 23 l 1,5,-1
 394 -186 l 1,6,-1
 193 -186 l 1,7,-1
 193 23 l 1,8,-1
 19 23 l 1,9,-1
 19 183 l 1,10,-1
 193 183 l 1,11,-1
 193 339 l 1,12,-1
 19 339 l 1,13,-1
 19 499 l 1,14,-1
 193 499 l 1,15,-1
 193 699 l 1,16,-1
 394 699 l 1,17,-1
 394 499 l 1,18,-1
 574 499 l 1,19,-1
 574 339 l 1,0,-1
EndSplineSet
EndChar

StartChar: bullet
Encoding: 8226 8226 615
Width: 350
Flags: W
LayerCount: 2
Fore
SplineSet
276.5 381.5 m 128,-1,1
 316 342 316 342 316 280 c 0,2,3
 316 217 316 217 276.5 177.5 c 128,-1,4
 237 138 237 138 174 138 c 0,5,6
 112 138 112 138 72.5 177.5 c 128,-1,7
 33 217 33 217 33 280 c 0,8,9
 33 342 33 342 72.5 381.5 c 128,-1,10
 112 421 112 421 174 421 c 0,11,0
 237 421 237 421 276.5 381.5 c 128,-1,1
EndSplineSet
EndChar

StartChar: ellipsis
Encoding: 8230 8230 616
Width: 716
Flags: W
LayerCount: 2
Fore
SplineSet
193.5 152.5 m 128,-1,1
 220 127 220 127 220 86 c 256,2,3
 220 45 220 45 193.5 18.5 c 128,-1,4
 167 -8 167 -8 126 -8 c 256,5,6
 85 -8 85 -8 59 18.5 c 128,-1,7
 33 45 33 45 33 86 c 256,8,9
 33 127 33 127 59 152.5 c 128,-1,10
 85 178 85 178 126 178 c 256,11,0
 167 178 167 178 193.5 152.5 c 128,-1,1
425.5 152.5 m 128,-1,13
 452 127 452 127 452 86 c 256,14,15
 452 45 452 45 425.5 18.5 c 128,-1,16
 399 -8 399 -8 358 -8 c 256,17,18
 317 -8 317 -8 291 18.5 c 128,-1,19
 265 45 265 45 265 86 c 256,20,21
 265 127 265 127 291 152.5 c 128,-1,22
 317 178 317 178 358 178 c 256,23,12
 399 178 399 178 425.5 152.5 c 128,-1,13
656.5 152.5 m 128,-1,25
 683 127 683 127 683 86 c 256,26,27
 683 45 683 45 656.5 18.5 c 128,-1,28
 630 -8 630 -8 589 -8 c 256,29,30
 548 -8 548 -8 522 18.5 c 128,-1,31
 496 45 496 45 496 86 c 256,32,33
 496 127 496 127 522 152.5 c 128,-1,34
 548 178 548 178 589 178 c 256,35,24
 630 178 630 178 656.5 152.5 c 128,-1,25
EndSplineSet
EndChar

StartChar: minute
Encoding: 8242 8242 618
Width: 244
Flags: W
LayerCount: 2
Fore
SplineSet
57 701 m 1,0,-1
 201 701 l 1,1,-1
 154 456 l 1,2,-1
 40 456 l 1,3,-1
 57 701 l 1,0,-1
EndSplineSet
EndChar

StartChar: guilsinglleft
Encoding: 8249 8249 620
Width: 283
Flags: W
LayerCount: 2
Fore
SplineSet
114 459 m 1,0,-1
 276 459 l 1,1,-1
 170 270 l 1,2,-1
 276 80 l 1,3,-1
 114 80 l 1,4,-1
 -9 270 l 1,5,-1
 114 459 l 1,0,-1
EndSplineSet
Substitution2: "<3,3> Small Caps in Latin lookup 11 subtable" guilsinglleft.sc
Substitution2: "'rtla' Right to Left Alternates in Latin lookup 0 subtable" guilsinglright
EndChar

StartChar: guilsinglright
Encoding: 8250 8250 621
Width: 283
Flags: W
LayerCount: 2
Fore
SplineSet
169 80 m 1,0,-1
 7 80 l 1,1,-1
 113 269 l 1,2,-1
 7 459 l 1,3,-1
 169 459 l 1,4,-1
 292 269 l 1,5,-1
 169 80 l 1,0,-1
EndSplineSet
Substitution2: "<3,3> Small Caps in Latin lookup 11 subtable" guilsinglright.sc
Substitution2: "'rtla' Right to Left Alternates in Latin lookup 0 subtable" guilsinglleft
EndChar

StartChar: fraction
Encoding: 8260 8260 622
Width: 135
Flags: W
LayerCount: 2
Fore
SplineSet
245 701 m 1,0,-1
 381 701 l 1,1,-1
 -111 0 l 1,2,-1
 -248 0 l 1,3,-1
 245 701 l 1,0,-1
EndSplineSet
EndChar

StartChar: colonmonetary
Encoding: 8353 8353 640
Width: 690
Flags: W
LayerCount: 2
Fore
SplineSet
484.5 190 m 128,-1,1
 530 212 530 212 566 250 c 1,2,-1
 686 122 l 1,3,4
 618 48 618 48 522 12 c 1,5,-1
 484 -160 l 1,6,-1
 358 -160 l 1,7,-1
 390 -14 l 1,8,-1
 389 -14 l 2,9,10
 368 -14 368 -14 328 -10 c 1,11,-1
 295 -160 l 1,12,-1
 169 -160 l 1,13,-1
 210 28 l 1,14,15
 122 74 122 74 70.5 159.5 c 128,-1,16
 19 245 19 245 19 353 c 0,17,18
 19 466 19 466 78.5 554 c 128,-1,19
 138 642 138 642 239 684 c 1,20,-1
 277 857 l 1,21,-1
 402 857 l 1,22,-1
 371 713 l 1,23,24
 379 714 379 714 396 714 c 0,25,26
 409 714 409 714 433 712 c 1,27,-1
 465 857 l 1,28,-1
 591 857 l 1,29,-1
 553 681 l 1,30,31
 631 648 631 648 686 589 c 1,32,-1
 566 446 l 1,33,34
 533 490 533 490 487.5 515.5 c 128,-1,35
 442 541 442 541 399 541 c 0,36,37
 352 541 352 541 314 517 c 128,-1,38
 276 493 276 493 254 450.5 c 128,-1,39
 232 408 232 408 232 355 c 256,40,41
 232 302 232 302 254 259.5 c 128,-1,42
 276 217 276 217 314 192.5 c 128,-1,43
 352 168 352 168 399 168 c 0,44,0
 439 168 439 168 484.5 190 c 128,-1,1
EndSplineSet
EndChar

StartChar: franc
Encoding: 8355 8355 641
Width: 654
Flags: W
LayerCount: 2
Fore
SplineSet
638 541 m 1,0,-1
 302 541 l 1,1,-1
 302 401 l 1,2,-1
 615 401 l 1,3,-1
 615 249 l 1,4,-1
 302 249 l 1,5,-1
 302 160 l 1,6,-1
 508 160 l 1,7,-1
 508 92 l 1,8,-1
 302 92 l 1,9,-1
 302 0 l 1,10,-1
 94 0 l 1,11,-1
 94 92 l 1,12,-1
 22 92 l 1,13,-1
 22 160 l 1,14,-1
 94 160 l 1,15,-1
 94 701 l 1,16,-1
 638 701 l 1,17,-1
 638 541 l 1,0,-1
EndSplineSet
EndChar

StartChar: lira
Encoding: 8356 8356 642
Width: 570
Flags: W
LayerCount: 2
Fore
SplineSet
305 156 m 1,0,-1
 552 156 l 1,1,-1
 552 0 l 1,2,-1
 24 0 l 1,3,-1
 24 156 l 1,4,-1
 96 156 l 1,5,-1
 96 236 l 1,6,-1
 24 236 l 1,7,-1
 24 304 l 1,8,-1
 96 304 l 1,9,-1
 96 352 l 1,10,-1
 24 352 l 1,11,-1
 24 420 l 1,12,-1
 96 420 l 1,13,-1
 96 468 l 2,14,15
 96 583 96 583 162 646.5 c 128,-1,16
 228 710 228 710 347 710 c 0,17,18
 410 710 410 710 467 688 c 128,-1,19
 524 666 524 666 567 626 c 1,20,-1
 490 473 l 1,21,22
 427 536 427 536 370 536 c 0,23,24
 305 536 305 536 305 464 c 2,25,-1
 305 420 l 1,26,-1
 468 420 l 1,27,-1
 468 352 l 1,28,-1
 305 352 l 1,29,-1
 305 304 l 1,30,-1
 468 304 l 1,31,-1
 468 236 l 1,32,-1
 305 236 l 1,33,-1
 305 156 l 1,0,-1
EndSplineSet
EndChar

StartChar: uni20A6
Encoding: 8358 8358 643
Width: 808
Flags: W
LayerCount: 2
Fore
SplineSet
783 375 m 1,0,-1
 709 375 l 1,1,-1
 709 327 l 1,2,-1
 783 327 l 1,3,-1
 783 259 l 1,4,-1
 709 259 l 1,5,-1
 709 0 l 1,6,-1
 539 0 l 1,7,-1
 283 379 l 1,8,-1
 283 0 l 1,9,-1
 99 0 l 1,10,-1
 99 259 l 1,11,-1
 25 259 l 1,12,-1
 25 327 l 1,13,-1
 99 327 l 1,14,-1
 99 375 l 1,15,-1
 25 375 l 1,16,-1
 25 443 l 1,17,-1
 99 443 l 1,18,-1
 99 701 l 1,19,-1
 269 701 l 1,20,-1
 526 320 l 1,21,-1
 526 701 l 1,22,-1
 709 701 l 1,23,-1
 709 443 l 1,24,-1
 783 443 l 1,25,-1
 783 375 l 1,0,-1
EndSplineSet
EndChar

StartChar: peseta
Encoding: 8359 8359 644
Width: 1569
Flags: W
LayerCount: 2
Fore
SplineSet
537 634.5 m 128,-1,1
 609 568 609 568 609 447 c 0,2,3
 609 324 609 324 537 256 c 128,-1,4
 465 188 465 188 334 188 c 2,5,-1
 243 188 l 1,6,-1
 243 0 l 1,7,-1
 59 0 l 1,8,-1
 59 701 l 1,9,-1
 334 701 l 2,10,0
 465 701 465 701 537 634.5 c 128,-1,1
1023 165 m 1,12,-1
 1059 26 l 1,13,14
 1033 10 1033 10 994 0.5 c 128,-1,15
 955 -9 955 -9 915 -9 c 0,16,17
 835 -9 835 -9 786.5 38.5 c 128,-1,18
 738 86 738 86 738 170 c 2,19,-1
 738 391 l 1,20,-1
 663 391 l 1,21,-1
 663 516 l 1,22,-1
 738 516 l 1,23,-1
 738 667 l 1,24,-1
 916 667 l 1,25,-1
 916 516 l 1,26,-1
 1048 516 l 1,27,-1
 1048 391 l 1,28,-1
 916 391 l 1,29,-1
 916 204 l 2,30,31
 916 177 916 177 928.5 163 c 128,-1,32
 941 149 941 149 965 149 c 256,33,11
 989 149 989 149 1023 165 c 1,12,-1
403.5 356.5 m 128,-1,35
 435 388 435 388 435 446 c 0,36,37
 435 503 435 503 403.5 533.5 c 128,-1,38
 372 564 372 564 314 564 c 2,39,-1
 243 564 l 1,40,-1
 243 325 l 1,41,-1
 314 325 l 2,42,34
 372 325 372 325 403.5 356.5 c 128,-1,35
1304.5 360.5 m 128,-1,44
 1326 348 1326 348 1371 333 c 0,45,46
 1425 314 1425 314 1458.5 296.5 c 128,-1,47
 1492 279 1492 279 1517.5 245.5 c 128,-1,48
 1543 212 1543 212 1543 160 c 0,49,50
 1543 82 1543 82 1483.5 36.5 c 128,-1,51
 1424 -9 1424 -9 1328 -9 c 0,52,53
 1197 -9 1197 -9 1096 54 c 1,54,-1
 1148 168 l 1,55,56
 1247 116 1247 116 1326 116 c 0,57,58
 1376 116 1376 116 1376 151 c 0,59,60
 1376 171 1376 171 1355.5 183 c 128,-1,61
 1335 195 1335 195 1291 211 c 0,62,63
 1240 230 1240 230 1206 248 c 128,-1,64
 1172 266 1172 266 1147 300 c 128,-1,65
 1122 334 1122 334 1122 386 c 0,66,67
 1122 464 1122 464 1179 508.5 c 128,-1,68
 1236 553 1236 553 1330 553 c 0,69,70
 1390 553 1390 553 1441.5 539.5 c 128,-1,71
 1493 526 1493 526 1546 499 c 1,72,-1
 1488 381 l 1,73,74
 1440 406 1440 406 1404 417.5 c 128,-1,75
 1368 429 1368 429 1336 429 c 0,76,77
 1311 429 1311 429 1297 420 c 128,-1,78
 1283 411 1283 411 1283 393 c 0,79,43
 1283 373 1283 373 1304.5 360.5 c 128,-1,44
EndSplineSet
EndChar

StartChar: uni20A9
Encoding: 8361 8361 645
Width: 1064
Flags: W
LayerCount: 2
Fore
SplineSet
1063 701 m 1,0,-1
 984 443 l 1,1,-1
 1056 443 l 1,2,-1
 1056 375 l 1,3,-1
 963 375 l 1,4,-1
 948 327 l 1,5,-1
 1046 327 l 1,6,-1
 1046 259 l 1,7,-1
 927 259 l 1,8,-1
 848 0 l 1,9,-1
 634 0 l 1,10,-1
 536 435 l 1,11,-1
 435 0 l 1,12,-1
 221 0 l 1,13,-1
 142 259 l 1,14,-1
 20 259 l 1,15,-1
 20 327 l 1,16,-1
 122 327 l 1,17,-1
 107 375 l 1,18,-1
 10 375 l 1,19,-1
 10 443 l 1,20,-1
 86 443 l 1,21,-1
 8 701 l 1,22,-1
 227 701 l 1,23,-1
 334 229 l 1,24,-1
 439 701 l 1,25,-1
 642 701 l 1,26,-1
 748 229 l 1,27,-1
 854 701 l 1,28,-1
 1063 701 l 1,0,-1
EndSplineSet
EndChar

StartChar: dong
Encoding: 8363 8363 646
Width: 690
Flags: W
LayerCount: 2
Fore
SplineSet
686 589 m 1,0,-1
 622 589 l 1,1,-1
 622 0 l 1,2,-1
 420 0 l 1,3,-1
 420 62 l 1,4,5
 393 29 393 29 355 11 c 128,-1,6
 317 -7 317 -7 271 -7 c 0,7,8
 196 -7 196 -7 139 28 c 128,-1,9
 82 63 82 63 50.5 126.5 c 128,-1,10
 19 190 19 190 19 275 c 0,11,12
 19 358 19 358 49.5 420.5 c 128,-1,13
 80 483 80 483 136 517 c 128,-1,14
 192 551 192 551 266 551 c 0,15,16
 314 551 314 551 353 533 c 128,-1,17
 392 515 392 515 420 481 c 1,18,-1
 420 589 l 1,19,-1
 310 589 l 1,20,-1
 310 665 l 1,21,-1
 420 665 l 1,22,-1
 420 742 l 1,23,-1
 622 742 l 1,24,-1
 622 665 l 1,25,-1
 686 665 l 1,26,-1
 686 589 l 1,0,-1
393 181.5 m 128,-1,28
 420 215 420 215 420 270 c 0,29,30
 420 324 420 324 393 357.5 c 128,-1,31
 366 391 366 391 322 391 c 0,32,33
 277 391 277 391 250 357.5 c 128,-1,34
 223 324 223 324 223 270 c 0,35,36
 223 215 223 215 250 181.5 c 128,-1,37
 277 148 277 148 322 148 c 0,38,27
 366 148 366 148 393 181.5 c 128,-1,28
109 -130 m 1,39,-1
 109 -54 l 1,40,-1
 562 -54 l 1,41,-1
 562 -130 l 1,42,-1
 109 -130 l 1,39,-1
EndSplineSet
EndChar

StartChar: Euro
Encoding: 8364 8364 647
Width: 769
Flags: W
LayerCount: 2
Fore
SplineSet
563.5 195 m 128,-1,1
 609 217 609 217 645 254 c 1,2,-1
 765 126 l 1,3,4
 708 64 708 64 627.5 27.5 c 128,-1,5
 547 -9 547 -9 467 -9 c 0,6,7
 378 -9 378 -9 304 25 c 128,-1,8
 230 59 230 59 179 119.5 c 128,-1,9
 128 180 128 180 109 259 c 1,10,-1
 24 259 l 1,11,-1
 24 327 l 1,12,-1
 99 327 l 1,13,14
 98 335 98 335 98 352 c 0,15,16
 98 367 98 367 99 375 c 1,17,-1
 24 375 l 1,18,-1
 24 443 l 1,19,-1
 109 443 l 1,20,21
 129 521 129 521 181 580.5 c 128,-1,22
 233 640 233 640 309 673.5 c 128,-1,23
 385 707 385 707 475 707 c 0,24,25
 555 707 555 707 633.5 673.5 c 128,-1,26
 712 640 712 640 765 583 c 1,27,-1
 645 441 l 1,28,29
 612 483 612 483 566.5 508.5 c 128,-1,30
 521 534 521 534 478 534 c 0,31,32
 430 534 430 534 391 509.5 c 128,-1,33
 352 485 352 485 331 443 c 1,34,-1
 538 443 l 1,35,-1
 538 375 l 1,36,-1
 312 375 l 1,37,38
 311 368 311 368 311 354 c 0,39,40
 311 345 311 345 313 327 c 1,41,-1
 538 327 l 1,42,-1
 538 259 l 1,43,-1
 334 259 l 1,44,45
 356 219 356 219 394 196 c 128,-1,46
 432 173 432 173 478 173 c 0,47,0
 518 173 518 173 563.5 195 c 128,-1,1
EndSplineSet
EndChar

StartChar: uni20AD
Encoding: 8365 8365 648
Width: 761
Flags: W
LayerCount: 2
Fore
SplineSet
757 0 m 1,0,-1
 513 0 l 1,1,-1
 280 307 l 1,2,-1
 280 0 l 1,3,-1
 72 0 l 1,4,-1
 72 330 l 1,5,-1
 0 330 l 1,6,-1
 0 398 l 1,7,-1
 72 398 l 1,8,-1
 72 701 l 1,9,-1
 280 701 l 1,10,-1
 280 416 l 1,11,-1
 506 701 l 1,12,-1
 742 701 l 1,13,-1
 495 398 l 1,14,-1
 676 398 l 1,15,-1
 676 330 l 1,16,-1
 500 330 l 1,17,-1
 757 0 l 1,0,-1
EndSplineSet
EndChar

StartChar: uni20B1
Encoding: 8369 8369 649
Width: 796
Flags: W
LayerCount: 2
Fore
SplineSet
774 468 m 1,0,-1
 702 468 l 1,1,-1
 702 453 l 2,2,3
 702 431 702 431 701 420 c 1,4,-1
 774 420 l 1,5,-1
 774 352 l 1,6,-1
 687 352 l 1,7,8
 661 273 661 273 591.5 230.5 c 128,-1,9
 522 188 522 188 417 188 c 2,10,-1
 307 188 l 1,11,-1
 307 0 l 1,12,-1
 99 0 l 1,13,-1
 99 352 l 1,14,-1
 27 352 l 1,15,-1
 27 420 l 1,16,-1
 99 420 l 1,17,-1
 99 468 l 1,18,-1
 27 468 l 1,19,-1
 27 536 l 1,20,-1
 99 536 l 1,21,-1
 99 701 l 1,22,-1
 417 701 l 2,23,24
 526 701 526 701 596.5 658.5 c 128,-1,25
 667 616 667 616 691 536 c 1,26,-1
 774 536 l 1,27,-1
 774 468 l 1,0,-1
479.5 374 m 128,-1,29
 505 399 505 399 505 446 c 0,30,31
 505 492 505 492 479.5 516.5 c 128,-1,32
 454 541 454 541 407 541 c 2,33,-1
 307 541 l 1,34,-1
 307 349 l 1,35,-1
 407 349 l 2,36,28
 454 349 454 349 479.5 374 c 128,-1,29
EndSplineSet
EndChar

StartChar: uni20B2
Encoding: 8370 8370 650
Width: 735
Flags: W
LayerCount: 2
Fore
SplineSet
517 363 m 1,0,-1
 696 363 l 1,1,-1
 696 78 l 1,2,3
 653 48 653 48 592 25 c 128,-1,4
 531 2 531 2 469 -8 c 1,5,-1
 469 -160 l 1,6,-1
 320 -160 l 1,7,-1
 320 -7 l 1,8,9
 232 8 232 8 163.5 58 c 128,-1,10
 95 108 95 108 57 184 c 128,-1,11
 19 260 19 260 19 351 c 0,12,13
 19 440 19 440 57 514 c 128,-1,14
 95 588 95 588 163 638 c 128,-1,15
 231 688 231 688 320 705 c 1,16,-1
 320 857 l 1,17,-1
 469 857 l 1,18,-1
 469 710 l 1,19,20
 536 701 536 701 598 673.5 c 128,-1,21
 660 646 660 646 706 606 c 1,22,-1
 588 464 l 1,23,24
 552 499 552 499 503.5 520 c 128,-1,25
 455 541 455 541 409 541 c 0,26,27
 359 541 359 541 318.5 516 c 128,-1,28
 278 491 278 491 255 447.5 c 128,-1,29
 232 404 232 404 232 351 c 0,30,31
 232 297 232 297 255.5 253 c 128,-1,32
 279 209 279 209 320 184 c 128,-1,33
 361 159 361 159 411 159 c 0,34,35
 456 159 456 159 517 188 c 1,36,-1
 517 363 l 1,0,-1
EndSplineSet
EndChar

StartChar: uni20B5
Encoding: 8373 8373 651
Width: 690
Flags: W
LayerCount: 2
Fore
SplineSet
484.5 190 m 128,-1,1
 530 212 530 212 566 250 c 1,2,-1
 686 122 l 1,3,4
 642 74 642 74 582 40 c 128,-1,5
 522 6 522 6 459 -7 c 1,6,-1
 459 -160 l 1,7,-1
 310 -160 l 1,8,-1
 310 -7 l 1,9,10
 225 10 225 10 158.5 60.5 c 128,-1,11
 92 111 92 111 55.5 186.5 c 128,-1,12
 19 262 19 262 19 353 c 0,13,14
 19 441 19 441 55.5 515 c 128,-1,15
 92 589 92 589 158 639 c 128,-1,16
 224 689 224 689 310 706 c 1,17,-1
 310 857 l 1,18,-1
 459 857 l 1,19,-1
 459 708 l 1,20,21
 524 697 524 697 583.5 666 c 128,-1,22
 643 635 643 635 686 589 c 1,23,-1
 566 446 l 1,24,25
 533 490 533 490 487.5 515.5 c 128,-1,26
 442 541 442 541 399 541 c 0,27,28
 352 541 352 541 314 517 c 128,-1,29
 276 493 276 493 254 450.5 c 128,-1,30
 232 408 232 408 232 355 c 256,31,32
 232 302 232 302 254 259.5 c 128,-1,33
 276 217 276 217 314 192.5 c 128,-1,34
 352 168 352 168 399 168 c 0,35,0
 439 168 439 168 484.5 190 c 128,-1,1
EndSplineSet
EndChar

StartChar: uni20B9
Encoding: 8377 8377 652
Width: 634
Flags: W
LayerCount: 2
Fore
SplineSet
481 557 m 1,0,1
 508 524 508 524 519 479 c 1,2,-1
 606 479 l 1,3,-1
 606 411 l 1,4,-1
 527 411 l 1,5,6
 527 352 527 352 502.5 306 c 128,-1,7
 478 260 478 260 431 232 c 1,8,-1
 606 0 l 1,9,-1
 371 0 l 1,10,-1
 228 188 l 1,11,-1
 38 188 l 1,12,-1
 38 333 l 1,13,-1
 218 333 l 2,14,15
 266 333 266 333 296 353 c 128,-1,16
 326 373 326 373 334 411 c 1,17,-1
 38 411 l 1,18,-1
 38 479 l 1,19,-1
 334 479 l 1,20,21
 325 516 325 516 295 536 c 128,-1,22
 265 556 265 556 218 556 c 2,23,-1
 38 556 l 1,24,-1
 38 701 l 1,25,-1
 606 701 l 1,26,-1
 606 557 l 1,27,-1
 481 557 l 1,0,1
EndSplineSet
EndChar

StartChar: uni20BA
Encoding: 8378 8378 653
Width: 746
Flags: W
LayerCount: 2
Fore
SplineSet
722 359 m 1,0,1
 722 252 722 252 674 170.5 c 128,-1,2
 626 89 626 89 539 44.5 c 128,-1,3
 452 0 452 0 337 0 c 2,4,-1
 94 0 l 1,5,-1
 94 316 l 1,6,-1
 23 296 l 1,7,-1
 23 374 l 1,8,-1
 94 394 l 1,9,-1
 94 461 l 1,10,-1
 23 441 l 1,11,-1
 23 519 l 1,12,-1
 94 539 l 1,13,-1
 94 701 l 1,14,-1
 302 701 l 1,15,-1
 302 598 l 1,16,-1
 531 663 l 1,17,-1
 531 585 l 1,18,-1
 302 520 l 1,19,-1
 302 453 l 1,20,-1
 531 518 l 1,21,-1
 531 440 l 1,22,-1
 302 375 l 1,23,-1
 302 163 l 1,24,-1
 350 163 l 2,25,26
 424 163 424 163 466.5 216 c 128,-1,27
 509 269 509 269 509 357 c 1,28,-1
 722 359 l 1,0,1
EndSplineSet
EndChar

StartChar: uni20BC
Encoding: 8380 8380 654
Width: 788
Flags: W
LayerCount: 2
Fore
SplineSet
618.5 543 m 128,-1,1
 686 495 686 495 724 421 c 128,-1,2
 762 347 762 347 762 257 c 2,3,-1
 762 0 l 1,4,-1
 564 0 l 1,5,-1
 564 256 l 2,6,7
 564 316 564 316 537.5 360.5 c 128,-1,8
 511 405 511 405 464 424 c 1,9,-1
 464 0 l 1,10,-1
 324 0 l 1,11,-1
 324 422 l 1,12,13
 277 402 277 402 250.5 358 c 128,-1,14
 224 314 224 314 224 256 c 2,15,-1
 224 0 l 1,16,-1
 26 0 l 1,17,-1
 26 257 l 2,18,19
 26 347 26 347 64 421 c 128,-1,20
 102 495 102 495 169.5 543 c 128,-1,21
 237 591 237 591 324 605 c 1,22,-1
 324 701 l 1,23,-1
 464 701 l 1,24,-1
 464 605 l 1,25,0
 551 591 551 591 618.5 543 c 128,-1,1
EndSplineSet
EndChar

StartChar: uni20BD
Encoding: 8381 8381 655
Width: 719
Flags: W
LayerCount: 2
Fore
SplineSet
306 217 m 1,0,-1
 306 156 l 1,1,-1
 516 156 l 1,2,-1
 516 88 l 1,3,-1
 306 88 l 1,4,-1
 306 0 l 1,5,-1
 98 0 l 1,6,-1
 98 88 l 1,7,-1
 18 88 l 1,8,-1
 18 156 l 1,9,-1
 98 156 l 1,10,-1
 98 701 l 1,11,-1
 417 701 l 2,12,13
 553 701 553 701 627.5 638.5 c 128,-1,14
 702 576 702 576 702 461 c 0,15,16
 702 345 702 345 627.5 281 c 128,-1,17
 553 217 553 217 417 217 c 2,18,-1
 306 217 l 1,0,-1
478.5 529 m 128,-1,20
 453 553 453 553 406 553 c 2,21,-1
 306 553 l 1,22,-1
 306 364 l 1,23,-1
 406 364 l 2,24,25
 453 364 453 364 478.5 389 c 128,-1,26
 504 414 504 414 504 460 c 0,27,19
 504 505 504 505 478.5 529 c 128,-1,20
EndSplineSet
EndChar

StartChar: uni2113
Encoding: 8467 8467 656
Width: 476
Flags: W
LayerCount: 2
Fore
SplineSet
196 651.5 m 128,-1,1
 250 710 250 710 324 710 c 0,2,3
 384 710 384 710 416.5 673 c 128,-1,4
 449 636 449 636 449 570 c 0,5,6
 449 497 449 497 411.5 432 c 128,-1,7
 374 367 374 367 327 321 c 128,-1,8
 280 275 280 275 214 220 c 1,9,10
 211 202 211 202 211 187 c 0,11,12
 211 122 211 122 265 122 c 0,13,14
 297 122 297 122 324 142.5 c 128,-1,15
 351 163 351 163 380 198 c 1,16,-1
 436 129 l 1,17,18
 352 -6 352 -6 221 -6 c 0,19,20
 88 -6 88 -6 72 137 c 1,21,-1
 27 111 l 1,22,-1
 0 190 l 1,23,-1
 84 248 l 1,24,-1
 121 475 l 2,25,0
 142 593 142 593 196 651.5 c 128,-1,1
311.5 460 m 128,-1,27
 343 515 343 515 343 567 c 0,28,29
 343 587 343 587 336.5 598.5 c 128,-1,30
 330 610 330 610 318 610 c 0,31,32
 300 610 300 610 285 582 c 128,-1,33
 270 554 270 554 260 493 c 2,34,-1
 238 359 l 1,35,26
 280 405 280 405 311.5 460 c 128,-1,27
EndSplineSet
EndChar

StartChar: trademark
Encoding: 8482 8482 658
Width: 914
Flags: W
LayerCount: 2
Fore
SplineSet
-10 701 m 1,0,-1
 347 701 l 1,1,-1
 347 585 l 1,2,-1
 241 585 l 1,3,-1
 241 280 l 1,4,-1
 96 280 l 1,5,-1
 96 585 l 1,6,-1
 -10 585 l 1,7,-1
 -10 701 l 1,0,-1
383 701 m 1,8,-1
 541 701 l 1,9,-1
 630 492 l 1,10,-1
 720 701 l 1,11,-1
 878 701 l 1,12,-1
 878 280 l 1,13,-1
 748 280 l 1,14,-1
 748 495 l 1,15,-1
 680 321 l 1,16,-1
 581 321 l 1,17,-1
 513 495 l 1,18,-1
 513 280 l 1,19,-1
 383 280 l 1,20,-1
 383 701 l 1,8,-1
EndSplineSet
EndChar

StartChar: estimated
Encoding: 8494 8494 660
Width: 809
Flags: W
LayerCount: 2
Fore
SplineSet
192 308 m 2,1,-1
 192 144 l 2,2,3
 192 135 192 135 200 125 c 0,4,5
 239 83 239 83 292.5 59.5 c 128,-1,6
 346 36 346 36 406 36 c 0,7,8
 469 36 469 36 525.5 62.5 c 128,-1,9
 582 89 582 89 621 135 c 1,10,-1
 670 135 l 1,11,12
 624 81 624 81 554 49.5 c 128,-1,13
 484 18 484 18 405 18 c 0,14,15
 314 18 314 18 237 58.5 c 128,-1,16
 160 99 160 99 115 168 c 128,-1,17
 70 237 70 237 70 319 c 256,18,19
 70 401 70 401 115 470.5 c 128,-1,20
 160 540 160 540 237 580.5 c 128,-1,21
 314 621 314 621 405 621 c 256,22,23
 496 621 496 621 573 580.5 c 128,-1,24
 650 540 650 540 695 470.5 c 128,-1,25
 740 401 740 401 740 319 c 2,26,-1
 740 312 l 1,27,-1
 197 312 l 2,28,0
 192 312 192 312 192 308 c 2,1,-1
609 518 m 0,30,31
 569 558 569 558 516.5 580.5 c 128,-1,32
 464 603 464 603 406 603 c 0,33,34
 347 603 347 603 294 579.5 c 128,-1,35
 241 556 241 556 201 515 c 0,36,37
 192 506 192 506 192 495 c 2,38,-1
 192 333 l 2,39,40
 192 328 192 328 197 328 c 2,41,-1
 613 328 l 2,42,43
 618 328 618 328 618 333 c 2,44,-1
 618 498 l 2,45,29
 618 509 618 509 609 518 c 0,30,31
EndSplineSet
EndChar

StartChar: arrowleft
Encoding: 8592 8592 667
Width: 600
Flags: W
LayerCount: 2
Fore
SplineSet
561 345 m 1,0,-1
 561 210 l 1,1,-1
 287 210 l 1,2,-1
 386 39 l 1,3,-1
 215 39 l 1,4,-1
 60 278 l 1,5,-1
 215 517 l 1,6,-1
 386 517 l 1,7,-1
 286 345 l 1,8,-1
 561 345 l 1,0,-1
EndSplineSet
EndChar

StartChar: arrowup
Encoding: 8593 8593 668
Width: 600
Flags: W
LayerCount: 2
Fore
SplineSet
539 376 m 1,0,-1
 539 226 l 1,1,-1
 378 320 l 1,2,-1
 378 30 l 1,3,-1
 223 30 l 1,4,-1
 223 321 l 1,5,-1
 61 226 l 1,6,-1
 61 376 l 1,7,-1
 300 531 l 1,8,-1
 539 376 l 1,0,-1
EndSplineSet
EndChar

StartChar: arrowright
Encoding: 8594 8594 669
Width: 600
Flags: W
LayerCount: 2
Fore
SplineSet
385 517 m 1,0,-1
 540 278 l 1,1,-1
 385 39 l 1,2,-1
 214 39 l 1,3,-1
 314 211 l 1,4,-1
 39 211 l 1,5,-1
 39 346 l 1,6,-1
 313 346 l 1,7,-1
 214 517 l 1,8,-1
 385 517 l 1,0,-1
EndSplineSet
EndChar

StartChar: arrowdown
Encoding: 8595 8595 670
Width: 600
Flags: W
LayerCount: 2
Fore
SplineSet
383 235 m 1,0,-1
 545 330 l 1,1,-1
 545 180 l 1,2,-1
 306 25 l 1,3,-1
 67 180 l 1,4,-1
 67 330 l 1,5,-1
 228 236 l 1,6,-1
 228 526 l 1,7,-1
 383 526 l 1,8,-1
 383 235 l 1,0,-1
EndSplineSet
EndChar

StartChar: arrowboth
Encoding: 8596 8596 671
Width: 902
Flags: W
LayerCount: 2
Fore
SplineSet
696 517 m 1,0,-1
 852 278 l 1,1,-1
 696 39 l 1,2,-1
 525 39 l 1,3,-1
 625 210 l 1,4,-1
 277 210 l 1,5,-1
 376 39 l 1,6,-1
 205 39 l 1,7,-1
 50 278 l 1,8,-1
 205 517 l 1,9,-1
 376 517 l 1,10,-1
 276 345 l 1,11,-1
 626 345 l 1,12,-1
 525 517 l 1,13,-1
 696 517 l 1,0,-1
EndSplineSet
EndChar

StartChar: arrowupdn
Encoding: 8597 8597 672
Width: 600
Flags: W
LayerCount: 2
Fore
SplineSet
539 404 m 1,0,-1
 378 498 l 1,1,-1
 378 216 l 1,2,-1
 539 310 l 1,3,-1
 539 160 l 1,4,-1
 300 5 l 1,5,-1
 61 160 l 1,6,-1
 61 310 l 1,7,-1
 223 215 l 1,8,-1
 223 498 l 1,9,-1
 61 404 l 1,10,-1
 61 553 l 1,11,-1
 300 708 l 1,12,-1
 539 553 l 1,13,-1
 539 404 l 1,0,-1
EndSplineSet
EndChar

StartChar: uni2196
Encoding: 8598 8598 673
Width: 600
Flags: W
LayerCount: 2
Fore
SplineSet
541 162 m 1,0,-1
 431 53 l 1,1,-1
 225 259 l 1,2,-1
 178 77 l 1,3,-1
 72 183 l 1,4,-1
 132 462 l 1,5,-1
 410 521 l 1,6,-1
 516 415 l 1,7,-1
 336 368 l 1,8,-1
 541 162 l 1,0,-1
EndSplineSet
EndChar

StartChar: uni2197
Encoding: 8599 8599 674
Width: 600
Flags: W
LayerCount: 2
Fore
SplineSet
542 177 m 1,0,-1
 436 71 l 1,1,-1
 389 251 l 1,2,-1
 183 46 l 1,3,-1
 74 156 l 1,4,-1
 280 362 l 1,5,-1
 98 409 l 1,6,-1
 204 515 l 1,7,-1
 483 455 l 1,8,-1
 542 177 l 1,0,-1
EndSplineSet
EndChar

StartChar: uni2198
Encoding: 8600 8600 675
Width: 600
Flags: W
LayerCount: 2
Fore
SplineSet
436 487 m 1,0,-1
 542 381 l 1,1,-1
 482 102 l 1,2,-1
 204 43 l 1,3,-1
 98 149 l 1,4,-1
 278 196 l 1,5,-1
 73 402 l 1,6,-1
 183 511 l 1,7,-1
 389 305 l 1,8,-1
 436 487 l 1,0,-1
EndSplineSet
EndChar

StartChar: uni2199
Encoding: 8601 8601 676
Width: 600
Flags: W
LayerCount: 2
Fore
SplineSet
540 408 m 1,0,-1
 334 202 l 1,1,-1
 516 155 l 1,2,-1
 410 49 l 1,3,-1
 131 109 l 1,4,-1
 72 387 l 1,5,-1
 178 493 l 1,6,-1
 225 313 l 1,7,-1
 431 518 l 1,8,-1
 540 408 l 1,0,-1
EndSplineSet
EndChar

StartChar: partialdiff
Encoding: 8706 8706 677
Width: 633
Flags: W
LayerCount: 2
Fore
SplineSet
148 691 m 128,-1,1
 214 710 214 710 278 710 c 0,2,3
 376 710 376 710 449.5 665.5 c 128,-1,4
 523 621 523 621 563 540 c 128,-1,5
 603 459 603 459 603 351 c 0,6,7
 603 241 603 241 565.5 160 c 128,-1,8
 528 79 528 79 458 35 c 128,-1,9
 388 -9 388 -9 292 -9 c 0,10,11
 212 -9 212 -9 151 21 c 128,-1,12
 90 51 90 51 56.5 106 c 128,-1,13
 23 161 23 161 23 235 c 0,14,15
 23 303 23 303 52 355 c 128,-1,16
 81 407 81 407 134.5 436 c 128,-1,17
 188 465 188 465 258 465 c 0,18,19
 308 465 308 465 345.5 446.5 c 128,-1,20
 383 428 383 428 405 397 c 1,21,22
 406 471 406 471 370.5 510 c 128,-1,23
 335 549 335 549 265 549 c 0,24,25
 175 549 175 549 113 494 c 1,26,-1
 34 640 l 1,27,0
 82 672 82 672 148 691 c 128,-1,1
237 293 m 128,-1,29
 216 273 216 273 216 236 c 0,30,31
 216 197 216 197 237.5 177 c 128,-1,32
 259 157 259 157 300 157 c 0,33,34
 342 157 342 157 363.5 178 c 128,-1,35
 385 199 385 199 385 235 c 0,36,37
 385 272 385 272 362.5 292.5 c 128,-1,38
 340 313 340 313 298 313 c 0,39,28
 258 313 258 313 237 293 c 128,-1,29
EndSplineSet
EndChar

StartChar: emptyset
Encoding: 8709 8709 678
Width: 567
Flags: W
LayerCount: 2
Fore
SplineSet
490 467 m 1,0,1
 533 405 533 405 533 328 c 0,2,3
 533 261 533 261 499.5 204.5 c 128,-1,4
 466 148 466 148 409.5 115 c 128,-1,5
 353 82 353 82 286 82 c 0,6,7
 243 82 243 82 203.5 96 c 128,-1,8
 164 110 164 110 132 136 c 1,9,-1
 50 60 l 1,10,-1
 0 115 l 1,11,-1
 82 191 l 1,12,13
 41 253 41 253 41 328 c 0,14,15
 41 395 41 395 74 451.5 c 128,-1,16
 107 508 107 508 163.5 541 c 128,-1,17
 220 574 220 574 286 574 c 0,18,19
 372 574 372 574 439 521 c 1,20,-1
 517 593 l 1,21,-1
 567 539 l 1,22,-1
 490 467 l 1,0,1
180 282 m 1,24,-1
 340 430 l 1,25,26
 314 443 314 443 286 443 c 0,27,28
 238 443 238 443 204.5 409 c 128,-1,29
 171 375 171 375 171 328 c 0,30,23
 171 303 171 303 180 282 c 1,24,-1
392 377 m 1,32,-1
 230 227 l 1,33,34
 254 212 254 212 286 212 c 0,35,36
 335 212 335 212 369 246 c 128,-1,37
 403 280 403 280 403 328 c 0,38,31
 403 353 403 353 392 377 c 1,32,-1
EndSplineSet
EndChar

StartChar: uni2206
Encoding: 8710 8710 679
Width: 735
Flags: W
LayerCount: 2
Fore
SplineSet
0 0 m 1,0,-1
 0 120 l 1,1,-1
 264 701 l 1,2,-1
 478 701 l 1,3,-1
 735 120 l 1,4,-1
 735 0 l 1,5,-1
 0 0 l 1,0,-1
219 162 m 1,6,-1
 508 162 l 1,7,-1
 365 496 l 1,8,-1
 219 162 l 1,6,-1
EndSplineSet
EndChar

StartChar: product
Encoding: 8719 8719 680
Width: 737
Flags: W
LayerCount: 2
Fore
SplineSet
59 742 m 1,0,-1
 679 742 l 1,1,-1
 679 -194 l 1,2,-1
 477 -194 l 1,3,-1
 477 584 l 1,4,-1
 261 584 l 1,5,-1
 261 -194 l 1,6,-1
 59 -194 l 1,7,-1
 59 742 l 1,0,-1
EndSplineSet
EndChar

StartChar: summation
Encoding: 8721 8721 681
Width: 619
Flags: W
LayerCount: 2
Fore
SplineSet
37 745 m 1,0,-1
 602 745 l 1,1,-1
 602 571 l 1,2,-1
 277 571 l 1,3,-1
 493 301 l 1,4,-1
 277 36 l 1,5,-1
 612 36 l 1,6,-1
 612 -138 l 1,7,-1
 25 -138 l 1,8,-1
 25 5 l 1,9,-1
 273 301 l 1,10,-1
 37 598 l 1,11,-1
 37 745 l 1,0,-1
EndSplineSet
EndChar

StartChar: minus
Encoding: 8722 8722 682
Width: 515
Flags: W
LayerCount: 2
Fore
SplineSet
31 391 m 1,0,-1
 484 391 l 1,1,-1
 484 265 l 1,2,-1
 31 265 l 1,3,-1
 31 391 l 1,0,-1
EndSplineSet
EndChar

StartChar: uni2219
Encoding: 8729 8729 684
Width: 350
Flags: W
LayerCount: 2
Fore
SplineSet
276.5 381.5 m 128,-1,1
 316 342 316 342 316 280 c 0,2,3
 316 217 316 217 276.5 177.5 c 128,-1,4
 237 138 237 138 174 138 c 0,5,6
 112 138 112 138 72.5 177.5 c 128,-1,7
 33 217 33 217 33 280 c 0,8,9
 33 342 33 342 72.5 381.5 c 128,-1,10
 112 421 112 421 174 421 c 0,11,0
 237 421 237 421 276.5 381.5 c 128,-1,1
EndSplineSet
EndChar

StartChar: radical
Encoding: 8730 8730 685
Width: 717
Flags: W
LayerCount: 2
Fore
SplineSet
544 744 m 1,0,-1
 737 744 l 1,1,-1
 470 -159 l 1,2,-1
 255 -159 l 1,3,-1
 125 255 l 1,4,-1
 -3 255 l 1,5,-1
 -3 414 l 1,6,-1
 264 414 l 1,7,-1
 364 41 l 1,8,-1
 544 744 l 1,0,-1
EndSplineSet
EndChar

StartChar: infinity
Encoding: 8734 8734 686
Width: 843
Flags: W
LayerCount: 2
Fore
SplineSet
722.5 490.5 m 128,-1,1
 770 462 770 462 797 411.5 c 128,-1,2
 824 361 824 361 824 298 c 256,3,4
 824 235 824 235 797 184 c 128,-1,5
 770 133 770 133 722.5 104.5 c 128,-1,6
 675 76 675 76 615 76 c 0,7,8
 549 76 549 76 505.5 108.5 c 128,-1,9
 462 141 462 141 423 199 c 1,10,11
 387 141 387 141 342 108.5 c 128,-1,12
 297 76 297 76 228 76 c 0,13,14
 169 76 169 76 121 104.5 c 128,-1,15
 73 133 73 133 46 183.5 c 128,-1,16
 19 234 19 234 19 297 c 256,17,18
 19 360 19 360 46 410.5 c 128,-1,19
 73 461 73 461 121 490 c 128,-1,20
 169 519 169 519 228 519 c 0,21,22
 294 519 294 519 337.5 486.5 c 128,-1,23
 381 454 381 454 420 396 c 1,24,25
 456 454 456 454 501 486.5 c 128,-1,26
 546 519 546 519 615 519 c 0,27,0
 675 519 675 519 722.5 490.5 c 128,-1,1
306.5 234 m 128,-1,29
 336 257 336 257 362 299 c 1,30,31
 335 340 335 340 305.5 362 c 128,-1,32
 276 384 276 384 236 384 c 0,33,34
 201 384 201 384 178 359.5 c 128,-1,35
 155 335 155 335 155 297 c 0,36,37
 155 260 155 260 178 235.5 c 128,-1,38
 201 211 201 211 236 211 c 0,39,28
 277 211 277 211 306.5 234 c 128,-1,29
665.5 236 m 128,-1,41
 689 261 689 261 689 298 c 256,42,43
 689 335 689 335 665.5 359.5 c 128,-1,44
 642 384 642 384 607 384 c 0,45,46
 566 384 566 384 536.5 361 c 128,-1,47
 507 338 507 338 481 296 c 1,48,49
 508 255 508 255 537.5 233 c 128,-1,50
 567 211 567 211 607 211 c 0,51,40
 642 211 642 211 665.5 236 c 128,-1,41
EndSplineSet
EndChar

StartChar: integral
Encoding: 8747 8747 687
Width: 415
Flags: W
LayerCount: 2
Fore
SplineSet
354 716 m 0,1,2
 310 716 310 716 291 693 c 128,-1,3
 272 670 272 670 272 615 c 0,4,5
 272 566 272 566 285 380 c 0,6,7
 299 168 299 168 299 117 c 0,8,9
 299 22 299 22 278 -35 c 128,-1,10
 257 -92 257 -92 212 -118 c 128,-1,11
 167 -144 167 -144 92 -144 c 0,12,13
 53 -144 53 -144 26 -137.5 c 128,-1,14
 -1 -131 -1 -131 -25 -115 c 1,15,-1
 -2 13 l 1,16,17
 37 -6 37 -6 66 -6 c 0,18,19
 113 -6 113 -6 132.5 19 c 128,-1,20
 152 44 152 44 152 103 c 0,21,22
 152 151 152 151 138 359 c 0,23,24
 124 557 124 557 124 597 c 0,25,26
 124 691 124 691 144.5 747.5 c 128,-1,27
 165 804 165 804 209.5 830 c 128,-1,28
 254 856 254 856 329 856 c 0,29,30
 356 856 356 856 379 850.5 c 128,-1,31
 402 845 402 845 431 832 c 1,32,-1
 413 704 l 1,33,0
 381 716 381 716 354 716 c 0,1,2
EndSplineSet
EndChar

StartChar: approxequal
Encoding: 8776 8776 688
Width: 515
Flags: W
LayerCount: 2
Fore
SplineSet
435.5 393 m 128,-1,1
 406 347 406 347 344 347 c 0,2,3
 316 347 316 347 295.5 355.5 c 128,-1,4
 275 364 275 364 252 378 c 0,5,6
 241 385 241 385 231 389.5 c 128,-1,7
 221 394 221 394 214 394 c 0,8,9
 186 394 186 394 186 351 c 1,10,-1
 51 351 l 1,11,12
 51 446 51 446 81 492 c 128,-1,13
 111 538 111 538 173 538 c 0,14,15
 199 538 199 538 219.5 530 c 128,-1,16
 240 522 240 522 264 507 c 0,17,18
 289 491 289 491 302 491 c 0,19,20
 331 491 331 491 331 534 c 1,21,-1
 465 534 l 1,22,0
 465 439 465 439 435.5 393 c 128,-1,1
435 157.5 m 128,-1,24
 405 111 405 111 344 111 c 0,25,26
 316 111 316 111 295.5 119.5 c 128,-1,27
 275 128 275 128 252 142 c 0,28,29
 241 149 241 149 231 153.5 c 128,-1,30
 221 158 221 158 214 158 c 0,31,32
 186 158 186 158 186 115 c 1,33,-1
 51 115 l 1,34,35
 51 210 51 210 81 256.5 c 128,-1,36
 111 303 111 303 173 303 c 0,37,38
 199 303 199 303 219.5 295 c 128,-1,39
 240 287 240 287 264 272 c 0,40,41
 289 256 289 256 302 256 c 0,42,43
 331 256 331 256 331 299 c 1,44,-1
 465 299 l 1,45,23
 465 204 465 204 435 157.5 c 128,-1,24
EndSplineSet
EndChar

StartChar: notequal
Encoding: 8800 8800 689
Width: 515
Flags: W
LayerCount: 2
Fore
SplineSet
484 374 m 1,0,-1
 344 374 l 1,1,-1
 315 282 l 1,2,-1
 484 282 l 1,3,-1
 484 156 l 1,4,-1
 275 156 l 1,5,-1
 231 17 l 1,6,-1
 80 17 l 1,7,-1
 124 156 l 1,8,-1
 31 156 l 1,9,-1
 31 282 l 1,10,-1
 163 282 l 1,11,-1
 192 374 l 1,12,-1
 31 374 l 1,13,-1
 31 500 l 1,14,-1
 232 500 l 1,15,-1
 274 634 l 1,16,-1
 426 634 l 1,17,-1
 384 500 l 1,18,-1
 484 500 l 1,19,-1
 484 374 l 1,0,-1
EndSplineSet
EndChar

StartChar: lessequal
Encoding: 8804 8804 690
Width: 515
Flags: W
LayerCount: 2
Fore
SplineSet
484 656 m 1,0,-1
 484 521 l 1,1,-1
 161 403 l 1,2,-1
 484 283 l 1,3,-1
 484 148 l 1,4,-1
 31 325 l 1,5,-1
 31 479 l 1,6,-1
 484 656 l 1,0,-1
31 118 m 1,7,-1
 484 118 l 1,8,-1
 484 -8 l 1,9,-1
 31 -8 l 1,10,-1
 31 118 l 1,7,-1
EndSplineSet
EndChar

StartChar: greaterequal
Encoding: 8805 8805 691
Width: 515
Flags: W
LayerCount: 2
Fore
SplineSet
31 157 m 1,0,-1
 31 292 l 1,1,-1
 354 410 l 1,2,-1
 31 530 l 1,3,-1
 31 664 l 1,4,-1
 484 488 l 1,5,-1
 484 334 l 1,6,-1
 31 157 l 1,0,-1
31 118 m 1,7,-1
 484 118 l 1,8,-1
 484 -8 l 1,9,-1
 31 -8 l 1,10,-1
 31 118 l 1,7,-1
EndSplineSet
EndChar

StartChar: filledbox
Encoding: 9632 9632 692
Width: 600
Flags: W
LayerCount: 2
Fore
SplineSet
106 459 m 1,0,-1
 494 459 l 1,1,-1
 494 71 l 1,2,-1
 106 71 l 1,3,-1
 106 459 l 1,0,-1
EndSplineSet
EndChar

StartChar: uni25A1
Encoding: 9633 9633 693
Width: 600
Flags: W
LayerCount: 2
Fore
SplineSet
106 459 m 1,0,-1
 494 459 l 1,1,-1
 494 71 l 1,2,-1
 106 71 l 1,3,-1
 106 459 l 1,0,-1
210 355 m 1,4,-1
 210 175 l 1,5,-1
 390 175 l 1,6,-1
 390 355 l 1,7,-1
 210 355 l 1,4,-1
EndSplineSet
EndChar

StartChar: triagup
Encoding: 9650 9650 694
Width: 600
Flags: W
LayerCount: 2
Fore
SplineSet
300 478 m 1,0,-1
 513 52 l 1,1,-1
 87 52 l 1,2,-1
 300 478 l 1,0,-1
EndSplineSet
EndChar

StartChar: uni25B3
Encoding: 9651 9651 695
Width: 600
Flags: W
LayerCount: 2
Fore
SplineSet
300 478 m 1,0,-1
 513 52 l 1,1,-1
 87 52 l 1,2,-1
 300 478 l 1,0,-1
300 290 m 1,3,-1
 223 136 l 1,4,-1
 377 136 l 1,5,-1
 300 290 l 1,3,-1
EndSplineSet
EndChar

StartChar: uni25B6
Encoding: 9654 9654 696
Width: 600
Flags: W
LayerCount: 2
Fore
SplineSet
541 266 m 1,0,-1
 115 53 l 1,1,-1
 115 479 l 1,2,-1
 541 266 l 1,0,-1
EndSplineSet
EndChar

StartChar: uni25B7
Encoding: 9655 9655 697
Width: 600
Flags: W
LayerCount: 2
Fore
SplineSet
541 266 m 1,0,-1
 115 53 l 1,1,-1
 115 479 l 1,2,-1
 541 266 l 1,0,-1
353 266 m 1,3,-1
 199 343 l 1,4,-1
 199 189 l 1,5,-1
 353 266 l 1,3,-1
EndSplineSet
EndChar

StartChar: triagdn
Encoding: 9660 9660 698
Width: 600
Flags: W
LayerCount: 2
Fore
SplineSet
300 52 m 1,0,-1
 87 478 l 1,1,-1
 513 478 l 1,2,-1
 300 52 l 1,0,-1
EndSplineSet
EndChar

StartChar: uni25BD
Encoding: 9661 9661 699
Width: 600
Flags: W
LayerCount: 2
Fore
SplineSet
300 52 m 1,0,-1
 87 478 l 1,1,-1
 513 478 l 1,2,-1
 300 52 l 1,0,-1
300 240 m 1,3,-1
 377 394 l 1,4,-1
 223 394 l 1,5,-1
 300 240 l 1,3,-1
EndSplineSet
EndChar

StartChar: uni25C0
Encoding: 9664 9664 700
Width: 600
Flags: W
LayerCount: 2
Fore
SplineSet
58 265 m 1,0,-1
 484 478 l 1,1,-1
 484 52 l 1,2,-1
 58 265 l 1,0,-1
EndSplineSet
EndChar

StartChar: uni25C1
Encoding: 9665 9665 701
Width: 600
Flags: W
LayerCount: 2
Fore
SplineSet
58 265 m 1,0,-1
 484 478 l 1,1,-1
 484 52 l 1,2,-1
 58 265 l 1,0,-1
246 265 m 1,3,-1
 400 188 l 1,4,-1
 400 342 l 1,5,-1
 246 265 l 1,3,-1
EndSplineSet
EndChar

StartChar: uni25C6
Encoding: 9670 9670 702
Width: 600
Flags: W
LayerCount: 2
Fore
SplineSet
300 540 m 1,0,-1
 574 265 l 1,1,-1
 300 -9 l 1,2,-1
 25 265 l 1,3,-1
 300 540 l 1,0,-1
EndSplineSet
EndChar

StartChar: uni25C7
Encoding: 9671 9671 703
Width: 600
Flags: W
LayerCount: 2
Fore
SplineSet
300 540 m 1,0,-1
 574 265 l 1,1,-1
 300 -9 l 1,2,-1
 25 265 l 1,3,-1
 300 540 l 1,0,-1
300 393 m 1,4,-1
 172 265 l 1,5,-1
 300 138 l 1,6,-1
 427 265 l 1,7,-1
 300 393 l 1,4,-1
EndSplineSet
EndChar

StartChar: lozenge
Encoding: 9674 9674 704
Width: 493
Flags: W
LayerCount: 2
Fore
SplineSet
247 668 m 1,0,-1
 474 330 l 1,1,-1
 246 -11 l 1,2,-1
 19 330 l 1,3,-1
 247 668 l 1,0,-1
247 467 m 1,4,-1
 154 330 l 1,5,-1
 246 192 l 1,6,-1
 339 330 l 1,7,-1
 247 467 l 1,4,-1
EndSplineSet
EndChar

StartChar: uniA78B
Encoding: 42891 42891 705
Width: 326
Flags: W
LayerCount: 2
Fore
SplineSet
59 701 m 1,0,-1
 267 701 l 1,1,-1
 241 297 l 1,2,-1
 59 297 l 1,3,-1
 59 701 l 1,0,-1
EndSplineSet
EndChar

StartChar: uniA78C
Encoding: 42892 42892 706
Width: 320
Flags: W
LayerCount: 2
Fore
SplineSet
59 693 m 1,0,-1
 260 693 l 1,1,-1
 233 297 l 1,2,-1
 59 297 l 1,3,-1
 59 693 l 1,0,-1
EndSplineSet
Substitution2: "<3,3> Small Caps in Latin lookup 11 subtable" uniA78C.sc
EndChar

StartChar: A.ss01
Encoding: 65538 -1 709
Width: 750
Flags: W
LayerCount: 2
Fore
SplineSet
88 570 m 128,-1,1
 128 639 128 639 201.5 676.5 c 128,-1,2
 275 714 275 714 373 714 c 0,3,4
 473 714 473 714 547 676.5 c 128,-1,5
 621 639 621 639 661.5 570 c 128,-1,6
 702 501 702 501 702 409 c 2,7,-1
 702 0 l 1,8,-1
 494 0 l 1,9,-1
 494 158 l 1,10,-1
 256 158 l 1,11,-1
 256 0 l 1,12,-1
 48 0 l 1,13,-1
 48 409 l 2,14,0
 48 501 48 501 88 570 c 128,-1,1
461.5 505 m 128,-1,16
 429 541 429 541 375 541 c 0,17,18
 320 541 320 541 288 505 c 128,-1,19
 256 469 256 469 256 409 c 2,20,-1
 256 310 l 1,21,-1
 494 310 l 1,22,-1
 494 409 l 2,23,15
 494 469 494 469 461.5 505 c 128,-1,16
EndSplineSet
EndChar

StartChar: Adieresis.alt
Encoding: 65553 -1 724
Width: 786
Flags: W
LayerCount: 2
Fore
SplineSet
99.5 592.5 m 128,-1,1
 81 611 81 611 81 639 c 0,2,3
 81 668 81 668 99.5 686 c 128,-1,4
 118 704 118 704 146 704 c 0,5,6
 175 704 175 704 193 686 c 128,-1,7
 211 668 211 668 211 639 c 0,8,9
 211 611 211 611 193 592.5 c 128,-1,10
 175 574 175 574 146 574 c 0,11,0
 118 574 118 574 99.5 592.5 c 128,-1,1
604 592.5 m 128,-1,13
 586 611 586 611 586 639 c 0,14,15
 586 668 586 668 604 686 c 128,-1,16
 622 704 622 704 651 704 c 0,17,18
 679 704 679 704 697 686 c 128,-1,19
 715 668 715 668 715 639 c 0,20,21
 715 611 715 611 697 592.5 c 128,-1,22
 679 574 679 574 651 574 c 0,23,12
 622 574 622 574 604 592.5 c 128,-1,13
572 0 m 1,24,-1
 531 112 l 1,25,-1
 248 112 l 1,26,-1
 206 0 l 1,27,-1
 -8 0 l 1,28,-1
 291 701 l 1,29,-1
 505 701 l 1,30,-1
 794 0 l 1,31,-1
 572 0 l 1,24,-1
306 264 m 1,32,-1
 476 264 l 1,33,-1
 392 493 l 1,34,-1
 306 264 l 1,32,-1
EndSplineSet
EndChar

StartChar: Aogonek.ss01
Encoding: 65560 -1 731
Width: 750
Flags: W
LayerCount: 2
Fore
SplineSet
594 -48.5 m 128,-1,1
 575 -71 575 -71 575 -94 c 0,2,3
 575 -120 575 -120 597 -120 c 0,4,5
 609 -120 609 -120 623 -112 c 1,6,-1
 653 -215 l 1,7,8
 602 -238 602 -238 551 -238 c 0,9,10
 496 -238 496 -238 466.5 -207 c 128,-1,11
 437 -176 437 -176 437 -127 c 0,12,13
 437 -60 437 -60 494 3 c 1,14,-1
 494 158 l 1,15,-1
 256 158 l 1,16,-1
 256 0 l 1,17,-1
 48 0 l 1,18,-1
 48 409 l 2,19,20
 48 501 48 501 88 570 c 128,-1,21
 128 639 128 639 201.5 676.5 c 128,-1,22
 275 714 275 714 373 714 c 0,23,24
 473 714 473 714 547 676.5 c 128,-1,25
 621 639 621 639 661.5 570 c 128,-1,26
 702 501 702 501 702 409 c 2,27,-1
 702 0 l 1,28,-1
 648 0 l 1,29,0
 613 -26 613 -26 594 -48.5 c 128,-1,1
494 310 m 1,30,-1
 494 409 l 2,31,32
 494 469 494 469 461.5 505 c 128,-1,33
 429 541 429 541 375 541 c 0,34,35
 320 541 320 541 288 505 c 128,-1,36
 256 469 256 469 256 409 c 2,37,-1
 256 310 l 1,38,-1
 494 310 l 1,30,-1
EndSplineSet
EndChar

StartChar: E.ss01
Encoding: 65566 -1 737
Width: 658
Flags: W
LayerCount: 2
Fore
SplineSet
264.5 265.5 m 128,-1,1
 236 250 236 250 236 222 c 0,2,3
 236 191 236 191 269.5 172 c 128,-1,4
 303 153 303 153 355 153 c 0,5,6
 405 153 405 153 468 170 c 128,-1,7
 531 187 531 187 570 211 c 1,8,-1
 649 60 l 1,9,10
 591 26 591 26 506.5 6 c 128,-1,11
 422 -14 422 -14 335 -14 c 0,12,13
 240 -14 240 -14 169 11 c 128,-1,14
 98 36 98 36 59.5 82 c 128,-1,15
 21 128 21 128 21 191 c 0,16,17
 21 255 21 255 60 301.5 c 128,-1,18
 99 348 99 348 170 370 c 1,19,20
 120 391 120 391 91.5 433.5 c 128,-1,21
 63 476 63 476 63 529 c 0,22,23
 63 587 63 587 98 629 c 128,-1,24
 133 671 133 671 199 694 c 128,-1,25
 265 717 265 717 354 717 c 0,26,27
 429 717 429 717 502 702 c 128,-1,28
 575 687 575 687 621 663 c 1,29,-1
 555 511 l 1,30,31
 514 529 514 529 465.5 539.5 c 128,-1,32
 417 550 417 550 372 550 c 0,33,34
 319 550 319 550 289 533.5 c 128,-1,35
 259 517 259 517 259 489 c 0,36,37
 259 463 259 463 283 449 c 128,-1,38
 307 435 307 435 342 435 c 2,39,-1
 525 435 l 1,40,-1
 525 281 l 1,41,-1
 342 281 l 2,42,0
 293 281 293 281 264.5 265.5 c 128,-1,1
EndSplineSet
EndChar

StartChar: uni1E1C.ss01
Encoding: 65570 -1 741
Width: 658
Flags: W
LayerCount: 2
Fore
SplineSet
205.5 799.5 m 128,-1,1
 158 845 158 845 154 921 c 1,2,-1
 277 921 l 1,3,4
 279 897 279 897 293 882 c 128,-1,5
 307 867 307 867 329 867 c 256,6,7
 351 867 351 867 365 882 c 128,-1,8
 379 897 379 897 381 921 c 1,9,-1
 504 921 l 1,10,11
 500 845 500 845 452.5 799.5 c 128,-1,12
 405 754 405 754 329 754 c 256,13,0
 253 754 253 754 205.5 799.5 c 128,-1,1
473 -139 m 0,15,16
 473 -189 473 -189 434.5 -214 c 128,-1,17
 396 -239 396 -239 340 -239 c 0,18,19
 283 -239 283 -239 226 -219 c 1,20,-1
 254 -134 l 1,21,22
 274 -142 274 -142 302 -142 c 0,23,24
 320 -142 320 -142 331.5 -136.5 c 128,-1,25
 343 -131 343 -131 343 -122 c 0,26,27
 343 -111 343 -111 327 -105 c 128,-1,28
 311 -99 311 -99 287 -99 c 2,29,-1
 267 -99 l 1,30,-1
 295 -13 l 1,31,32
 168 -5 168 -5 94.5 49 c 128,-1,33
 21 103 21 103 21 191 c 0,34,35
 21 255 21 255 60 301.5 c 128,-1,36
 99 348 99 348 170 370 c 1,37,38
 120 391 120 391 91.5 433.5 c 128,-1,39
 63 476 63 476 63 529 c 0,40,41
 63 587 63 587 98 629 c 128,-1,42
 133 671 133 671 199 694 c 128,-1,43
 265 717 265 717 354 717 c 0,44,45
 429 717 429 717 502 702 c 128,-1,46
 575 687 575 687 621 663 c 1,47,-1
 555 511 l 1,48,49
 514 529 514 529 465.5 539.5 c 128,-1,50
 417 550 417 550 372 550 c 0,51,52
 319 550 319 550 289 533.5 c 128,-1,53
 259 517 259 517 259 489 c 0,54,55
 259 463 259 463 283 449 c 128,-1,56
 307 435 307 435 342 435 c 2,57,-1
 525 435 l 1,58,-1
 525 281 l 1,59,-1
 342 281 l 2,60,61
 293 281 293 281 264.5 265.5 c 128,-1,62
 236 250 236 250 236 222 c 0,63,64
 236 191 236 191 269.5 172 c 128,-1,65
 303 153 303 153 355 153 c 0,66,67
 405 153 405 153 468 170 c 128,-1,68
 531 187 531 187 570 211 c 1,69,-1
 649 60 l 1,70,71
 604 33 604 33 540.5 15 c 128,-1,72
 477 -3 477 -3 407 -10 c 1,73,-1
 390 -57 l 1,74,14
 473 -78 473 -78 473 -139 c 0,15,16
EndSplineSet
EndChar

StartChar: Eogonek.ss01
Encoding: 65587 -1 758
Width: 658
Flags: W
LayerCount: 2
Fore
SplineSet
600 -112 m 1,1,-1
 630 -215 l 1,2,3
 577 -238 577 -238 531 -238 c 0,4,5
 479 -238 479 -238 446 -210 c 128,-1,6
 413 -182 413 -182 413 -128 c 0,7,8
 413 -94 413 -94 427.5 -63.5 c 128,-1,9
 442 -33 442 -33 472 -1 c 1,10,11
 401 -14 401 -14 335 -14 c 0,12,13
 240 -14 240 -14 169 11 c 128,-1,14
 98 36 98 36 59.5 82 c 128,-1,15
 21 128 21 128 21 191 c 0,16,17
 21 255 21 255 60 301.5 c 128,-1,18
 99 348 99 348 170 370 c 1,19,20
 120 391 120 391 91.5 433.5 c 128,-1,21
 63 476 63 476 63 529 c 0,22,23
 63 587 63 587 98 629 c 128,-1,24
 133 671 133 671 199 694 c 128,-1,25
 265 717 265 717 354 717 c 0,26,27
 429 717 429 717 502 702 c 128,-1,28
 575 687 575 687 621 663 c 1,29,-1
 555 511 l 1,30,31
 514 529 514 529 465.5 539.5 c 128,-1,32
 417 550 417 550 372 550 c 0,33,34
 319 550 319 550 289 533.5 c 128,-1,35
 259 517 259 517 259 489 c 0,36,37
 259 463 259 463 283 449 c 128,-1,38
 307 435 307 435 342 435 c 2,39,-1
 525 435 l 1,40,-1
 525 281 l 1,41,-1
 342 281 l 2,42,43
 293 281 293 281 264.5 265.5 c 128,-1,44
 236 250 236 250 236 222 c 0,45,46
 236 191 236 191 269.5 172 c 128,-1,47
 303 153 303 153 355 153 c 0,48,49
 405 153 405 153 468 170 c 128,-1,50
 531 187 531 187 570 211 c 1,51,-1
 649 60 l 1,52,-1
 628 48 l 1,53,54
 593 13 593 13 572.5 -24.5 c 128,-1,55
 552 -62 552 -62 552 -91 c 256,56,57
 552 -120 552 -120 572 -120 c 0,58,0
 586 -120 586 -120 600 -112 c 1,1,-1
EndSplineSet
EndChar

StartChar: F.ss01
Encoding: 65589 -1 760
Width: 570
Flags: W
LayerCount: 2
Fore
SplineSet
279 514 m 128,-1,1
 257 492 257 492 257 455 c 2,2,-1
 257 399 l 1,3,-1
 513 399 l 1,4,-1
 513 239 l 1,5,-1
 257 239 l 1,6,-1
 257 0 l 1,7,-1
 48 0 l 1,8,-1
 48 459 l 2,9,10
 48 534 48 534 81.5 591 c 128,-1,11
 115 648 115 648 176 679 c 128,-1,12
 237 710 237 710 319 710 c 0,13,14
 390 710 390 710 460 697 c 128,-1,15
 530 684 530 684 577 663 c 1,16,-1
 530 492 l 1,17,18
 485 511 485 511 431.5 523.5 c 128,-1,19
 378 536 378 536 338 536 c 0,20,0
 301 536 301 536 279 514 c 128,-1,1
EndSplineSet
EndChar

StartChar: G.ss01
Encoding: 65590 -1 761
Width: 741
Flags: W
LayerCount: 2
Fore
SplineSet
517 367 m 1,0,-1
 696 367 l 1,1,-1
 696 0 l 1,2,-1
 544 0 l 1,3,-1
 544 42 l 1,4,5
 505 15 505 15 461.5 0.5 c 128,-1,6
 418 -14 418 -14 374 -14 c 0,7,8
 273 -14 273 -14 192 33.5 c 128,-1,9
 111 81 111 81 65 164 c 128,-1,10
 19 247 19 247 19 351 c 0,11,12
 19 454 19 454 69.5 537 c 128,-1,13
 120 620 120 620 208 667 c 128,-1,14
 296 714 296 714 406 714 c 0,15,16
 487 714 487 714 568.5 684.5 c 128,-1,17
 650 655 650 655 706 606 c 1,18,-1
 588 464 l 1,19,20
 552 499 552 499 503.5 520 c 128,-1,21
 455 541 455 541 409 541 c 0,22,23
 359 541 359 541 318.5 516 c 128,-1,24
 278 491 278 491 255 447.5 c 128,-1,25
 232 404 232 404 232 351 c 0,26,27
 232 297 232 297 253.5 253 c 128,-1,28
 275 209 275 209 313 184 c 128,-1,29
 351 159 351 159 397 159 c 0,30,31
 431 159 431 159 462.5 173.5 c 128,-1,32
 494 188 494 188 517 214 c 1,33,-1
 517 367 l 1,0,-1
EndSplineSet
EndChar

StartChar: I.ss01
Encoding: 65597 -1 768
Width: 516
Flags: W
LayerCount: 2
Fore
SplineSet
473 541 m 1,0,-1
 362 541 l 1,1,-1
 362 160 l 1,2,-1
 473 160 l 1,3,-1
 473 0 l 1,4,-1
 42 0 l 1,5,-1
 42 160 l 1,6,-1
 154 160 l 1,7,-1
 154 541 l 1,8,-1
 42 541 l 1,9,-1
 42 701 l 1,10,-1
 473 701 l 1,11,-1
 473 541 l 1,0,-1
EndSplineSet
EndChar

StartChar: Iogonek.ss01
Encoding: 65613 -1 784
Width: 516
Flags: W
LayerCount: 2
Fore
SplineSet
362 541 m 1,0,-1
 362 160 l 1,1,-1
 473 160 l 1,2,-1
 473 0 l 1,3,-1
 308 0 l 1,4,5
 273 -26 273 -26 254 -48.5 c 128,-1,6
 235 -71 235 -71 235 -94 c 0,7,8
 235 -120 235 -120 257 -120 c 0,9,10
 269 -120 269 -120 283 -112 c 1,11,-1
 313 -215 l 1,12,13
 262 -238 262 -238 211 -238 c 0,14,15
 156 -238 156 -238 126.5 -207 c 128,-1,16
 97 -176 97 -176 97 -127 c 0,17,18
 97 -62 97 -62 151 0 c 1,19,-1
 42 0 l 1,20,-1
 42 160 l 1,21,-1
 154 160 l 1,22,-1
 154 541 l 1,23,-1
 42 541 l 1,24,-1
 42 701 l 1,25,-1
 473 701 l 1,26,-1
 473 541 l 1,27,-1
 362 541 l 1,0,-1
EndSplineSet
EndChar

StartChar: J.ss01
Encoding: 65615 -1 786
Width: 554
Flags: W
LayerCount: 2
Fore
SplineSet
438.5 -45.5 m 128,-1,1
 370 -109 370 -109 252 -109 c 0,2,3
 99 -109 99 -109 -7 8 c 1,4,-1
 88 145 l 1,5,6
 126 106 126 106 165.5 86 c 128,-1,7
 205 66 205 66 235 66 c 0,8,9
 264 66 264 66 281 84 c 128,-1,10
 298 102 298 102 298 137 c 2,11,-1
 298 535 l 1,12,-1
 59 535 l 1,13,-1
 59 701 l 1,14,-1
 507 701 l 1,15,-1
 507 132 l 2,16,0
 507 18 507 18 438.5 -45.5 c 128,-1,1
EndSplineSet
EndChar

StartChar: M.ss01
Encoding: 65620 -1 791
Width: 1167
Flags: W
LayerCount: 2
Fore
SplineSet
1012 682 m 128,-1,1
 1063 650 1063 650 1091.5 592 c 128,-1,2
 1120 534 1120 534 1120 457 c 2,3,-1
 1120 0 l 1,4,-1
 909 0 l 1,5,-1
 909 407 l 2,6,7
 909 462 909 462 882 494.5 c 128,-1,8
 855 527 855 527 808 527 c 0,9,10
 757 527 757 527 725 489 c 128,-1,11
 693 451 693 451 693 392 c 2,12,-1
 693 0 l 1,13,-1
 482 0 l 1,14,-1
 483 407 l 2,15,16
 483 462 483 462 456 494.5 c 128,-1,17
 429 527 429 527 382 527 c 0,18,19
 331 527 331 527 299 489.5 c 128,-1,20
 267 452 267 452 267 392 c 2,21,-1
 267 0 l 1,22,-1
 59 0 l 1,23,-1
 59 702 l 1,24,-1
 267 702 l 1,25,-1
 267 604 l 1,26,27
 300 657 300 657 351.5 685.5 c 128,-1,28
 403 714 403 714 468 714 c 0,29,30
 542 714 542 714 596 675.5 c 128,-1,31
 650 637 650 637 675 569 c 1,32,33
 705 638 705 638 762 676 c 128,-1,34
 819 714 819 714 894 714 c 0,35,0
 961 714 961 714 1012 682 c 128,-1,1
EndSplineSet
EndChar

StartChar: N.ss01
Encoding: 65622 -1 793
Width: 763
Flags: W
LayerCount: 2
Fore
SplineSet
602.5 682 m 128,-1,1
 656 650 656 650 685.5 592 c 128,-1,2
 715 534 715 534 715 457 c 2,3,-1
 715 0 l 1,4,-1
 504 0 l 1,5,-1
 504 407 l 2,6,7
 504 461 504 461 474.5 494 c 128,-1,8
 445 527 445 527 396 527 c 0,9,10
 338 527 338 527 302.5 489.5 c 128,-1,11
 267 452 267 452 267 392 c 2,12,-1
 267 0 l 1,13,-1
 59 0 l 1,14,-1
 59 701 l 1,15,-1
 267 701 l 1,16,-1
 267 601 l 1,17,18
 302 655 302 655 356 684.5 c 128,-1,19
 410 714 410 714 478 714 c 0,20,0
 549 714 549 714 602.5 682 c 128,-1,1
EndSplineSet
EndChar

StartChar: Eng.ss01
Encoding: 65629 -1 800
Width: 763
Flags: W
LayerCount: 2
Fore
SplineSet
602.5 669 m 128,-1,1
 656 637 656 637 685.5 578.5 c 128,-1,2
 715 520 715 520 715 443 c 2,3,-1
 715 0 l 1,4,5
 710 -103 710 -103 641.5 -161.5 c 128,-1,6
 573 -220 573 -220 461 -220 c 0,7,8
 363 -220 363 -220 286 -172 c 1,9,-1
 354 -16 l 1,10,11
 409 -45 409 -45 448 -45 c 0,12,13
 475 -45 475 -45 489.5 -30 c 128,-1,14
 504 -15 504 -15 504 14 c 2,15,-1
 504 394 l 2,16,17
 504 448 504 448 474.5 481 c 128,-1,18
 445 514 445 514 396 514 c 0,19,20
 338 513 338 513 302.5 476 c 128,-1,21
 267 439 267 439 267 379 c 2,22,-1
 267 0 l 1,23,-1
 59 0 l 1,24,-1
 59 701 l 1,25,-1
 267 701 l 1,26,-1
 267 587 l 1,27,28
 302 641 302 641 356 670.5 c 128,-1,29
 410 700 410 700 478 701 c 0,30,0
 549 701 549 701 602.5 669 c 128,-1,1
EndSplineSet
EndChar

StartChar: Q.ss01
Encoding: 65633 -1 804
Width: 802
Flags: W
LayerCount: 2
Fore
SplineSet
747 190 m 128,-1,1
 711 116 711 116 646 65.5 c 128,-1,2
 581 15 581 15 496 -4 c 1,3,-1
 496 -148 l 1,4,-1
 306 -148 l 1,5,-1
 306 -4 l 1,6,7
 221 15 221 15 156 65 c 128,-1,8
 91 115 91 115 55 189.5 c 128,-1,9
 19 264 19 264 19 352 c 0,10,11
 19 455 19 455 68.5 537.5 c 128,-1,12
 118 620 118 620 205 667 c 128,-1,13
 292 714 292 714 401 714 c 0,14,15
 509 714 509 714 596.5 667 c 128,-1,16
 684 620 684 620 733.5 537.5 c 128,-1,17
 783 455 783 455 783 352 c 0,18,0
 783 264 783 264 747 190 c 128,-1,1
487.5 184.5 m 128,-1,20
 526 210 526 210 548 253.5 c 128,-1,21
 570 297 570 297 570 351 c 0,22,23
 570 404 570 404 548 447.5 c 128,-1,24
 526 491 526 491 488 516 c 128,-1,25
 450 541 450 541 404 541 c 256,26,27
 358 541 358 541 318.5 516 c 128,-1,28
 279 491 279 491 255.5 447.5 c 128,-1,29
 232 404 232 404 232 351 c 256,30,31
 232 298 232 298 255.5 254 c 128,-1,32
 279 210 279 210 318.5 184.5 c 128,-1,33
 358 159 358 159 404 159 c 0,34,19
 449 159 449 159 487.5 184.5 c 128,-1,20
EndSplineSet
EndChar

StartChar: uni018F.ss01
Encoding: 65634 -1 805
Width: 777
Flags: W
LayerCount: 2
Fore
SplineSet
569.5 667 m 128,-1,1
 654 620 654 620 702 537.5 c 128,-1,2
 750 455 750 455 750 352 c 0,3,4
 750 248 750 248 702 164.5 c 128,-1,5
 654 81 654 81 569.5 33.5 c 128,-1,6
 485 -14 485 -14 380 -14 c 0,7,8
 279 -14 279 -14 205 24.5 c 128,-1,9
 131 63 131 63 86.5 126 c 128,-1,10
 42 189 42 189 23 264 c 1,11,-1
 512 460 l 1,12,13
 491 499 491 499 457 520 c 128,-1,14
 423 541 423 541 383 541 c 0,15,16
 337 541 337 541 298.5 517 c 128,-1,17
 260 493 260 493 237 452 c 1,18,-1
 93 598 l 1,19,20
 146 654 146 654 218.5 684 c 128,-1,21
 291 714 291 714 379 714 c 0,22,0
 485 714 485 714 569.5 667 c 128,-1,1
493.5 209.5 m 128,-1,24
 535 260 535 260 538 338 c 1,25,-1
 259 224 l 1,26,27
 279 195 279 195 310.5 177 c 128,-1,28
 342 159 342 159 382 159 c 0,29,23
 452 159 452 159 493.5 209.5 c 128,-1,24
EndSplineSet
EndChar

StartChar: T.ss01
Encoding: 65635 -1 806
Width: 700
Flags: W
LayerCount: 2
Fore
SplineSet
623 477 m 1,0,1
 543 518 543 518 449 533 c 1,2,-1
 449 0 l 1,3,-1
 241 0 l 1,4,-1
 241 533 l 1,5,6
 147 517 147 517 68 477 c 1,7,-1
 14 632 l 1,8,9
 85 672 85 672 170 693 c 128,-1,10
 255 714 255 714 344 714 c 0,11,12
 434 714 434 714 519 693 c 128,-1,13
 604 672 604 672 677 631 c 1,14,-1
 623 477 l 1,0,1
EndSplineSet
EndChar

StartChar: Tbar.ss01
Encoding: 65636 -1 807
Width: 700
Flags: W
LayerCount: 2
Fore
SplineSet
449 533 m 1,1,-1
 449 359 l 1,2,-1
 568 359 l 1,3,-1
 568 251 l 1,4,-1
 449 251 l 1,5,-1
 449 0 l 1,6,-1
 241 0 l 1,7,-1
 241 251 l 1,8,-1
 121 251 l 1,9,-1
 121 359 l 1,10,-1
 241 359 l 1,11,-1
 241 533 l 1,12,13
 147 517 147 517 68 477 c 1,14,-1
 14 632 l 1,15,16
 85 672 85 672 170 693 c 128,-1,17
 255 714 255 714 344 714 c 0,18,19
 434 714 434 714 519 693 c 128,-1,20
 604 672 604 672 677 631 c 1,21,-1
 623 477 l 1,22,0
 543 518 543 518 449 533 c 1,1,-1
EndSplineSet
EndChar

StartChar: uni0162.ss01
Encoding: 65638 -1 809
Width: 700
Flags: W
LayerCount: 2
Fore
SplineSet
406 0 m 1,0,-1
 385 -57 l 1,1,2
 468 -78 468 -78 468 -139 c 0,3,4
 468 -189 468 -189 429.5 -214 c 128,-1,5
 391 -239 391 -239 335 -239 c 0,6,7
 278 -239 278 -239 221 -219 c 1,8,-1
 249 -134 l 1,9,10
 269 -142 269 -142 297 -142 c 0,11,12
 315 -142 315 -142 326.5 -136.5 c 128,-1,13
 338 -131 338 -131 338 -122 c 0,14,15
 338 -111 338 -111 322 -105 c 128,-1,16
 306 -99 306 -99 282 -99 c 2,17,-1
 262 -99 l 1,18,-1
 294 0 l 1,19,-1
 241 0 l 1,20,-1
 241 533 l 1,21,22
 147 517 147 517 68 477 c 1,23,-1
 14 632 l 1,24,25
 85 672 85 672 170 693 c 128,-1,26
 255 714 255 714 344 714 c 0,27,28
 434 714 434 714 519 693 c 128,-1,29
 604 672 604 672 677 631 c 1,30,-1
 623 477 l 1,31,32
 543 518 543 518 449 533 c 1,33,-1
 449 0 l 1,34,-1
 406 0 l 1,0,-1
EndSplineSet
EndChar

StartChar: U.ss01
Encoding: 65642 -1 813
Width: 763
Flags: W
LayerCount: 2
Fore
SplineSet
704 701 m 1,0,-1
 704 0 l 1,1,-1
 496 0 l 1,2,-1
 496 102 l 1,3,4
 461 46 461 46 407 16 c 128,-1,5
 353 -14 353 -14 285 -14 c 0,6,7
 214 -14 214 -14 160.5 18.5 c 128,-1,8
 107 51 107 51 77.5 111 c 128,-1,9
 48 171 48 171 48 251 c 2,10,-1
 48 701 l 1,11,-1
 258 701 l 1,12,-1
 258 300 l 2,13,14
 258 243 258 243 288 208 c 128,-1,15
 318 173 318 173 367 173 c 0,16,17
 425 173 425 173 460.5 213 c 128,-1,18
 496 253 496 253 496 316 c 2,19,-1
 496 701 l 1,20,-1
 704 701 l 1,0,-1
EndSplineSet
EndChar

StartChar: Udieresis.alt
Encoding: 65647 -1 818
Width: 745
Flags: W
LayerCount: 2
Fore
SplineSet
416 685.5 m 128,-1,1
 434 667 434 667 434 638 c 0,2,3
 434 610 434 610 416 591.5 c 128,-1,4
 398 573 398 573 370 573 c 256,5,6
 342 573 342 573 323.5 591.5 c 128,-1,7
 305 610 305 610 305 638 c 0,8,9
 305 667 305 667 323 685.5 c 128,-1,10
 341 704 341 704 370 704 c 0,11,0
 398 704 398 704 416 685.5 c 128,-1,1
290 195 m 128,-1,13
 324 159 324 159 375 159 c 0,14,15
 425 159 425 159 457 194.5 c 128,-1,16
 489 230 489 230 489 290 c 2,17,-1
 489 701 l 1,18,-1
 697 701 l 1,19,-1
 697 290 l 2,20,21
 697 198 697 198 657.5 129.5 c 128,-1,22
 618 61 618 61 545 23.5 c 128,-1,23
 472 -14 472 -14 375 -14 c 0,24,25
 277 -14 277 -14 203 23.5 c 128,-1,26
 129 61 129 61 88.5 129.5 c 128,-1,27
 48 198 48 198 48 290 c 2,28,-1
 48 701 l 1,29,-1
 256 701 l 1,30,-1
 256 290 l 2,31,12
 256 231 256 231 290 195 c 128,-1,13
415.5 503.5 m 128,-1,33
 434 485 434 485 434 456 c 0,34,35
 434 428 434 428 415.5 409 c 128,-1,36
 397 390 397 390 369 390 c 256,37,38
 341 390 341 390 323 409 c 128,-1,39
 305 428 305 428 305 456 c 0,40,41
 305 485 305 485 323 503.5 c 128,-1,42
 341 522 341 522 369 522 c 256,43,32
 397 522 397 522 415.5 503.5 c 128,-1,33
EndSplineSet
EndChar

StartChar: Udieresis.ss01.alt
Encoding: 65649 -1 820
Width: 763
Flags: W
LayerCount: 2
Fore
SplineSet
330.5 591.5 m 128,-1,1
 312 610 312 610 312 638 c 0,2,3
 312 667 312 667 330 685.5 c 128,-1,4
 348 704 348 704 377 704 c 0,5,6
 405 704 405 704 423 685.5 c 128,-1,7
 441 667 441 667 441 638 c 0,8,9
 441 610 441 610 423 591.5 c 128,-1,10
 405 573 405 573 377 573 c 256,11,0
 349 573 349 573 330.5 591.5 c 128,-1,1
704 701 m 1,12,-1
 704 0 l 1,13,-1
 496 0 l 1,14,-1
 496 102 l 1,15,16
 461 46 461 46 407 16 c 128,-1,17
 353 -14 353 -14 285 -14 c 0,18,19
 214 -14 214 -14 160.5 18.5 c 128,-1,20
 107 51 107 51 77.5 111 c 128,-1,21
 48 171 48 171 48 251 c 2,22,-1
 48 701 l 1,23,-1
 258 701 l 1,24,-1
 258 300 l 2,25,26
 258 243 258 243 288 208 c 128,-1,27
 318 173 318 173 367 173 c 0,28,29
 425 173 425 173 460.5 213 c 128,-1,30
 496 253 496 253 496 316 c 2,31,-1
 496 701 l 1,32,-1
 704 701 l 1,12,-1
330 409 m 128,-1,34
 312 428 312 428 312 456 c 0,35,36
 312 485 312 485 330 503.5 c 128,-1,37
 348 522 348 522 376 522 c 256,38,39
 404 522 404 522 422.5 503.5 c 128,-1,40
 441 485 441 485 441 456 c 0,41,42
 441 428 441 428 422.5 409 c 128,-1,43
 404 390 404 390 376 390 c 256,44,33
 348 390 348 390 330 409 c 128,-1,34
EndSplineSet
EndChar

StartChar: Uhorn.ss01
Encoding: 65653 -1 824
Width: 809
Flags: W
LayerCount: 2
Fore
SplineSet
831 751 m 0,1,2
 831 696 831 696 798.5 659.5 c 128,-1,3
 766 623 766 623 704 609 c 1,4,-1
 704 0 l 1,5,-1
 496 0 l 1,6,-1
 496 102 l 1,7,8
 461 46 461 46 407 16 c 128,-1,9
 353 -14 353 -14 285 -14 c 0,10,11
 214 -14 214 -14 160.5 18.5 c 128,-1,12
 107 51 107 51 77.5 111 c 128,-1,13
 48 171 48 171 48 251 c 2,14,-1
 48 701 l 1,15,-1
 258 701 l 1,16,-1
 258 300 l 2,17,18
 258 243 258 243 288 208 c 128,-1,19
 318 173 318 173 367 173 c 0,20,21
 425 173 425 173 460.5 213 c 128,-1,22
 496 253 496 253 496 316 c 2,23,-1
 496 701 l 1,24,-1
 631 701 l 2,25,26
 658 701 658 701 671.5 715.5 c 128,-1,27
 685 730 685 730 685 752 c 0,28,29
 685 778 685 778 668 802 c 1,30,-1
 808 854 l 1,31,0
 831 796 831 796 831 751 c 0,1,2
EndSplineSet
EndChar

StartChar: Uogonek.ss01
Encoding: 65663 -1 834
Width: 763
Flags: W
LayerCount: 2
Fore
SplineSet
595 -48.5 m 128,-1,1
 576 -71 576 -71 576 -94 c 0,2,3
 576 -120 576 -120 598 -120 c 0,4,5
 610 -120 610 -120 624 -112 c 1,6,-1
 654 -215 l 1,7,8
 603 -238 603 -238 552 -238 c 0,9,10
 497 -238 497 -238 467.5 -207 c 128,-1,11
 438 -176 438 -176 438 -127 c 0,12,13
 438 -58 438 -58 496 4 c 1,14,-1
 496 102 l 1,15,16
 461 46 461 46 407 16 c 128,-1,17
 353 -14 353 -14 285 -14 c 0,18,19
 214 -14 214 -14 160.5 18.5 c 128,-1,20
 107 51 107 51 77.5 111 c 128,-1,21
 48 171 48 171 48 251 c 2,22,-1
 48 701 l 1,23,-1
 258 701 l 1,24,-1
 258 300 l 2,25,26
 258 243 258 243 288 208 c 128,-1,27
 318 173 318 173 367 173 c 0,28,29
 425 173 425 173 460.5 213 c 128,-1,30
 496 253 496 253 496 316 c 2,31,-1
 496 701 l 1,32,-1
 704 701 l 1,33,-1
 704 0 l 1,34,-1
 649 0 l 1,35,0
 614 -26 614 -26 595 -48.5 c 128,-1,1
EndSplineSet
EndChar

StartChar: W.ss01
Encoding: 65667 -1 838
Width: 1142
Flags: W
LayerCount: 2
Fore
SplineSet
1058 127 m 128,-1,1
 1022 61 1022 61 959 23.5 c 128,-1,2
 896 -14 896 -14 817 -14 c 0,3,4
 741 -14 741 -14 674 20.5 c 128,-1,5
 607 55 607 55 572 109 c 1,6,7
 537 54 537 54 471 20 c 128,-1,8
 405 -14 405 -14 329 -14 c 0,9,10
 249 -14 249 -14 184.5 23.5 c 128,-1,11
 120 61 120 61 84 127 c 128,-1,12
 48 193 48 193 48 276 c 2,13,-1
 48 701 l 1,14,-1
 256 701 l 1,15,-1
 256 276 l 2,16,17
 256 226 256 226 286.5 193 c 128,-1,18
 317 160 317 160 362 160 c 0,19,20
 408 160 408 160 437.5 193 c 128,-1,21
 467 226 467 226 467 276 c 2,22,-1
 467 701 l 1,23,-1
 675 701 l 1,24,-1
 675 276 l 2,25,26
 675 226 675 226 706.5 193 c 128,-1,27
 738 160 738 160 784 160 c 0,28,29
 829 160 829 160 857.5 192.5 c 128,-1,30
 886 225 886 225 886 276 c 2,31,-1
 886 701 l 1,32,-1
 1094 701 l 1,33,-1
 1094 276 l 2,34,0
 1094 193 1094 193 1058 127 c 128,-1,1
EndSplineSet
EndChar

